<?xml version="1.0" encoding="utf-8"?>
<!-- Generator: Adobe Illustrator 19.1.0, SVG Export Plug-In . SVG Version: 6.00 Build 0)  -->
<svg version="1.1" id="Camada_1" xmlns="http://www.w3.org/2000/svg" xmlns:xlink="http://www.w3.org/1999/xlink" x="0px" y="0px"
	 viewBox="0 0 283.5 70.9" style="enable-background:new 0 0 283.5 70.9;" xml:space="preserve">
<style type="text/css">
	.st0{fill:#00A4C3;}
</style>
<g>
	<path class="st0" d="M77.9,21.5L65.8,49.1h4.9l2.8-6.6h13l2.8,6.6h5.1L82.3,21.5H77.9z M80,27.2l4.7,11h-9.4L80,27.2z"/>
	<polygon class="st0" points="90.1,21.7 90.1,26.1 98.8,26.1 98.8,49.1 103.6,49.1 103.6,26.1 112.3,26.1 112.3,21.7 	"/>
	<polygon class="st0" points="115.1,21.7 115.1,49.1 134.4,49.1 134.4,44.7 120,44.7 120,21.7 	"/>
	<path class="st0" d="M147.8,21.5l-12.1,27.6h4.9l2.8-6.6h13l2.8,6.6h5.1l-12.1-27.6H147.8z M150,27.2l4.7,11h-9.4L150,27.2z"/>
	<polygon class="st0" points="185.6,21.7 185.6,40.6 171,21.8 170.9,21.7 166.5,21.7 166.5,49.1 171.2,49.1 171.2,29.6 186.2,49 
		186.3,49.1 190.4,49.1 190.4,21.7 	"/>
	<polygon class="st0" points="193.2,21.7 193.2,26.1 201.9,26.1 201.9,49.1 206.8,49.1 206.8,26.1 215.5,26.1 215.5,21.7 	"/>
	<rect x="218.3" y="21.7" class="st0" width="4.8" height="27.4"/>
	<g>
		<path class="st0" d="M231.3,25.4c-2.7,2.7-4.2,6.2-4.2,10c0,3.8,1.5,7.3,4.2,10c2.8,2.8,6.4,4.2,10,4.2c3.6,0,7.3-1.4,10-4.1
			l-3.3-3.3c-3.7,3.7-9.8,3.7-13.5,0c-1.8-1.8-2.8-4.2-2.8-6.8c0-2.6,1-5,2.8-6.8c3.7-3.7,9.8-3.7,13.5,0l3.3-3.3
			c-2.8-2.8-6.4-4.1-10-4.1C237.7,21.2,234,22.6,231.3,25.4"/>
		<path class="st0" d="M252.3,35.4c0,7.8,6.3,14.2,14.2,14.2c7.8,0,14.2-6.4,14.2-14.2s-6.3-14.2-14.2-14.2
			C258.6,21.2,252.3,27.6,252.3,35.4 M256.9,35.4c0-5.3,4.3-9.6,9.6-9.6c5.3,0,9.6,4.3,9.6,9.6c0,5.3-4.3,9.6-9.6,9.6
			C261.2,45,256.9,40.7,256.9,35.4"/>
		<path class="st0" d="M20.2,3.7v11.5l-0.3,0.1C10.2,16.9,2.8,25.6,2.8,35.4c0,9.9,7.3,18.6,17.1,20.3l0.3,0.1v11.4h6.3V55.7
			l0.3-0.1c9.7-1.7,17.1-10.4,17.1-20.3c0-9.9-7.3-18.6-17.1-20.2l-0.3-0.1V3.7H20.2z M26.5,21.2l0.5,0.1
			c6.4,1.7,10.9,7.4,10.9,14.1c0,6.6-4.5,12.4-10.9,14.1l-0.5,0.1V21.2z M19.7,49.5C13.3,47.8,8.9,42,8.9,35.4
			c0-6.6,4.5-12.4,10.9-14.1l0.5-0.1v28.4L19.7,49.5z"/>
	</g>
</g>
</svg>
