<?xml version="1.0" encoding="utf-8"?>
<!-- Generator: Adobe Illustrator 20.1.0, SVG Export Plug-In . SVG Version: 6.00 Build 0)  -->
<svg version="1.1" id="Layer_1" xmlns="http://www.w3.org/2000/svg" xmlns:xlink="http://www.w3.org/1999/xlink" x="0px" y="0px"
	 viewBox="0 0 464 159.3" style="enable-background:new 0 0 464 159.3;" xml:space="preserve">
<style type="text/css">
	.st0{fill:#F37037;}
</style>
<path class="st0" d="M99.5,26.4V0h26.4v26.4H99.5z M99.5,141.7V39.6h26.4v102.2H99.5z M51.6,0H34.7L0,34.7v107h51.6
	c23.1,0,41.2-19.1,41.2-42.1c0-10.5-4-20.9-11.3-28.8c7.2-7.9,11.3-18.3,11.3-28.8C92.8,19.3,74.7,0,51.6,0z M51.6,115.4H26.4V84.2
	h25.2c8.7,0,14.9,7.2,14.9,15.5S60.2,115.4,51.6,115.4z M51.6,57.6H26.4V26.4h25.2c8.7,0,14.9,7.4,14.9,15.7S60.2,57.6,51.6,57.6z
	 M226.8,57.6h-46.4v26.6h20v10.7c0,11.1-9.1,20.2-20,20.2c-11.1,0-20.2-9.1-20.2-20.2v-48c0-11.1,9.1-20.2,20.2-20.2
	c4.7,0,9.1,1.7,12.6,4.6h31.2C217.8,13,200.6,0,180.4,0c-25.8,0-46.6,20.8-46.6,46.6v48.5c0,25.8,20.8,46.6,46.5,46.6h0
	c0,0,0.1,0,0.1,0s0.1,0,0.1,0h0c4.4,0,8.6-0.6,12.7-1.7l33.7-33.7L226.8,57.6z M226.8,106.3h22.1V84.2L226.8,106.3z M340.6,106.3
	c4.5,0,8.1-3.6,8.1-8v-6c0-4.5-3.6-8.1-8.1-8.1c-4.4,0-8,3.6-8,8.1v6C332.5,102.7,336.1,106.3,340.6,106.3z M336.6,92.2
	c0-2.2,1.8-4,3.9-4c2.2,0,4,1.8,4,4v6c0,2.1-1.8,3.9-4,3.9c-2.2,0-3.9-1.8-3.9-3.9V92.2z M259.2,132.8h-4.1v-22.1h4.1V132.8z
	 M362.5,132.8h-4.1v-22.1h4.1V132.8z M278.5,101.8h7.4l1.5,4.5h4.4l-7.4-22.1H280l-7.4,22.1h4.3L278.5,101.8z M282.2,90.7l2.4,7
	h-4.7L282.2,90.7z M307.7,114.8v4.9h12v4.1h-12v4.9h12v4.1h-16.1v-22.1h16.1v4.1H307.7z M298.4,106.3h-4.1V84.2h3.8l8.2,13.4V84.2
	h4.1v22.1h-3.8l-8.2-13.4V106.3z M275.9,110.7h4.1v22.1h-3.8l-8.2-13.4v13.4h-4.1v-22.1h3.8l8.2,13.4V110.7z M314.5,98.2v-6
	c0-4.5,3.6-8.1,8-8.1c3.6,0,6.6,2.3,7.7,5.5h-4.6c-0.7-0.9-1.8-1.4-3-1.4c-2.2,0-3.9,1.8-3.9,4v6c0,2.1,1.8,3.9,3.9,3.9
	c1.2,0,2.3-0.6,3-1.4h4.6c-1.1,3.2-4.1,5.5-7.7,5.5C318.1,106.3,314.5,102.7,314.5,98.2z M329.1,110.7h3.3c2.9,0,5.2,1.9,6.1,4.4
	l-3.9,1.3c-0.3-0.9-1.2-1.6-2.2-1.6h-3.3c-1.2,0-2.3,1-2.3,2.5c0,1.9,2.4,2.1,5.1,2.6c3.3,0.6,6.9,1.5,6.9,6.3
	c0,3.6-2.8,6.6-6.4,6.6h-3.3c-2.8,0-5.2-1.9-6.1-4.4l3.9-1.4c0.3,1,1.2,1.6,2.2,1.6h3.3c1.2,0,2.3-1,2.3-2.5c0-1.8-2.1-2.1-4.5-2.5
	c-3.4-0.6-7.5-1.4-7.5-6.4C322.7,113.7,325.5,110.7,329.1,110.7z M286.6,110.7l5.2,15.6l5.2-15.6h4.4l-7.4,22.1h-4.3l-7.4-22.1
	H286.6z M383.3,110.7h4v22.1h-4.1v-10.2l-4.1,10.2h-3.8l-4-10.2v10.2h-4.1v-22.1h4l6.1,16.2L383.3,110.7z M352.5,155.2h12v4.1h-16.1
	v-22.1h4.1V155.2z M392,110.7h16.1v4.1h-12v4.9h12v4.1h-12v4.9h12v4.1H392V110.7z M355.9,114.8h-6v18h-4.1v-18h-6v-4.1h16.1V114.8z
	 M456,110.7c-4.4,0-8,3.6-8,8.1v6c0,4.4,3.6,8,8,8c4.5,0,8.1-3.6,8.1-8v-6C464,114.3,460.4,110.7,456,110.7z M459.9,124.7
	c0,2.1-1.8,3.9-4,3.9c-2.2,0-3.9-1.8-3.9-3.9v-6c0-2.2,1.8-4,3.9-4c2.2,0,4,1.8,4,4V124.7z M424.4,110.7h4.1v22.1h-3.8l-8.2-13.4
	v13.4h-4.1v-22.1h3.8l8.2,13.4V110.7z M431,110.7h16.1v4.1h-6v18H437v-18h-6V110.7z M334.1,137.1l-7.4,22.1h4.3l1.5-4.5h7.4l1.5,4.5
	h4.4l-7.4-22.1H334.1z M334,150.7l2.3-7l2.4,7H334z M318.9,137.1h-9.7v22.1h9.7c3.6,0,6.4-3,6.4-6.6c0-1.6-0.6-3.3-1.8-4.5
	c1.1-1.2,1.8-2.9,1.8-4.5C325.3,140.2,322.5,137.1,318.9,137.1z M318.9,155.2h-5.6v-4.9h5.6c1.4,0,2.3,1.1,2.3,2.4
	C321.2,154,320.2,155.2,318.9,155.2z M318.9,146.1h-5.6v-4.9h5.6c1.4,0,2.3,1.2,2.3,2.5C321.2,145,320.2,146.1,318.9,146.1z
	 M264.8,84.2h-9.7v22.1h9.7c3.6,0,6.4-3,6.4-6.6c0-1.6-0.6-3.3-1.8-4.5c1.1-1.2,1.8-2.9,1.8-4.5C271.2,87.2,268.4,84.2,264.8,84.2z
	 M264.8,102.2h-5.6v-4.9h5.6c1.4,0,2.3,1.1,2.3,2.4C267.1,101,266.1,102.2,264.8,102.2z M264.8,93.2h-5.6v-4.9h5.6
	c1.4,0,2.3,1.2,2.3,2.5C267.1,92,266.1,93.2,264.8,93.2z M298.2,137.1c-4.4,0-8,3.6-8,8.1v6c0,4.4,3.6,8,8,8c4.5,0,8.1-3.6,8.1-8v-6
	C306.3,140.8,302.6,137.1,298.2,137.1z M302.1,151.2c0,2.1-1.8,3.9-4,3.9c-2.2,0-3.9-1.8-3.9-3.9v-6c0-2.2,1.8-4,3.9-4
	c2.2,0,4,1.8,4,4V151.2z M278.1,155.2h10.8v4.1H274v-22.1h4.1V155.2z M374.6,98.2c0,4.4-3.6,8-8.1,8h-8V84.2h8
	c4.5,0,8.1,3.6,8.1,8.1V98.2z M370.5,92.2c0-2.2-1.8-4-4-4h-3.9v13.9h3.9c2.2,0,4-1.8,4-3.9V92.2z M378.7,106.3V84.2h16.1v4.1h-12
	v4.9h12v4.1h-12v4.9h12v4.1H378.7z M271.2,146.2h-0.4v0h-7.7v4.1h4v0.9c0,2.2-1.8,3.9-4,3.9c-2.2,0-3.9-1.8-3.9-3.9v-6
	c0-2.2,1.8-4,3.9-4c0.9,0,1.7,0.3,2.4,0.8h5.1c-0.2-0.4-0.6-1.2-0.7-1.3c-1.5-2.2-4-3.6-6.7-3.6c-4.4,0-8,3.6-8,8.1v6
	c0,4.4,3.6,8,8,8c1.4,0,2.8-0.3,4-1c1-0.6,1.9-1.4,2.7-2.4c1.1-1.6,1.2-2.7,1.4-3.9L271.2,146.2z"/>
</svg>
