<?xml version="1.0" encoding="utf-8"?>
<!-- Generator: Adobe Illustrator 19.0.0, SVG Export Plug-In . SVG Version: 6.00 Build 0)  -->
<!DOCTYPE svg PUBLIC "-//W3C//DTD SVG 1.1//EN" "http://www.w3.org/Graphics/SVG/1.1/DTD/svg11.dtd" [
	<!ENTITY ns_extend "http://ns.adobe.com/Extensibility/1.0/">
	<!ENTITY ns_ai "http://ns.adobe.com/AdobeIllustrator/10.0/">
	<!ENTITY ns_graphs "http://ns.adobe.com/Graphs/1.0/">
	<!ENTITY ns_vars "http://ns.adobe.com/Variables/1.0/">
	<!ENTITY ns_imrep "http://ns.adobe.com/ImageReplacement/1.0/">
	<!ENTITY ns_sfw "http://ns.adobe.com/SaveForWeb/1.0/">
	<!ENTITY ns_custom "http://ns.adobe.com/GenericCustomNamespace/1.0/">
	<!ENTITY ns_adobe_xpath "http://ns.adobe.com/XPath/1.0/">
]>
<svg version="1.1" id="Layouts" xmlns:x="&ns_extend;" xmlns:i="&ns_ai;" xmlns:graph="&ns_graphs;"
	 xmlns="http://www.w3.org/2000/svg" xmlns:xlink="http://www.w3.org/1999/xlink" x="0px" y="0px" viewBox="0 0 162 50.3"
	 style="enable-background:new 0 0 162 50.3;" xml:space="preserve">
<style type="text/css">
	.st0{fill:#1D1D1B;}
	.st1{fill:#F05F22;}
</style>
<metadata>
	<sfw  xmlns="&ns_sfw;">
		<slices></slices>
		<sliceSourceBounds  width="1200" height="16383" y="-8203.7" x="3623.1" bottomLeftOrigin="true"></sliceSourceBounds>
	</sfw>
</metadata>
<g>
	<g>
	</g>
	<g>
	</g>
</g>
<g id="XMLID_2_">
	<path class="st0" d="M55.4,17h-1.5v-1.5h7.1c2.6,0,4.5,1.6,4.5,4.2c0,1.8-0.9,3-2.1,3.6v0c1.7,0.5,2.8,2.1,2.8,4.1
		c0,3-2.2,4.7-5,4.7h-4.3c-1,0-1.4-0.4-1.4-1.4V17z M60.9,22.7c1.7,0,2.8-1.2,2.8-2.9c0-1.7-1.1-2.8-2.8-2.8H57v5.7H60.9z
		 M57.5,30.7h3.5c2,0,3.2-1.3,3.2-3.2c0-2-1.3-3.3-3.3-3.3h-4v6C57,30.5,57.2,30.7,57.5,30.7 M75.4,24.8h0.7v-0.1
		c0-2.5-0.9-3.4-3.1-3.4c-0.6,0-2.3,0.2-2.3,1v0.8h-1.5V22c0-1.7,2.8-2,3.9-2c3.8,0,4.7,2,4.7,4.6v5.7c0,0.4,0.2,0.5,0.5,0.5h1v1.4
		h-1.6c-1,0-1.4-0.4-1.4-1.4c0-0.5,0-0.9,0-0.9h0c0,0-1,2.6-3.9,2.6c-2,0-4-1.2-4-3.5C68.2,25,73.4,24.8,75.4,24.8 M72.5,31.1
		c2.3,0,3.6-2.4,3.6-4.4v-0.5h-0.7c-1.9,0-5.6,0-5.6,2.7C69.8,29.9,70.7,31.1,72.5,31.1 M81.8,22.2c0-0.3-0.2-0.5-0.5-0.5h-1v-1.4
		h1.7c1,0,1.4,0.4,1.4,1.3v0.5c0,0.5,0,0.9,0,0.9h0c0.4-1.1,1.9-3,4.7-3c3,0,4,1.7,4,4.6v5.6c0,0.4,0.2,0.5,0.5,0.5h1v1.4h-1.7
		c-1,0-1.4-0.4-1.4-1.4V25c0-1.9-0.3-3.5-2.6-3.5c-2,0-3.8,1.4-4.3,3.4c-0.1,0.5-0.2,1-0.2,1.6v5.7h-1.6V22.2z M101.3,20
		c1.3,0,4.2,0.6,4.2,2.5v1.1H104v-0.7c0-1-1.7-1.5-2.7-1.5c-2.6,0-4.6,1.9-4.6,4.8c0,2.9,2.1,4.7,4.7,4.7c2.4,0,3.8-1.7,3.8-1.7
		l0.8,1.2c0,0-1.6,1.9-4.7,1.9c-3.5,0-6.2-2.5-6.2-6.2C95,22.6,97.7,20,101.3,20 M113.8,20c3.5,0,6.3,2.6,6.3,6.2
		c0,3.6-2.8,6.3-6.3,6.3c-3.5,0-6.3-2.7-6.3-6.3C107.5,22.6,110.3,20,113.8,20 M113.8,31c2.5,0,4.6-2.1,4.6-4.8
		c0-2.7-2.1-4.7-4.6-4.7c-2.6,0-4.6,2-4.6,4.7C109.2,28.9,111.2,31,113.8,31"/>
	<path class="st1" d="M123.6,18.2h-1.5v-2.6h7.1c3,0,5.1,1.5,5.1,4.3c0,1.8-1,3-2,3.5v0c1.8,0.5,2.7,2.2,2.7,3.9
		c0,3.3-2.6,4.8-5.7,4.8h-4.1c-1.1,0-1.6-0.5-1.6-1.6V18.2z M129.2,22.3c1.3,0,2-0.9,2-2.1c0-1.2-0.7-2-2-2h-2.6v4.2H129.2z
		 M127.1,29.5h2.4c1.5,0,2.3-1,2.3-2.4c0-1.4-0.9-2.4-2.3-2.4h-2.9V29C126.6,29.4,126.8,29.5,127.1,29.5 M136.8,29.5h1
		c0.3,0,0.5-0.2,0.5-0.5V15.5h2.8l6.3,9.2c0.7,1,1.4,2.3,1.4,2.3h0c0,0-0.2-1.4-0.2-2.3v-7.6c0-1.1,0.5-1.6,1.6-1.6h3v2.6h-1
		c-0.3,0-0.5,0.2-0.5,0.5v13.5H149l-6.3-9.2c-0.7-0.9-1.4-2.3-1.4-2.3h0c0,0,0.2,1.4,0.2,2.3v7.6c0,1.1-0.5,1.6-1.6,1.6h-3V29.5z
		 M154.9,29.5h1.7V18.1h-1.7v-2.6h6.2v2.6h-1.7v11.4h1.7v2.6h-6.2V29.5z"/>
	<path class="st0" d="M123.6,39.8h-0.8v-1.1h5.3c0.6,0,0.8,0.2,0.8,0.8v1.1h-1.2v-0.6c0-0.2-0.1-0.3-0.3-0.3h-2.6v2.8h3.1v1.1h-3.1
		v2.6c0,0.2,0.1,0.3,0.3,0.3h2.6c0.2,0,0.3-0.1,0.3-0.3v-0.6h1.2v1.1c0,0.6-0.2,0.8-0.8,0.8h-4c-0.6,0-0.8-0.2-0.8-0.8V39.8z
		 M130.1,42.6c0-0.2-0.1-0.3-0.3-0.3h-0.5v-1.1h1.2c0.6,0,0.8,0.2,0.8,0.8v3.1c0,0.9,0.2,1.6,1.2,1.6c1.3,0,2.1-1.2,2.1-2.4v-3h1.2
		v5.1c0,0.2,0.1,0.3,0.3,0.3h0.5v1.1h-1.2c-0.5,0-0.8-0.3-0.8-0.7v-0.2c0-0.2,0-0.4,0-0.4h0c-0.3,0.6-1.1,1.5-2.4,1.5
		c-1.5,0-2.2-0.8-2.2-2.5V42.6z M137.6,42.6c0-0.2-0.1-0.3-0.3-0.3h-0.5v-1.1h1.2c0.6,0,0.8,0.2,0.8,0.8v0.4c0,0.3,0,0.4,0,0.4h0
		c0.3-0.9,1-1.7,2-1.7c0.2,0,0.3,0,0.3,0v1.2c0,0-0.2,0-0.4,0c-0.8,0-1.5,0.6-1.8,1.5c-0.1,0.4-0.2,0.8-0.2,1.2v2.6h-1.2V42.6z
		 M144.6,41.1c1.9,0,3.5,1.4,3.5,3.4c0,2-1.6,3.4-3.5,3.4c-1.9,0-3.5-1.4-3.5-3.4C141.2,42.5,142.7,41.1,144.6,41.1 M144.6,46.8
		c1.2,0,2.2-1,2.2-2.3c0-1.3-1-2.3-2.2-2.3c-1.2,0-2.2,1-2.2,2.3C142.4,45.8,143.4,46.8,144.6,46.8 M149.2,42.6
		c0-0.2-0.1-0.3-0.3-0.3h-0.5v-1.1h1.2c0.6,0,0.8,0.2,0.8,0.7c0,0.2,0,0.3,0,0.3h0c0,0,0.5-1.1,2.1-1.1c1.7,0,2.8,1.4,2.8,3.4
		c0,2-1.2,3.4-2.9,3.4c-1.4,0-2-1-2-1h0c0,0,0,0.2,0,0.6v2.9h-1.2V42.6z M152.2,46.8c1,0,1.9-0.8,1.9-2.3c0-1.4-0.7-2.3-1.8-2.3
		c-1,0-1.9,0.7-1.9,2.3C150.4,45.7,151,46.8,152.2,46.8 M159.7,43.7h0.3v-0.1c0-1.1-0.4-1.5-1.4-1.5c-0.3,0-1.1,0.1-1.1,0.5V43h-1.2
		v-0.6c0-1.1,1.6-1.2,2.2-1.2c2.1,0,2.6,1.1,2.6,2.5v2.7c0,0.2,0.1,0.3,0.3,0.3h0.5v1.1h-1.2c-0.6,0-0.8-0.3-0.8-0.7
		c0-0.2,0-0.4,0-0.4h0c0,0-0.5,1.3-2,1.3c-1.1,0-2.2-0.7-2.2-2C155.8,43.8,158.6,43.7,159.7,43.7 M158.2,46.9c1,0,1.7-1.1,1.7-2
		v-0.2h-0.3c-0.9,0-2.6,0-2.6,1.2C157,46.4,157.4,46.9,158.2,46.9"/>
	<path class="st1" d="M26,47.7C26,47.7,26,47.7,26,47.7l-0.3,0H7.8c-4.3,0-7.8-3.5-7.8-7.8V7.8C0,3.5,3.5,0,7.8,0h17.9H26h0.8v0
		C35,0.4,41.7,7.3,41.7,15.7c0,2.9-0.8,5.7-2.3,8.1c1.5,2.5,2.3,5.3,2.3,8.2C41.7,40.7,34.7,47.7,26,47.7 M28.9,1.8
		c0.3,0.4,0.7,0.9,1,1.5c1.7,3.1,2.8,8.1,3.2,14.8c2.1,1.1,3.9,2.6,5.3,4.5c1.1-2.1,1.7-4.4,1.7-6.8C40.2,8.9,35.3,3.2,28.9,1.8
		 M31.6,30.4c-1.8,0.7-3.6,1-5.6,1c-4.4,0-10.4-0.7-21.5-5.1l21.7,19.9C27.2,45.8,30.7,43.6,31.6,30.4 M26.2,1.6L4.5,21.4
		C15.6,17,21.6,16.3,26,16.3c1.9,0,3.8,0.3,5.6,1C30.7,4,27.2,1.9,26.2,1.6 M31.8,23.9c0-0.4,0-0.9,0-1.3c0,0,0,0,0,0
		c0-0.1,0-0.3,0-0.4c0-0.3,0-0.6,0-0.9c0-0.2,0-0.3,0-0.5c0-0.3,0-0.5,0-0.8c0-0.2,0-0.3,0-0.5c0-0.2,0-0.3,0-0.5
		c-1.8-0.8-3.7-1.2-5.7-1.2c-4.6,0-10.9,0.7-23.4,6c12.5,5.3,18.8,6,23.4,6c2,0,3.9-0.4,5.7-1.2c0-0.2,0-0.3,0-0.5
		c0-0.2,0-0.3,0-0.5c0-0.3,0-0.5,0-0.8c0-0.2,0-0.3,0-0.5c0-0.3,0-0.6,0-0.9c0-0.1,0-0.3,0-0.4c0,0,0,0,0-0.1
		C31.8,24.7,31.8,24.3,31.8,23.9 M33.2,27.9c1.7-1,3.2-2.4,4.4-4.1c-1.2-1.7-2.7-3.1-4.4-4.1c0,0.6,0,1.3,0.1,2v0c0,0.2,0,0.4,0,0.6
		c0,0.1,0,0.1,0,0.2c0,0.1,0,0.1,0,0.2c0,0,0,0.1,0,0.1c0,0.3,0,0.7,0,1c0,0.3,0,0.7,0,1c0,0,0,0.1,0,0.1c0,0.1,0,0.1,0,0.2
		c0,0.1,0,0.1,0,0.2c0,0.2,0,0.4,0,0.6v0C33.2,26.6,33.2,27.3,33.2,27.9 M1.5,22.2L24.1,1.5H7.8c-3.5,0-6.3,2.8-6.3,6.3V22.2z
		 M24.1,46.2L1.5,25.6v14.3c0,3.5,2.8,6.3,6.3,6.3H24.1z M40.2,32c0-2.4-0.6-4.7-1.7-6.8c-1.4,1.9-3.3,3.4-5.4,4.5
		c-0.4,6.7-1.4,11.7-3.2,14.8c-0.3,0.6-0.7,1.1-1,1.5C35.4,44.6,40.2,38.9,40.2,32"/>
</g>
</svg>
