<?xml version="1.0" encoding="utf-8"?>
<!-- Generator: Adobe Illustrator 22.0.0, SVG Export Plug-In . SVG Version: 6.00 Build 0)  -->
<svg version="1.1" id="Layer_1" xmlns="http://www.w3.org/2000/svg" xmlns:xlink="http://www.w3.org/1999/xlink" x="0px" y="0px"
	 viewBox="0 0 105 50" style="enable-background:new 0 0 105 50;" xml:space="preserve">
<style type="text/css">
	.st0{fill:#FFFFFF;}
	.st1{clip-path:url(#SVGID_2_);fill:#293081;}
	.st2{clip-path:url(#SVGID_4_);fill:none;stroke:#293081;stroke-width:9.359798e-02;stroke-linejoin:round;stroke-miterlimit:10;}
	.st3{clip-path:url(#SVGID_6_);fill:#FFFFFF;}
	.st4{clip-path:url(#SVGID_8_);fill:none;stroke:#FFFFFF;stroke-width:9.359798e-02;stroke-linejoin:round;stroke-miterlimit:10;}
	.st5{clip-path:url(#SVGID_10_);fill:#EE282A;}
	.st6{clip-path:url(#SVGID_12_);fill:none;stroke:#EE282A;stroke-width:9.359798e-02;stroke-linejoin:round;stroke-miterlimit:10;}
	.st7{clip-path:url(#SVGID_14_);fill:#FFFFFF;}
	.st8{clip-path:url(#SVGID_16_);fill:none;stroke:#FFFFFF;stroke-width:9.359798e-02;stroke-linejoin:round;stroke-miterlimit:10;}
	.st9{clip-path:url(#SVGID_18_);}
	.st10{clip-path:url(#SVGID_20_);fill:none;stroke:#000000;stroke-width:9.359798e-02;stroke-linejoin:round;stroke-miterlimit:10;}
	.st11{clip-path:url(#SVGID_22_);}
	.st12{clip-path:url(#SVGID_24_);fill:none;stroke:#000000;stroke-width:9.359798e-02;stroke-linejoin:round;stroke-miterlimit:10;}
	.st13{clip-path:url(#SVGID_26_);fill:#6E7BA8;}
	.st14{clip-path:url(#SVGID_28_);fill:none;stroke:#6E7BA8;stroke-width:9.359798e-02;stroke-linejoin:round;stroke-miterlimit:10;}
	.st15{clip-path:url(#SVGID_30_);fill:#EE282A;}
	.st16{clip-path:url(#SVGID_32_);fill:none;stroke:#EE282A;stroke-width:9.359798e-02;stroke-linejoin:round;stroke-miterlimit:10;}
	.st17{clip-path:url(#SVGID_34_);fill:#FDFDFD;}
	.st18{clip-path:url(#SVGID_36_);fill:none;stroke:#FDFDFD;stroke-width:9.359798e-02;stroke-linejoin:round;stroke-miterlimit:10;}
	.st19{clip-path:url(#SVGID_38_);fill:#FDFDFD;}
	.st20{clip-path:url(#SVGID_40_);fill:none;stroke:#FDFDFD;stroke-width:9.359798e-02;stroke-linejoin:round;stroke-miterlimit:10;}
	.st21{clip-path:url(#SVGID_42_);fill:#080D0D;}
	.st22{clip-path:url(#SVGID_44_);fill:none;stroke:#080D0D;stroke-width:9.359798e-02;stroke-linejoin:round;stroke-miterlimit:10;}
	.st23{clip-path:url(#SVGID_46_);fill:#FDFDFD;}
	.st24{clip-path:url(#SVGID_48_);fill:none;stroke:#FDFDFD;stroke-width:9.359798e-02;stroke-linejoin:round;stroke-miterlimit:10;}
</style>
<g>
	<rect class="st0" width="105" height="50"/>
</g>
<g>
	<g>
		<defs>
			<rect id="SVGID_1_" x="32.1" y="10.9" width="40.8" height="28.2"/>
		</defs>
		<clipPath id="SVGID_2_">
			<use xlink:href="#SVGID_1_"  style="overflow:visible;"/>
		</clipPath>
		<polyline class="st1" points="38.6,11 53.7,11 53.8,11.1 53.9,11.2 54,11.3 54,11.5 54,11.6 53.3,16 52.7,20.4 52.6,21 52.5,21.7 
			52.4,22.3 52.3,22.4 52.3,22.5 52.3,22.6 52.1,23 51.8,23.3 51.6,23.6 51.3,23.9 51.2,23.9 51.2,24 51.1,23.9 51,23.9 51,23.8 
			51,23.7 51.1,23.5 51.1,23.2 51.6,20.4 51.6,20.2 51.6,20.1 51.6,19.9 51.5,19.8 51.3,19.8 51.2,19.7 50.9,19.7 49,19.7 
			48.7,19.7 48.6,19.7 48.4,19.8 48.3,19.9 48.3,20.1 48.2,20.3 46.6,29.3 46.2,31.6 46.2,31.8 46.2,32 46.2,32.1 46.3,32.2 
			46.4,32.3 46.6,32.3 46.8,32.3 49,32.3 49.2,32.3 49.3,32.3 49.4,32.2 49.5,32.1 49.5,32 49.6,31.8 50.2,28.1 50.2,28.1 50.2,28 
			50.3,27.9 50.3,27.8 50.4,27.8 50.4,27.7 50.5,27.8 50.6,27.8 50.6,27.9 50.7,28 50.7,28.1 51.2,29.1 51.3,29.2 51.3,29.3 
			51.3,29.5 50.9,32.3 50.5,35.2 50,38 50,38.3 50,38.5 49.9,38.7 49.8,38.9 49.7,39 49.5,39 49.3,39.1 34.6,39.1 34.5,39 34.3,39 
			34.3,38.9 34.2,38.8 34.2,38.6 34.1,38.4 34.2,38.2 34.7,35 35.1,31.9 35.2,31.1 35.4,30.2 35.4,30.1 35.4,30 35.5,29.8 
			35.6,29.8 35.6,29.8 35.7,29.8 35.7,29.9 35.7,30 35.7,30 35.9,30.4 36.2,30.7 36.4,31 36.7,31.3 37.1,31.6 37.5,31.8 37.9,32 
			38.3,32.2 38.7,32.3 39.1,32.4 39.9,32.5 40.7,32.5 41.5,32.5 42.3,32.4 43.1,32.2 43.8,32 44.1,31.9 44.2,31.8 44.4,31.7 
			44.4,31.5 44.5,31.2 44.6,30.6 44.7,30 44.8,29.4 44.8,29.2 44.8,29.1 44.8,29 44.7,28.9 44.6,28.8 44.4,28.8 44.3,28.8 
			44.2,28.9 43.6,29.1 43,29.3 42.3,29.5 41.7,29.5 41.3,29.5 41,29.5 40.7,29.4 40.3,29.3 40,29.2 39.8,29 39.5,28.8 39.3,28.6 
			39.1,28.3 39,28 38.9,27.6 38.9,27.2 38.8,26.8 38.9,26.4 38.9,26 39.1,25.6 39.2,25.1 39.4,24.7 39.6,24.3 39.9,23.9 40.2,23.6 
			40.6,23.3 40.9,23.1 41.4,22.9 41.8,22.7 42.4,22.6 42.9,22.5 43.4,22.5 44,22.6 44.5,22.8 45,23 45.3,23.1 45.5,23.2 45.6,23.2 
			45.7,23.2 45.8,23.1 45.9,23 46,22.8 46.2,21.7 46.4,20.5 46.4,20.3 46.4,20.2 46.3,20.1 46.2,20 46,19.9 45.5,19.8 45.1,19.7 
			44.6,19.6 43.8,19.5 43,19.5 42.3,19.6 41.5,19.7 40.8,19.9 40.1,20.1 39.5,20.4 38.9,20.7 38.4,21.1 37.8,21.6 37.3,22.1 
			36.9,22.6 36.9,22.7 36.8,22.7 36.8,22.8 36.7,22.8 36.6,22.9 36.5,22.8 36.5,22.7 36.5,22.5 36.5,22.3 36.6,22.1 37.3,17.2 
			38,12.3 38.1,11.9 38.1,11.6 38.2,11.4 38.3,11.2 38.4,11.1 38.6,11 		"/>
	</g>
	<g>
		<defs>
			<rect id="SVGID_3_" x="32.1" y="10.9" width="40.8" height="28.2"/>
		</defs>
		<clipPath id="SVGID_4_">
			<use xlink:href="#SVGID_3_"  style="overflow:visible;"/>
		</clipPath>
		<polygon class="st2" points="38.6,11 53.7,11 53.8,11.1 53.9,11.2 54,11.3 54,11.5 54,11.6 53.3,16 52.7,20.4 52.6,21 52.5,21.7 
			52.4,22.3 52.3,22.4 52.3,22.5 52.3,22.6 52.1,23 51.8,23.3 51.6,23.6 51.3,23.9 51.2,23.9 51.2,24 51.1,23.9 51,23.9 51,23.8 
			51,23.7 51.1,23.5 51.1,23.2 51.6,20.4 51.6,20.2 51.6,20.1 51.6,19.9 51.5,19.8 51.3,19.8 51.2,19.7 50.9,19.7 49,19.7 
			48.7,19.7 48.6,19.7 48.4,19.8 48.3,19.9 48.3,20.1 48.2,20.3 46.6,29.3 46.2,31.6 46.2,31.8 46.2,32 46.2,32.1 46.3,32.2 
			46.4,32.3 46.6,32.3 46.8,32.3 49,32.3 49.2,32.3 49.3,32.3 49.4,32.2 49.5,32.1 49.5,32 49.6,31.8 50.2,28.1 50.2,28.1 50.2,28 
			50.3,27.9 50.3,27.8 50.4,27.8 50.4,27.7 50.5,27.8 50.6,27.8 50.6,27.9 50.7,28 50.7,28.1 51.2,29.1 51.3,29.2 51.3,29.3 
			51.3,29.5 50.9,32.3 50.5,35.2 50,38 50,38.3 50,38.5 49.9,38.7 49.8,38.9 49.7,39 49.5,39 49.3,39.1 34.6,39.1 34.5,39 34.3,39 
			34.3,38.9 34.2,38.8 34.2,38.6 34.1,38.4 34.2,38.2 34.7,35 35.1,31.9 35.2,31.1 35.4,30.2 35.4,30.1 35.4,30 35.5,29.8 
			35.6,29.8 35.6,29.8 35.7,29.8 35.7,29.9 35.7,30 35.7,30 35.9,30.4 36.2,30.7 36.4,31 36.7,31.3 37.1,31.6 37.5,31.8 37.9,32 
			38.3,32.2 38.7,32.3 39.1,32.4 39.9,32.5 40.7,32.5 41.5,32.5 42.3,32.4 43.1,32.2 43.8,32 44.1,31.9 44.2,31.8 44.4,31.7 
			44.4,31.5 44.5,31.2 44.6,30.6 44.7,30 44.8,29.4 44.8,29.2 44.8,29.1 44.8,29 44.7,28.9 44.6,28.8 44.4,28.8 44.3,28.8 
			44.2,28.9 43.6,29.1 43,29.3 42.3,29.5 41.7,29.5 41.3,29.5 41,29.5 40.7,29.4 40.3,29.3 40,29.2 39.8,29 39.5,28.8 39.3,28.6 
			39.1,28.3 39,28 38.9,27.6 38.9,27.2 38.8,26.8 38.9,26.4 38.9,26 39.1,25.6 39.2,25.1 39.4,24.7 39.6,24.3 39.9,23.9 40.2,23.6 
			40.6,23.3 40.9,23.1 41.4,22.9 41.8,22.7 42.4,22.6 42.9,22.5 43.4,22.5 44,22.6 44.5,22.8 45,23 45.3,23.1 45.5,23.2 45.6,23.2 
			45.7,23.2 45.8,23.1 45.9,23 46,22.8 46.2,21.7 46.4,20.5 46.4,20.3 46.4,20.2 46.3,20.1 46.2,20 46,19.9 45.5,19.8 45.1,19.7 
			44.6,19.6 43.8,19.5 43,19.5 42.3,19.6 41.5,19.7 40.8,19.9 40.1,20.1 39.5,20.4 38.9,20.7 38.4,21.1 37.8,21.6 37.3,22.1 
			36.9,22.6 36.9,22.7 36.8,22.7 36.8,22.8 36.7,22.8 36.6,22.9 36.5,22.8 36.5,22.7 36.5,22.5 36.5,22.3 36.6,22.1 37.3,17.2 
			38,12.3 38.1,11.9 38.1,11.6 38.2,11.4 38.3,11.2 38.4,11.1 		"/>
	</g>
	<g>
		<defs>
			<rect id="SVGID_5_" x="32.1" y="10.9" width="40.8" height="28.2"/>
		</defs>
		<clipPath id="SVGID_6_">
			<use xlink:href="#SVGID_5_"  style="overflow:visible;"/>
		</clipPath>
		<polyline class="st3" points="32.4,11 38.6,11 38.4,11.2 38.3,11.4 38.2,11.6 38.2,11.8 38.2,12 38.1,12.2 38.1,12.5 37.3,17.6 
			36.6,22.7 36.6,22.8 36.6,22.9 36.6,23 36.6,23.1 36.5,23.2 36.4,23.3 36.1,23.9 35.8,24.6 35.6,25.3 35.4,26 35.3,26.7 
			35.2,27.4 35.3,28.1 35.3,28.6 35.4,29 35.5,29.4 35.5,29.5 35.6,29.6 35.6,29.7 35.5,29.8 34.3,38.4 34.2,38.6 34.3,38.8 
			34.3,38.9 34.4,39 34.6,39 34.8,39 49.1,39 49.3,39 49.5,39 49.7,38.9 49.8,38.7 49.9,38.6 49.9,38.3 51.2,29.5 51.2,29.5 
			51.2,29.5 51.3,29.4 51.5,29.7 51.6,30 51.8,30.3 51.9,30.6 51.3,34.5 50.7,38.3 50.7,38.5 50.7,38.7 50.8,38.8 50.9,38.9 
			51.1,38.9 51.3,38.9 65.4,38.9 65.6,38.9 65.8,38.9 65.9,38.8 66.1,38.7 66.1,38.6 66.2,38.4 66.2,38.2 66.5,36.5 66.7,34.7 
			67.2,31.3 67.8,27.8 67.9,26.6 68.1,25.5 68.3,24.3 68.3,24.1 68.4,24 68.4,23.9 70.2,20.5 70.3,20.4 70.3,20.2 70.3,20 
			70.3,19.9 70.2,19.8 70,19.7 69.9,19.7 69.6,19.7 69.4,19.7 69.2,19.7 69.1,19.6 69,19.6 69.1,19 69.1,18.4 69.2,17.8 69.7,14.7 
			70.2,11.6 70.2,11.4 70.1,11.3 70.1,11.2 70,11.1 70,11 72.5,11 72.6,11 72.6,11 72.7,11 72.7,11 72.7,11.1 72.7,11.1 72.7,11.2 
			72.7,11.3 72.7,38.8 72.7,39 72.6,39 72.5,39.1 72.4,39.1 32.4,39.1 32.2,39.1 32.1,39 32.1,39 32.1,38.8 32.1,11.3 32.1,11.1 
			32.1,11 32.2,11 32.4,11 		"/>
	</g>
	<g>
		<defs>
			<rect id="SVGID_7_" x="32.1" y="10.9" width="40.8" height="28.2"/>
		</defs>
		<clipPath id="SVGID_8_">
			<use xlink:href="#SVGID_7_"  style="overflow:visible;"/>
		</clipPath>
		<polygon class="st4" points="32.4,11 38.6,11 38.4,11.2 38.3,11.4 38.2,11.6 38.2,11.8 38.2,12 38.1,12.2 38.1,12.5 37.3,17.6 
			36.6,22.7 36.6,22.8 36.6,22.9 36.6,23 36.6,23.1 36.5,23.2 36.4,23.3 36.1,23.9 35.8,24.6 35.6,25.3 35.4,26 35.3,26.7 
			35.2,27.4 35.3,28.1 35.3,28.6 35.4,29 35.5,29.4 35.5,29.5 35.6,29.6 35.6,29.7 35.5,29.8 34.3,38.4 34.2,38.6 34.3,38.8 
			34.3,38.9 34.4,39 34.6,39 34.8,39 49.1,39 49.3,39 49.5,39 49.7,38.9 49.8,38.7 49.9,38.6 49.9,38.3 51.2,29.5 51.2,29.5 
			51.2,29.5 51.3,29.4 51.5,29.7 51.6,30 51.8,30.3 51.9,30.6 51.3,34.5 50.7,38.3 50.7,38.5 50.7,38.7 50.8,38.8 50.9,38.9 
			51.1,38.9 51.3,38.9 65.4,38.9 65.6,38.9 65.8,38.9 65.9,38.8 66.1,38.7 66.1,38.6 66.2,38.4 66.2,38.2 66.5,36.5 66.7,34.7 
			67.2,31.3 67.8,27.8 67.9,26.6 68.1,25.5 68.3,24.3 68.3,24.1 68.4,24 68.4,23.9 70.2,20.5 70.3,20.4 70.3,20.2 70.3,20 
			70.3,19.9 70.2,19.8 70,19.7 69.9,19.7 69.6,19.7 69.4,19.7 69.2,19.7 69.1,19.6 69,19.6 69.1,19 69.1,18.4 69.2,17.8 69.7,14.7 
			70.2,11.6 70.2,11.4 70.1,11.3 70.1,11.2 70,11.1 70,11 72.5,11 72.6,11 72.6,11 72.7,11 72.7,11 72.7,11.1 72.7,11.1 72.7,11.2 
			72.7,11.3 72.7,38.8 72.7,39 72.6,39 72.5,39.1 72.4,39.1 32.4,39.1 32.2,39.1 32.1,39 32.1,39 32.1,38.8 32.1,11.3 32.1,11.1 
			32.1,11 32.2,11 		"/>
	</g>
	<g>
		<defs>
			<rect id="SVGID_9_" x="32.1" y="10.9" width="40.8" height="28.2"/>
		</defs>
		<clipPath id="SVGID_10_">
			<use xlink:href="#SVGID_9_"  style="overflow:visible;"/>
		</clipPath>
		<polyline class="st5" points="55,11 70,11 70.2,11.1 70.2,11.3 70.3,11.5 70.3,11.7 69.7,15.5 69.1,19.4 69.1,19.6 69,19.7 
			68.9,19.7 67.5,19.7 67.3,19.7 67.2,19.8 67,19.9 66.9,20 66.8,20.2 64.3,25.3 63.8,26.3 63.3,27.4 63.3,27.5 63.2,27.6 
			63.2,27.6 63.2,27.6 63.2,27.6 63.1,27.7 63.1,27.7 63.1,27.6 63,27.6 63,27.6 63,27.6 63,27.5 63,27.5 62.9,27.2 62.1,20.6 
			62.1,20.3 62,20.1 61.9,19.9 61.8,19.8 61.7,19.7 61.5,19.7 61.2,19.7 60.2,19.7 59.3,19.7 58.8,19.7 58.3,19.7 57.8,19.7 
			57,19.7 56.2,19.7 55.4,19.7 55.1,19.7 54.9,19.8 54.6,19.9 54.5,20.1 53.9,20.7 53.4,21.3 53.4,21.4 53.4,21.4 53.3,21.5 
			53.2,21.5 53.1,21.5 53.1,21.4 53.1,21.2 53.1,21.1 53.7,17 54.3,12.9 54.4,12.2 54.5,11.6 54.6,11.4 54.6,11.3 54.7,11.2 
			54.8,11 55,11 		"/>
	</g>
	<g>
		<defs>
			<rect id="SVGID_11_" x="32.1" y="10.9" width="40.8" height="28.2"/>
		</defs>
		<clipPath id="SVGID_12_">
			<use xlink:href="#SVGID_11_"  style="overflow:visible;"/>
		</clipPath>
		<polygon class="st6" points="55,11 70,11 70.2,11.1 70.2,11.3 70.3,11.5 70.3,11.7 69.7,15.5 69.1,19.4 69.1,19.6 69,19.7 
			68.9,19.7 67.5,19.7 67.3,19.7 67.2,19.8 67,19.9 66.9,20 66.8,20.2 64.3,25.3 63.8,26.3 63.3,27.4 63.3,27.5 63.2,27.6 
			63.2,27.6 63.2,27.6 63.2,27.6 63.1,27.7 63.1,27.7 63.1,27.6 63,27.6 63,27.6 63,27.6 63,27.5 63,27.5 62.9,27.2 62.1,20.6 
			62.1,20.3 62,20.1 61.9,19.9 61.8,19.8 61.7,19.7 61.5,19.7 61.2,19.7 60.2,19.7 59.3,19.7 58.8,19.7 58.3,19.7 57.8,19.7 
			57,19.7 56.2,19.7 55.4,19.7 55.1,19.7 54.9,19.8 54.6,19.9 54.5,20.1 54,20.7 53.4,21.3 53.4,21.4 53.4,21.4 53.3,21.5 
			53.2,21.5 53.1,21.5 53.1,21.4 53.1,21.2 53.1,21.1 53.7,17 54.3,12.9 54.4,12.2 54.5,11.6 54.6,11.4 54.6,11.3 54.7,11.2 
			54.8,11 		"/>
	</g>
	<g>
		<defs>
			<rect id="SVGID_13_" x="32.1" y="10.9" width="40.8" height="28.2"/>
		</defs>
		<clipPath id="SVGID_14_">
			<use xlink:href="#SVGID_13_"  style="overflow:visible;"/>
		</clipPath>
		<polyline class="st7" points="53.7,11 55,11 54.8,11.2 54.7,11.3 54.6,11.5 54.6,11.8 53.6,18.5 53.2,21.5 53.2,21.5 53.2,21.5 
			53.2,21.6 53,21.8 52.9,22 52.7,22.2 52.5,22.4 52.3,22.5 52.3,22.5 52.3,22.4 52.3,22.3 53.6,13.8 53.7,12.7 53.9,11.6 
			53.9,11.4 53.9,11.3 53.8,11.2 53.8,11.1 53.7,11 		"/>
	</g>
	<g>
		<defs>
			<rect id="SVGID_15_" x="32.1" y="10.9" width="40.8" height="28.2"/>
		</defs>
		<clipPath id="SVGID_16_">
			<use xlink:href="#SVGID_15_"  style="overflow:visible;"/>
		</clipPath>
		<polygon class="st8" points="53.7,11 55,11 54.8,11.2 54.7,11.3 54.6,11.5 54.6,11.8 53.6,18.5 53.2,21.5 53.2,21.5 53.2,21.5 
			53.2,21.6 53,21.8 52.9,22 52.7,22.2 52.5,22.4 52.3,22.5 52.3,22.5 52.3,22.4 52.3,22.3 53.6,13.8 53.7,12.7 53.9,11.6 
			53.9,11.4 53.9,11.3 53.8,11.2 53.8,11.1 		"/>
	</g>
	<g>
		<defs>
			<rect id="SVGID_17_" x="32.1" y="10.9" width="40.8" height="28.2"/>
		</defs>
		<clipPath id="SVGID_18_">
			<use xlink:href="#SVGID_17_"  style="overflow:visible;"/>
		</clipPath>
		<polyline class="st9" points="69.1,19.6 69.9,19.6 70.1,19.6 70.2,19.7 70.4,19.8 70.4,19.9 70.4,20.1 70.4,20.2 70.3,20.4 
			68.4,24.2 68.3,24.6 68.1,24.9 67.9,25.3 67.7,25.6 67.6,25.9 65.9,29 65.4,30 64.9,31 64.4,32 64.3,32.2 64.2,32.3 64,32.4 
			63.8,32.5 63.6,32.5 62.3,32.5 61,32.5 60.8,32.5 60.6,32.4 60.4,32.4 60.4,32.2 60.3,32.1 60.2,31.8 59.8,29.3 59.4,26.8 
			58.4,21.1 58.4,21 58.4,21 58.4,20.9 58.4,20.9 58.4,20.9 58.4,20.8 58.4,20.8 58.3,20.8 58.3,20.8 58.3,20.8 58.2,20.8 
			58.2,20.8 58.2,20.8 58.2,20.9 58.2,20.9 57.4,21.8 56.6,22.6 54.9,24.5 54.4,25 53.9,25.6 53.8,25.7 53.7,25.9 53.8,26 
			53.8,26.1 55.1,28.5 56.4,30.8 56.8,31.6 56.9,31.8 56.9,32 56.9,32.2 56.8,32.3 56.7,32.4 56.5,32.4 56.3,32.5 53.2,32.5 
			53,32.5 52.8,32.4 52.7,32.3 52.6,32.2 52.5,32.1 52.3,31.7 52.1,31.3 52,31 51.8,30.6 51.6,30.2 51.5,29.8 51.3,29.4 50.5,27.8 
			50.4,27.8 50.2,29 49.6,31.9 49.6,32.1 49.5,32.2 49.4,32.3 49.3,32.4 49.1,32.4 46.6,32.4 46.4,32.4 46.3,32.3 46.2,32.2 
			46.1,32.1 46.1,32 46.1,31.8 47.1,25.9 48.1,20.3 48.2,20 48.3,19.9 48.3,19.7 48.5,19.7 48.7,19.6 48.9,19.6 51.1,19.6 
			51.3,19.6 51.5,19.7 51.6,19.8 51.7,19.9 51.7,20.1 51.7,20.3 51.1,23.8 51.1,23.8 51.1,23.9 51.1,24 51.5,23.5 51.9,23.1 
			52.2,22.6 52.3,22.6 52.3,22.5 52.3,22.5 52.3,22.5 52.6,22.2 52.9,21.8 53.2,21.5 53.6,21.1 53.9,20.6 54.3,20.1 54.5,19.9 
			54.7,19.8 54.9,19.7 55.1,19.6 55.4,19.6 56.6,19.6 57.7,19.6 57.9,19.6 58.1,19.6 58.3,19.7 58.4,19.7 58.5,19.7 58.5,19.7 
			59.1,19.6 59.6,19.6 60.1,19.6 60.6,19.6 61.1,19.6 61.6,19.6 61.8,19.7 62,19.7 62.1,19.8 62.1,20 62.2,20.2 63,27.2 63,27.4 
			63.1,27.6 63.2,27.5 63.3,27.3 63.4,27.1 65,23.6 66.7,20.1 66.8,19.9 66.9,19.8 67.1,19.7 67.3,19.6 67.5,19.6 68.3,19.6 
			69.1,19.6 		"/>
	</g>
	<g>
		<defs>
			<rect id="SVGID_19_" x="32.1" y="10.9" width="40.8" height="28.2"/>
		</defs>
		<clipPath id="SVGID_20_">
			<use xlink:href="#SVGID_19_"  style="overflow:visible;"/>
		</clipPath>
		<polygon class="st10" points="69.1,19.6 69.9,19.6 70.1,19.6 70.2,19.7 70.4,19.8 70.4,19.9 70.4,20.1 70.4,20.2 70.3,20.4 
			68.4,24.2 68.3,24.6 68.1,24.9 67.9,25.3 67.7,25.6 67.6,25.9 65.9,29 65.4,30 64.9,31 64.4,32 64.3,32.2 64.2,32.3 64,32.4 
			63.8,32.5 63.6,32.5 62.3,32.5 61,32.5 60.8,32.5 60.6,32.4 60.4,32.4 60.4,32.2 60.3,32.1 60.2,31.8 59.8,29.3 59.4,26.8 
			58.4,21.1 58.4,21 58.4,21 58.4,20.9 58.4,20.9 58.4,20.9 58.4,20.8 58.4,20.8 58.3,20.8 58.3,20.8 58.3,20.8 58.2,20.8 
			58.2,20.8 58.2,20.8 58.2,20.9 58.2,20.9 57.4,21.8 56.6,22.6 54.9,24.5 54.4,25 53.9,25.6 53.8,25.7 53.7,25.9 53.8,26 
			53.8,26.1 55.1,28.5 56.4,30.8 56.8,31.6 56.9,31.8 56.9,32 56.9,32.2 56.8,32.3 56.7,32.4 56.5,32.4 56.3,32.5 53.2,32.5 
			53,32.5 52.8,32.4 52.7,32.3 52.6,32.2 52.5,32.1 52.3,31.7 52.1,31.3 52,31 51.8,30.6 51.6,30.2 51.5,29.8 51.3,29.4 50.5,27.8 
			50.4,27.8 50.2,29 49.6,31.9 49.6,32.1 49.5,32.2 49.4,32.3 49.3,32.4 49.1,32.4 46.6,32.4 46.4,32.4 46.3,32.3 46.2,32.2 
			46.1,32.1 46.1,32 46.1,31.8 47.1,25.9 48.1,20.3 48.2,20 48.3,19.9 48.3,19.7 48.5,19.7 48.7,19.6 48.9,19.6 51.1,19.6 
			51.3,19.6 51.5,19.7 51.6,19.8 51.7,19.9 51.7,20.1 51.7,20.3 51.1,23.8 51.1,23.8 51.1,23.9 51.1,24 51.5,23.5 51.9,23.1 
			52.2,22.6 52.3,22.6 52.3,22.5 52.3,22.5 52.3,22.5 52.6,22.2 52.9,21.8 53.2,21.5 53.6,21.1 54,20.6 54.3,20.1 54.5,19.9 
			54.7,19.8 54.9,19.7 55.1,19.6 55.4,19.6 56.6,19.6 57.7,19.6 57.9,19.6 58.1,19.6 58.3,19.7 58.4,19.7 58.5,19.7 58.5,19.7 
			59.1,19.6 59.6,19.6 60.1,19.6 60.6,19.6 61.1,19.6 61.6,19.6 61.8,19.7 62,19.7 62.1,19.8 62.1,20 62.2,20.2 63,27.2 63,27.4 
			63.1,27.6 63.2,27.5 63.3,27.3 63.4,27.1 65,23.6 66.7,20.1 66.8,19.9 66.9,19.8 67.1,19.7 67.3,19.6 67.5,19.6 68.3,19.6 		"/>
	</g>
	<g>
		<defs>
			<rect id="SVGID_21_" x="32.1" y="10.9" width="40.8" height="28.2"/>
		</defs>
		<clipPath id="SVGID_22_">
			<use xlink:href="#SVGID_21_"  style="overflow:visible;"/>
		</clipPath>
		<polyline class="st11" points="43.1,19.4 43.9,19.5 44.6,19.5 45.3,19.6 46,19.8 46.2,19.9 46.3,20 46.4,20.1 46.5,20.2 
			46.5,20.3 46.5,20.5 46.1,22.8 46,23.1 45.9,23.2 45.8,23.3 45.6,23.3 45.5,23.3 45.3,23.2 44.7,23 44.2,22.8 43.7,22.7 
			43.2,22.6 42.6,22.6 42.1,22.7 41.6,22.9 41.1,23.1 40.6,23.4 40.2,23.7 39.9,24.1 39.6,24.4 39.4,24.8 39.2,25.2 39.1,25.7 
			39,26.1 39,26.6 38.9,27 39,27.4 39,27.8 39.1,28.1 39.3,28.4 39.5,28.7 39.8,28.9 40,29.1 40.3,29.2 40.6,29.3 41,29.4 
			41.5,29.4 42.1,29.4 42.6,29.3 43.2,29.2 43.7,29 44.2,28.8 44.3,28.7 44.5,28.7 44.6,28.7 44.8,28.8 44.9,28.9 44.9,29 
			44.9,29.2 44.9,29.3 44.5,31.5 44.5,31.7 44.4,31.8 44.3,31.9 44.1,32 43.3,32.3 42.5,32.5 41.6,32.6 40.9,32.6 40.1,32.6 
			39.4,32.5 38.7,32.4 38.2,32.2 37.7,32 37.3,31.8 36.8,31.5 36.5,31.2 36.1,30.8 35.8,30.4 35.6,29.9 35.6,29.8 35.5,29.8 
			35.4,29.2 35.2,28.6 35.2,28 35.2,27.3 35.2,26.6 35.3,25.9 35.5,25.2 35.7,24.5 36,23.9 36.4,23.2 36.6,22.9 36.9,22.4 37.3,22 
			37.7,21.6 38.1,21.2 38.6,20.9 39.2,20.5 39.8,20.2 40.4,19.9 41,19.7 41.7,19.6 42.4,19.5 43.1,19.4 		"/>
	</g>
	<g>
		<defs>
			<rect id="SVGID_23_" x="32.1" y="10.9" width="40.8" height="28.2"/>
		</defs>
		<clipPath id="SVGID_24_">
			<use xlink:href="#SVGID_23_"  style="overflow:visible;"/>
		</clipPath>
		<polygon class="st12" points="43.1,19.4 43.9,19.5 44.6,19.5 45.3,19.6 46,19.8 46.2,19.9 46.3,20 46.4,20.1 46.5,20.2 46.5,20.3 
			46.5,20.5 46.1,22.8 46,23.1 45.9,23.2 45.8,23.3 45.6,23.3 45.5,23.3 45.3,23.2 44.7,23 44.2,22.8 43.7,22.7 43.2,22.6 
			42.6,22.6 42.1,22.7 41.6,22.9 41.1,23.1 40.6,23.4 40.2,23.7 39.9,24.1 39.6,24.4 39.4,24.8 39.2,25.2 39.1,25.7 39,26.1 
			39,26.6 38.9,27 39,27.4 39,27.8 39.1,28.1 39.3,28.4 39.5,28.7 39.8,28.9 40,29.1 40.3,29.2 40.6,29.3 41,29.4 41.5,29.4 
			42.1,29.4 42.6,29.3 43.2,29.2 43.7,29 44.2,28.8 44.3,28.7 44.5,28.7 44.6,28.7 44.8,28.8 44.9,28.9 44.9,29 44.9,29.2 
			44.9,29.3 44.5,31.5 44.5,31.7 44.4,31.8 44.3,31.9 44.1,32 43.3,32.3 42.5,32.5 41.6,32.6 40.9,32.6 40.1,32.6 39.4,32.5 
			38.7,32.4 38.2,32.2 37.7,32 37.3,31.8 36.8,31.5 36.5,31.2 36.1,30.8 35.8,30.4 35.6,29.9 35.6,29.8 35.5,29.8 35.4,29.2 
			35.2,28.6 35.2,28 35.2,27.3 35.2,26.6 35.3,25.9 35.5,25.2 35.7,24.5 36,23.9 36.4,23.2 36.6,22.9 36.9,22.4 37.3,22 37.7,21.6 
			38.1,21.2 38.6,20.9 39.2,20.5 39.8,20.2 40.4,19.9 41,19.7 41.7,19.6 42.4,19.5 		"/>
	</g>
	<g>
		<defs>
			<rect id="SVGID_25_" x="32.1" y="10.9" width="40.8" height="28.2"/>
		</defs>
		<clipPath id="SVGID_26_">
			<use xlink:href="#SVGID_25_"  style="overflow:visible;"/>
		</clipPath>
		<polyline class="st13" points="52.3,22.3 52.3,22.3 52.3,22.4 52.3,22.5 52.3,22.5 52.3,22.5 52.3,22.5 52.3,22.6 52.3,22.6 
			52.2,22.6 52.2,22.4 52.3,22.3 		"/>
	</g>
	<g>
		<defs>
			<rect id="SVGID_27_" x="32.1" y="10.9" width="40.8" height="28.2"/>
		</defs>
		<clipPath id="SVGID_28_">
			<use xlink:href="#SVGID_27_"  style="overflow:visible;"/>
		</clipPath>
		<polygon class="st14" points="52.3,22.3 52.3,22.3 52.3,22.4 52.3,22.5 52.3,22.5 52.3,22.5 52.3,22.5 52.3,22.6 52.3,22.6 
			52.2,22.6 52.2,22.4 		"/>
	</g>
	<g>
		<defs>
			<rect id="SVGID_29_" x="32.1" y="10.9" width="40.8" height="28.2"/>
		</defs>
		<clipPath id="SVGID_30_">
			<use xlink:href="#SVGID_29_"  style="overflow:visible;"/>
		</clipPath>
		<polyline class="st15" points="58.4,20.5 58.6,21.2 58.7,21.8 59.7,28.4 60.3,31.9 60.4,32.1 60.4,32.2 60.6,32.3 60.7,32.4 
			60.9,32.4 62.3,32.4 63.6,32.4 63.8,32.4 64,32.3 64.1,32.2 64.2,32.1 64.3,32 66.3,28.2 68.3,24.4 68.3,24.3 68.4,24.2 68,26.8 
			67.3,31.6 66.3,38.4 66.2,38.6 66.1,38.8 66,38.9 65.8,39 65.6,39 51.2,39 50.9,39 50.8,39 50.7,38.9 50.6,38.8 50.6,38.6 
			50.6,38.4 51.7,31.2 51.7,30.9 51.8,30.6 52.1,31 52.3,31.5 52.6,32 52.7,32.2 52.8,32.3 53,32.4 53.2,32.4 56.3,32.4 56.5,32.4 
			56.6,32.3 56.8,32.2 56.8,32.1 56.8,32 56.8,31.8 56.7,31.6 53.7,26 53.6,25.9 53.6,25.9 53.6,25.8 53.7,25.7 58.3,20.6 
			58.3,20.6 58.3,20.6 58.4,20.5 58.4,20.5 58.4,20.5 		"/>
	</g>
	<g>
		<defs>
			<rect id="SVGID_31_" x="32.1" y="10.9" width="40.8" height="28.2"/>
		</defs>
		<clipPath id="SVGID_32_">
			<use xlink:href="#SVGID_31_"  style="overflow:visible;"/>
		</clipPath>
		<polygon class="st16" points="58.4,20.5 58.6,21.2 58.7,21.8 59.7,28.4 60.3,31.9 60.4,32.1 60.4,32.2 60.6,32.3 60.7,32.4 
			60.9,32.4 62.3,32.4 63.6,32.4 63.8,32.4 64,32.3 64.1,32.2 64.2,32.1 64.3,32 66.3,28.2 68.3,24.4 68.3,24.3 68.4,24.2 68,26.8 
			67.3,31.6 66.3,38.4 66.2,38.6 66.1,38.8 66,38.9 65.8,39 65.6,39 51.2,39 50.9,39 50.8,39 50.7,38.9 50.6,38.8 50.6,38.6 
			50.6,38.4 51.7,31.2 51.7,30.9 51.8,30.6 52.1,31 52.3,31.5 52.6,32 52.7,32.2 52.8,32.3 53,32.4 53.2,32.4 56.3,32.4 56.5,32.4 
			56.6,32.3 56.8,32.2 56.8,32.1 56.8,32 56.8,31.8 56.7,31.6 53.7,26 53.6,25.9 53.6,25.9 53.6,25.8 53.7,25.7 58.3,20.6 
			58.3,20.6 58.3,20.6 58.4,20.5 58.4,20.5 		"/>
	</g>
	<g>
		<defs>
			<rect id="SVGID_33_" x="32.1" y="10.9" width="40.8" height="28.2"/>
		</defs>
		<clipPath id="SVGID_34_">
			<use xlink:href="#SVGID_33_"  style="overflow:visible;"/>
		</clipPath>
		<polyline class="st17" points="48.8,20 51.1,20.1 51.2,20.1 51.2,20.1 51.3,20.1 51.3,20.2 51.3,20.3 50.8,22.7 50.4,25.2 
			50.4,25.3 50.4,25.4 50.4,25.4 50.4,25.4 50.4,25.4 50.4,25.5 50.4,25.5 50.4,25.5 50.5,25.5 51.1,24.7 51.7,23.9 52.4,23.1 
			53.1,22.3 53.8,21.5 54.3,20.9 54.8,20.2 54.9,20.1 55,20.1 55.2,20 58.1,20.1 58.1,20.1 58.1,20.2 58.1,20.2 58,20.3 55.6,22.9 
			53.2,25.6 53.1,25.7 53.1,25.8 53.1,25.9 53.2,26 56.3,31.7 56.3,31.8 56.4,31.9 56.4,31.9 56.3,32 56.2,32 53.2,32 53,31.9 
			53,31.9 52.9,31.7 51.7,29.3 50.5,26.9 50.4,26.7 50.3,26.4 50.2,26.2 50,27.6 49.7,29 49.5,30.4 49.4,31.1 49.2,31.8 49.2,31.9 
			49.2,31.9 49.1,32 49,32 46.6,32 46.6,32 46.5,31.9 46.5,31.8 47,28.9 47.5,26 48.1,23.2 48.6,20.3 48.6,20.2 48.6,20.1 
			48.7,20.1 48.8,20 		"/>
	</g>
	<g>
		<defs>
			<rect id="SVGID_35_" x="32.1" y="10.9" width="40.8" height="28.2"/>
		</defs>
		<clipPath id="SVGID_36_">
			<use xlink:href="#SVGID_35_"  style="overflow:visible;"/>
		</clipPath>
		<polygon class="st18" points="48.8,20 51.1,20.1 51.2,20.1 51.2,20.1 51.3,20.1 51.3,20.2 51.3,20.3 50.8,22.7 50.4,25.2 
			50.4,25.3 50.4,25.4 50.4,25.4 50.4,25.4 50.4,25.4 50.4,25.5 50.4,25.5 50.4,25.5 50.5,25.5 51.1,24.7 51.7,23.9 52.4,23.1 
			53.1,22.3 53.8,21.5 54.3,20.9 54.8,20.2 54.9,20.1 55,20.1 55.2,20 58.1,20.1 58.1,20.1 58.1,20.2 58.1,20.2 58,20.3 55.6,22.9 
			53.2,25.6 53.1,25.7 53.1,25.8 53.1,25.9 53.2,26 56.3,31.7 56.3,31.8 56.4,31.9 56.4,31.9 56.3,32 56.2,32 53.2,32 53,31.9 
			53,31.9 52.9,31.7 51.7,29.3 50.5,26.9 50.4,26.7 50.3,26.4 50.2,26.2 50,27.6 49.7,29 49.5,30.4 49.4,31.1 49.2,31.8 49.2,31.9 
			49.2,31.9 49.1,32 49,32 46.6,32 46.6,32 46.5,31.9 46.5,31.8 47,28.9 47.5,26 48.1,23.2 48.6,20.3 48.6,20.2 48.6,20.1 
			48.7,20.1 		"/>
	</g>
	<g>
		<defs>
			<rect id="SVGID_37_" x="32.1" y="10.9" width="40.8" height="28.2"/>
		</defs>
		<clipPath id="SVGID_38_">
			<use xlink:href="#SVGID_37_"  style="overflow:visible;"/>
		</clipPath>
		<polyline class="st19" points="67.5,20 68.7,20.1 70,20.1 69.8,20.6 69.5,21.1 64,31.8 63.9,31.9 63.8,31.9 63.7,32 62.3,32 
			61,32 60.9,32 60.8,31.9 60.7,31.8 60.7,31.7 60,27.5 59.2,22.5 58.8,20.2 58.8,20.2 58.8,20.1 58.8,20.1 58.8,20.1 58.9,20.1 
			58.9,20.1 61.5,20 61.6,20.1 61.7,20.1 61.7,20.1 61.7,20.2 61.7,20.3 62.1,23.1 62.6,27.3 62.7,27.8 62.7,28.3 62.8,28.9 
			62.8,29.4 63.1,28.6 63.5,27.8 63.9,27 64.3,26.1 65.7,23.2 67.1,20.3 67.2,20.2 67.2,20.1 67.3,20.1 67.5,20 		"/>
	</g>
	<g>
		<defs>
			<rect id="SVGID_39_" x="32.1" y="10.9" width="40.8" height="28.2"/>
		</defs>
		<clipPath id="SVGID_40_">
			<use xlink:href="#SVGID_39_"  style="overflow:visible;"/>
		</clipPath>
		<polygon class="st20" points="67.5,20 68.7,20.1 70,20.1 69.8,20.6 69.5,21.1 64,31.8 63.9,31.9 63.8,31.9 63.7,32 62.3,32 61,32 
			60.9,32 60.8,31.9 60.7,31.8 60.7,31.7 60,27.5 59.2,22.5 58.8,20.2 58.8,20.2 58.8,20.1 58.8,20.1 58.8,20.1 58.9,20.1 
			58.9,20.1 61.5,20 61.6,20.1 61.7,20.1 61.7,20.1 61.7,20.2 61.7,20.3 62.1,23.1 62.6,27.3 62.7,27.8 62.7,28.3 62.8,28.9 
			62.8,29.4 63.1,28.6 63.5,27.8 63.9,27 64.3,26.1 65.7,23.2 67.1,20.3 67.2,20.2 67.2,20.1 67.3,20.1 		"/>
	</g>
	<g>
		<defs>
			<rect id="SVGID_41_" x="32.1" y="10.9" width="40.8" height="28.2"/>
		</defs>
		<clipPath id="SVGID_42_">
			<use xlink:href="#SVGID_41_"  style="overflow:visible;"/>
		</clipPath>
		<polyline class="st21" points="50.4,25.4 50.5,25.5 50.4,25.5 50.4,25.6 50.4,25.6 50.4,25.6 50.4,25.6 50.4,25.6 50.3,25.5 
			50.4,25.5 50.4,25.4 		"/>
	</g>
	<g>
		<defs>
			<rect id="SVGID_43_" x="32.1" y="10.9" width="40.8" height="28.2"/>
		</defs>
		<clipPath id="SVGID_44_">
			<use xlink:href="#SVGID_43_"  style="overflow:visible;"/>
		</clipPath>
		<polygon class="st22" points="50.4,25.4 50.5,25.5 50.4,25.5 50.4,25.6 50.4,25.6 50.4,25.6 50.4,25.6 50.4,25.6 50.3,25.5 
			50.4,25.5 		"/>
	</g>
	<g>
		<defs>
			<rect id="SVGID_45_" x="32.1" y="10.9" width="40.8" height="28.2"/>
		</defs>
		<clipPath id="SVGID_46_">
			<use xlink:href="#SVGID_45_"  style="overflow:visible;"/>
		</clipPath>
		<polyline class="st23" points="43.1,19.9 43.8,19.9 44.5,19.9 45.2,20 45.8,20.2 46,20.3 46,20.3 46.1,20.4 46.1,20.5 45.8,21.7 
			45.6,22.9 45.1,22.6 44.5,22.4 43.9,22.3 43.4,22.2 42.8,22.2 42.2,22.3 41.7,22.4 41.1,22.6 40.7,22.8 40.3,23.1 39.9,23.4 
			39.6,23.8 39.3,24.2 39.1,24.6 38.9,25.1 38.7,25.6 38.6,26.1 38.5,26.6 38.5,27 38.5,27.5 38.6,27.9 38.8,28.3 39,28.7 39.2,29 
			39.5,29.2 39.8,29.5 40.1,29.6 40.5,29.8 40.9,29.8 41.5,29.8 42.1,29.8 42.7,29.7 43.2,29.6 43.8,29.4 44.3,29.2 44.4,29.1 
			44.5,29.1 44.4,29.9 44.3,30.7 44.2,30.9 44.2,31.1 44.2,31.3 44.1,31.4 44,31.5 43.9,31.6 43.8,31.7 43.7,31.7 43,31.9 
			42.3,32.1 41.6,32.2 40.9,32.2 40.2,32.2 39.5,32.1 38.9,32 38.2,31.8 37.7,31.6 37.3,31.3 36.9,31 36.6,30.7 36.3,30.3 
			36.1,29.9 35.9,29.5 35.7,29 35.6,28.6 35.6,28.1 35.6,27.4 35.6,26.7 35.7,26.1 35.9,25.4 36.1,24.8 36.3,24.2 36.6,23.6 37,23 
			37.4,22.5 37.9,22 38.4,21.6 38.8,21.2 39.4,20.9 39.9,20.6 40.5,20.3 41.1,20.1 41.8,20 42.4,19.9 43.1,19.9 		"/>
	</g>
	<g>
		<defs>
			<rect id="SVGID_47_" x="32.1" y="10.9" width="40.8" height="28.2"/>
		</defs>
		<clipPath id="SVGID_48_">
			<use xlink:href="#SVGID_47_"  style="overflow:visible;"/>
		</clipPath>
		<polygon class="st24" points="43.1,19.9 43.8,19.9 44.5,19.9 45.2,20 45.8,20.2 46,20.3 46,20.3 46.1,20.4 46.1,20.5 45.8,21.7 
			45.6,22.9 45.1,22.6 44.5,22.4 43.9,22.3 43.4,22.2 42.8,22.2 42.2,22.3 41.7,22.4 41.1,22.6 40.7,22.8 40.3,23.1 39.9,23.4 
			39.6,23.8 39.3,24.2 39.1,24.6 38.9,25.1 38.7,25.6 38.6,26.1 38.5,26.6 38.5,27 38.5,27.5 38.6,27.9 38.8,28.3 39,28.7 39.2,29 
			39.5,29.2 39.8,29.5 40.1,29.6 40.5,29.8 40.9,29.8 41.5,29.8 42.1,29.8 42.7,29.7 43.2,29.6 43.8,29.4 44.3,29.2 44.4,29.1 
			44.5,29.1 44.4,29.9 44.3,30.7 44.2,30.9 44.2,31.1 44.2,31.3 44.1,31.4 44,31.5 43.9,31.6 43.8,31.7 43.7,31.7 43,31.9 
			42.3,32.1 41.6,32.2 40.9,32.2 40.2,32.2 39.5,32.1 38.9,32 38.2,31.8 37.7,31.6 37.3,31.3 36.9,31 36.6,30.7 36.3,30.3 
			36.1,29.9 35.9,29.5 35.7,29 35.6,28.6 35.6,28.1 35.6,27.4 35.6,26.7 35.7,26.1 35.9,25.4 36.1,24.8 36.3,24.2 36.6,23.6 37,23 
			37.4,22.5 37.9,22 38.4,21.6 38.8,21.2 39.4,20.9 39.9,20.6 40.5,20.3 41.1,20.1 41.8,20 42.4,19.9 		"/>
	</g>
</g>
</svg>
