<?xml version="1.0" encoding="iso-8859-1"?>
<!-- Generator: Adobe Illustrator 19.1.0, SVG Export Plug-In . SVG Version: 6.00 Build 0)  -->
<svg version="1.1" id="Layer_1" xmlns="http://www.w3.org/2000/svg" xmlns:xlink="http://www.w3.org/1999/xlink" x="0px" y="0px"
	 viewBox="0 0 623 68" style="enable-background:new 0 0 623 68;" xml:space="preserve">
<path style="fill:#ED1C24;" d="M583.976,43.997l2.184-36.386h-15.248l-2.378,39.605l-0.944,15.848h15.248L583.976,43.997
	L583.976,43.997z M355.87,47.217c-0.153-2.036-0.306-3.979-0.185-6.022c0.629-10.459,6.147-20.836,20.913-20.836
	c5.779,0,10.083,0.49,14.112,1.553l0.784,12.338c-3.463-1.143-6.93-2.206-10.38-2.206c-6.341,0-9.853,3.677-10.211,9.642
	c-0.11,1.851,0.148,3.813,0.87,5.532c1.208,2.875,4.189,4.192,8.257,4.192c3.372,0,6.806-1.062,10.246-2.207l-2.432,12.42
	c-3.912,0.981-7.874,1.472-11.886,1.472C364.81,63.094,357.298,57.868,355.87,47.217L355.87,47.217z M337.245,16.273h15.248
	l0.579-9.642h-15.248L337.245,16.273L337.245,16.273z M352.24,20.452h-15.248l-2.549,42.642h15.247L352.24,20.452L352.24,20.452z
	 M306.936,31.156h-5.939l0.643-10.704h5.939l0.388-6.467l15.445-3.268l-0.585,9.735h9.069l-0.643,10.704h-9.068l-0.905,16.061
	c0.094,2.672,1.138,4.192,4.183,4.192c1.927,0,3.717-0.409,5.768-1.145l-2.378,11.521c-3.424,0.899-6.899,1.308-10.431,1.308
	c-7.705,0-13.275-2.125-12.735-11.113L306.936,31.156L306.936,31.156z M181.571,43.997c-3.973-2.963-8.482-6.754-8.13-12.608
	c0.333-5.557,4.273-11.032,16.311-11.032c4.575,0,9.271,0.654,13.641,1.389l0.692,11.195c-2.82-1.143-5.827-1.879-9.117-1.879
	c-2.809,0-5.779,0-5.911,2.206c-0.184,3.062,7.45,5.332,11.315,10.729c1.895,2.646,2.845,4.7,2.639,8.146
	c-0.49,8.172-10.287,10.95-17.43,10.95c-4.815,0-9.586-0.736-14.183-1.717l-1.05-11.93c3.685,1.472,7.608,2.941,11.542,2.941
	c1.765,0,5.382-0.081,5.523-2.451C187.552,47.665,183.117,45.15,181.571,43.997L181.571,43.997z M120.819,20.452h14.447
	l-0.403,6.771l0.151,0.163c4.968-5.229,10.212-7.027,16.231-7.027c8.667,0,15.349,3.677,14.721,14.136l-1.709,28.6h-15.248
	l1.356-22.716c0.215-3.596-1.169-7.272-5.984-7.272c-3.604,0-8.1,2.206-9.52,10.891c-0.226,1.38-0.302,2.779-0.454,4.169
	l-0.887,14.928h-15.248L120.819,20.452L120.819,20.452z M49.283,47.217l-0.954,15.877h16.854l3.33-55.482H51.66l-1.483,24.701
	H28.749l1.482-24.701H13.378l-3.332,55.482H26.9l0.954-15.877H49.283L49.283,47.217z M415.232,63.092L415.232,63.092l28.511,0.001
	c11.926,0,20.993-2.661,21.724-14.805c0.464-7.736-4.132-12.812-10.869-13.559l0.011-0.17c6.968-1.745,10.212-6.818,10.607-13.39
	c0.599-9.982-7.848-13.558-12.586-13.558h-34.065L415.232,63.092L415.232,63.092z M433.018,40.385L433.018,40.385l7.598-0.002
	c4.33,0.002,8.901,0,8.558,5.742c-0.357,5.987-5.1,6.07-10.003,6.07h-6.863L433.018,40.385L433.018,40.385z M434.328,18.509h5.801
	c3.678,0,8.825,0,8.555,4.491c-0.412,6.905-6.023,6.486-10.6,6.489l-4.412-0.003L434.328,18.509L434.328,18.509z M484.568,34.546
	c1.296-1.782,4.081-3.39,6.725-3.39h5.477l-0.811,12.841l-0.529,8.801C487.705,52.798,479.487,41.535,484.568,34.546L484.568,34.546
	z M512.875,20.358H490.04c-2.485,0-5.173,0.129-7.69,0.672c-4.271,0.92-8.574,3.506-10.913,7.286
	c-1.374,2.221-2.024,4.78-2.358,7.369c-0.605,4.691,0.206,9.63,2.301,13.871c1.957,3.964,5.611,8.133,9.469,10.378
	c3.796,2.21,8.383,3.16,13.372,3.16h16.043L512.875,20.358L512.875,20.358z M585.063,39.233l12.766-18.782h17.014l-14.14,18.946
	c3.959,7.599,8.917,16.097,13.517,23.696h-16.773C593.593,55.435,589.331,46.673,585.063,39.233L585.063,39.233z M518.377,20.452
	h14.446l-0.403,6.771l0.15,0.163c4.969-5.229,10.213-7.027,16.231-7.027c8.668,0,15.349,3.677,14.721,14.136l-1.708,28.6h-15.249
	l1.356-22.716c0.216-3.596-1.169-7.272-5.983-7.272c-3.604,0-8.1,2.206-9.521,10.891c-0.225,1.38-0.302,2.779-0.453,4.169
	l-0.888,14.928h-15.248L518.377,20.452L518.377,20.452z M245.828,50.133L245.828,50.133c-4.481,1.305-9.288,2.69-14.012,2.689
	c-5.286-0.001-10.827-2.363-10.45-8.642h27.862l0.304-5.054c0.705-11.738-6.886-18.669-20.097-18.669
	c-14.811,0.002-22.4,9.05-23.133,21.278c-0.747,12.391,5.121,21.357,21.935,21.357c6.244,0.001,10.923-0.57,15.385-1.55
	L245.828,50.133L245.828,50.133z M221.812,36.764c0.613-3.587,3.071-7.174,7.396-7.174c3.842,0,6.023,2.364,5.733,7.173
	L221.812,36.764L221.812,36.764z M297.008,20.358h-22.835c-2.486,0-5.173,0.129-7.69,0.672c-4.271,0.92-8.575,3.506-10.914,7.286
	c-1.374,2.221-2.025,4.78-2.358,7.369c-0.605,4.691,0.206,9.63,2.3,13.871c1.957,3.964,5.611,8.133,9.469,10.378
	c3.796,2.21,8.383,3.16,13.372,3.16h16.043L297.008,20.358L297.008,20.358z M268.702,34.546c1.295-1.782,4.081-3.39,6.725-3.39
	h5.477l-0.811,12.841l-0.53,8.801C271.838,52.798,263.62,41.535,268.702,34.546L268.702,34.546z M86.889,34.546
	c1.295-1.782,4.08-3.39,6.725-3.39h5.477l-0.811,12.841l-0.53,8.801C90.025,52.798,81.807,41.535,86.889,34.546L86.889,34.546z
	 M115.195,20.358H92.36c-2.486,0-5.173,0.129-7.691,0.672c-4.271,0.92-8.575,3.506-10.914,7.286
	c-1.374,2.221-2.025,4.78-2.358,7.369c-0.604,4.691,0.206,9.63,2.3,13.871c1.958,3.964,5.612,8.133,9.469,10.378
	c3.796,2.21,8.383,3.16,13.372,3.16h16.043L115.195,20.358z"/>
</svg>
