<?xml version="1.0" encoding="utf-8"?>
<!-- Generator: Adobe Illustrator 20.1.0, SVG Export Plug-In . SVG Version: 6.00 Build 0)  -->
<svg version="1.1" id="Livello_1" xmlns="http://www.w3.org/2000/svg" xmlns:xlink="http://www.w3.org/1999/xlink" x="0px" y="0px"
	 viewBox="0 0 688.4 147.3" style="enable-background:new 0 0 688.4 147.3;" xml:space="preserve">
<style type="text/css">
	.st0{fill:#005596;}
</style>
<g>
	<g>
		<path class="st0" d="M156.2,35.5c1.7,0,3.1,0.6,4.3,1.8s1.7,2.6,1.7,4.3s-0.5,3.1-1.7,4.3s-2.6,1.8-4.3,1.8s-3.1-0.6-4.3-1.8
			s-1.8-2.6-1.8-4.3c0-1.6,0.6-3.1,1.8-4.3C153.1,36.1,154.5,35.5,156.2,35.5 M161.1,64v43.8c0,3.4,0.2,5.7,0.7,6.8
			c0.6,1.1,1.3,2,2.2,2.5c1,0.6,2.7,0.9,5.3,0.9v2.1h-26.5V118c2.6,0,4.5-0.2,5.4-0.8c0.9-0.5,1.6-1.4,2.2-2.6
			c0.5-1.2,0.8-3.4,0.8-6.8v-21c0-6-0.2-9.8-0.6-11.5c-0.2-1.3-0.7-2.2-1.3-2.6c-0.5-0.5-1.4-0.7-2.4-0.7c-1.1,0-2.5,0.3-4.1,0.8
			l-0.8-2.2l16.4-6.7L161.1,64L161.1,64z"/>
		<path class="st0" d="M192.4,75.6c4-3.9,6.4-6.2,7.1-6.8c1.7-1.5,3.7-2.7,5.8-3.5c2-0.9,4.1-1.3,6.1-1.3c3.4,0,6.4,1,8.8,3
			c2.5,2,4.1,4.9,4.9,8.6c4.1-4.8,7.5-7.9,10.4-9.4c2.8-1.5,5.7-2.2,8.7-2.2c2.9,0,5.5,0.7,7.7,2.2c2.3,1.5,4,3.9,5.3,7.3
			c0.9,2.3,1.3,5.9,1.3,10.8v23.5c0,3.4,0.2,5.7,0.8,7c0.4,0.9,1.1,1.6,2.2,2.2c1,0.6,2.8,0.9,5.3,0.9v2.2h-26.9V118h1.1
			c2.3,0,4.2-0.4,5.5-1.4c0.9-0.6,1.5-1.7,2-3.1c0.2-0.6,0.2-2.6,0.2-5.7V84.4c0-4.4-0.5-7.5-1.6-9.4c-1.6-2.5-4-3.8-7.5-3.8
			c-2.1,0-4.2,0.5-6.3,1.6s-4.7,3-7.7,5.9l-0.1,0.6l0.1,2.6V108c0,3.7,0.2,6,0.6,6.9c0.4,0.9,1.3,1.6,2.4,2.3
			c1.2,0.6,3.1,0.9,5.9,0.9v2.2h-27.6V118c3,0,5.1-0.3,6.3-1.1c1.1-0.7,1.9-1.8,2.3-3.2c0.2-0.7,0.3-2.7,0.3-5.9V84.4
			c0-4.4-0.7-7.6-1.9-9.5c-1.7-2.5-4.2-3.8-7.3-3.8c-2.1,0-4.3,0.6-6.3,1.7c-3.4,1.7-5.9,3.7-7.7,5.9V108c0,3.5,0.3,5.9,0.8,6.9
			c0.4,1.1,1.1,1.9,2.1,2.4s3,0.8,6,0.8v2.2h-27V118c2.5,0,4.2-0.3,5.2-0.8c1-0.6,1.7-1.4,2.3-2.6c0.5-1.2,0.7-3.4,0.7-6.8V87
			c0-6-0.1-9.9-0.5-11.6c-0.4-1.3-0.7-2.2-1.4-2.7c-0.6-0.5-1.4-0.7-2.4-0.7c-1.1,0-2.5,0.3-4,0.9l-0.9-2.1l16.4-6.7h2.5L192.4,75.6
			"/>
		<path class="st0" d="M280.6,80.5v20.4c0,4.4,0.2,7.3,0.5,8.7c0.6,2.3,1.9,4.3,4.1,6.1c2.2,1.7,4.9,2.6,8.2,2.6
			c4,0,7.2-1.6,9.6-4.7c3.2-4,4.9-9.7,4.9-17.1c0-8.4-1.8-14.8-5.5-19.2c-2.6-3.1-5.5-4.6-9-4.6c-1.9,0-3.8,0.4-5.7,1.4
			C286.3,74.8,283.8,76.9,280.6,80.5 M261.5,71l16.8-6.8h2.3V77c2.8-4.8,5.7-8.2,8.5-10.1s5.8-2.9,8.9-2.9c5.5,0,10,2.1,13.7,6.4
			c4.5,5.3,6.7,12.1,6.7,20.5c0,9.5-2.7,17.2-8.1,23.4c-4.4,5-10,7.6-16.7,7.6c-3,0-5.5-0.4-7.7-1.2c-1.6-0.6-3.4-1.8-5.3-3.6v16.6
			c0,3.7,0.2,6.1,0.7,7.1s1.3,1.8,2.4,2.4c1.1,0.6,3.2,0.9,6.1,0.9v2.2h-28.6V144h1.5c2.2,0.1,4.1-0.3,5.6-1.2
			c0.8-0.5,1.3-1.1,1.8-2.1c0.4-1,0.6-3.4,0.6-7.4V81.7c0-3.6-0.2-5.8-0.5-6.8s-0.8-1.7-1.5-2.1c-0.7-0.5-1.6-0.7-2.9-0.7
			c-1,0-2.2,0.3-3.6,0.9L261.5,71z"/>
		<path class="st0" d="M342.3,64v12.3c4.6-8.2,9.2-12.3,14.1-12.3c2.2,0,4,0.7,5.4,2s2.2,2.8,2.2,4.5c0,1.6-0.6,2.9-1.6,3.9
			c-1,1.1-2.2,1.6-3.7,1.6c-1.4,0-3-0.7-4.7-2c-1.7-1.4-3-2.1-3.8-2.1c-0.7,0-1.5,0.4-2.3,1.2c-1.8,1.6-3.7,4.3-5.6,8v26.1
			c0,3,0.4,5.3,1.1,6.8c0.6,1.1,1.4,2,2.7,2.7c1.3,0.8,3.2,1.1,5.7,1.1v2.1h-27.9V118c2.8,0,4.8-0.4,6.2-1.3c1-0.6,1.7-1.6,2.1-3
			c0.2-0.7,0.3-2.6,0.3-5.8V86.8c0-6.4-0.1-10.2-0.4-11.3c-0.2-1.2-0.7-2.1-1.4-2.7c-0.7-0.6-1.5-0.8-2.6-0.8
			c-1.2,0-2.6,0.3-4.2,0.8l-0.6-2.2l16.5-6.7L342.3,64"/>
		<path class="st0" d="M370.6,82.7h25.3c-0.2-3.5-0.6-6-1.2-7.4c-1-2.2-2.5-4-4.5-5.2c-1.9-1.3-4-1.9-6.1-1.9
			c-3.3,0-6.2,1.3-8.9,3.9C372.5,74.6,371,78.2,370.6,82.7 M370.6,86.2c0,8.1,1.9,14.4,5.9,19s8.6,6.9,14,6.9c3.6,0,6.7-1,9.3-2.9
			c2.7-1.9,4.8-5.3,6.7-10.1l1.8,1.2c-0.8,5.4-3.3,10.4-7.3,14.9s-9,6.7-15.1,6.7c-6.5,0-12.1-2.5-16.8-7.6c-4.7-5.1-7-12-7-20.6
			c0-9.3,2.4-16.6,7.2-21.9c4.8-5.2,10.8-7.8,18-7.8c6.1,0,11.1,2,15.1,6c3.9,4,5.9,9.5,5.9,16.2H370.6z"/>
		<path class="st0" d="M431.9,80.1v32.7c2,2,4.1,3.4,6.3,4.5c2.2,1,4.4,1.5,6.6,1.5c3.6,0,7-2,10.1-6s4.7-9.7,4.7-17.3
			c0-7-1.6-12.3-4.7-16.1c-3.1-3.8-6.7-5.6-10.6-5.6c-2.1,0-4.2,0.5-6.3,1.6C436.3,76.2,434.3,77.8,431.9,80.1 M431.9,76.3
			c5.3-7.3,11-11,17.1-11c5.6,0,10.5,2.4,14.7,7.2c4.2,4.7,6.3,11.3,6.3,19.6c0,9.7-3.2,17.5-9.7,23.4c-5.5,5.1-11.7,7.7-18.4,7.7
			c-3.2,0-6.4-0.6-9.7-1.7c-3.3-1.2-6.7-2.9-10.1-5.2V59.8c0-6.2-0.1-10-0.4-11.5c-0.3-1.4-0.8-2.4-1.4-2.9s-1.4-0.8-2.4-0.8
			c-1.1,0-2.5,0.3-4.1,1l-0.8-2.1l16.3-6.6h2.7v39.4H431.9z"/>
		<path class="st0" d="M505.3,109.7V89c-6,2.4-9.9,4.1-11.6,5c-3.1,1.8-5.4,3.6-6.7,5.5c-1.3,1.9-2,4-2,6.2c0,2.9,0.8,5.2,2.6,7.1
			c1.7,1.9,3.7,2.8,5.9,2.8C496.4,115.7,500.3,113.7,505.3,109.7 M505.3,113.6c-5.6,4.4-9.1,6.8-10.5,7.5c-2.2,1-4.4,1.5-6.9,1.5
			c-3.8,0-6.9-1.3-9.3-3.9s-3.6-6-3.6-10.1c0-2.7,0.6-5,1.8-6.9c1.6-2.7,4.4-5.2,8.5-7.6c4-2.3,10.8-5.2,20.1-8.6v-2.2
			c0-5.4-0.9-9.2-2.6-11.2s-4.2-3-7.5-3c-2.5,0-4.5,0.7-6,2.1c-1.5,1.3-2.2,2.9-2.2,4.6l0.2,3.5c0,1.8-0.5,3.2-1.4,4.2
			c-1,1-2.2,1.5-3.7,1.5s-2.7-0.5-3.6-1.5s-1.4-2.4-1.4-4.3c0-3.4,1.7-6.5,5.3-9.4c3.4-2.9,8.4-4.3,14.7-4.3c4.9,0,8.8,0.8,11.9,2.5
			c2.4,1.2,4.1,3.2,5.2,5.7c0.7,1.7,1.1,5.3,1.1,10.5v18.5c0,5.2,0,8.4,0.2,9.6s0.6,1.9,1,2.4c0.4,0.4,1,0.6,1.6,0.6
			s1.1-0.1,1.6-0.4c0.8-0.5,2.4-2,4.9-4.4v3.3c-4.5,6-8.7,8.9-12.8,8.9c-1.9,0-3.5-0.7-4.6-2C505.9,119.2,505.4,116.9,505.3,113.6"
			/>
		<path class="st0" d="M542.3,76.9c6.4-7.7,12.5-11.5,18.3-11.5c3,0,5.6,0.8,7.7,2.2c2.2,1.6,3.9,4,5.2,7.4c0.9,2.4,1.3,6,1.3,10.9
			v23.3c0,3.5,0.2,5.8,0.8,7c0.4,1,1.1,1.8,2.1,2.3c1,0.6,2.8,0.8,5.4,0.8v2.2h-27v-2.2h1.2c2.5,0,4.3-0.3,5.4-1.2
			c1-0.8,1.7-1.9,2.1-3.4c0.2-0.6,0.3-2.4,0.3-5.6V86.9c0-5-0.7-8.6-1.9-10.8c-1.3-2.2-3.5-3.3-6.5-3.3c-4.7,0-9.4,2.6-14.1,7.7
			v28.8c0,3.7,0.2,6,0.7,6.8c0.6,1.2,1.3,2,2.2,2.5c1,0.6,3,0.8,6,0.8v2.2h-27v-2.2h1.2c2.7,0,4.6-0.7,5.6-2.1s1.4-4.1,1.4-8.1V88.9
			c0-6.6-0.1-10.6-0.4-12c-0.3-1.4-0.8-2.4-1.4-2.9c-0.6-0.5-1.4-0.7-2.4-0.7c-1.1,0-2.4,0.2-4,0.9l-0.9-2.1l16.4-6.7h2.5v11.5"/>
		<path class="st0" d="M631.6,100.8c-1.5,7.2-4.4,12.7-8.7,16.6s-9,5.9-14.2,5.9c-6.2,0-11.6-2.6-16.2-7.8
			c-4.6-5.2-6.9-12.2-6.9-21.1c0-8.6,2.6-15.5,7.6-20.9c5.1-5.4,11.2-8.1,18.4-8.1c5.3,0,9.8,1.4,13.2,4.3c3.5,2.8,5.1,5.8,5.1,8.8
			c0,1.5-0.5,2.7-1.4,3.6c-1,1-2.4,1.4-4.1,1.4c-2.4,0-4.1-0.7-5.3-2.2c-0.6-0.9-1.1-2.4-1.3-4.8c-0.2-2.3-1-4.1-2.4-5.4
			c-1.4-1.2-3.3-1.8-5.8-1.8c-4,0-7.2,1.5-9.6,4.4c-3.2,3.9-4.9,9-4.9,15.4c0,6.5,1.6,12.3,4.8,17.2c3.2,5,7.5,7.5,12.9,7.5
			c3.9,0,7.4-1.4,10.5-4c2.2-1.8,4.3-5.1,6.4-9.9L631.6,100.8"/>
		<path class="st0" d="M669.2,109.7V89c-6,2.4-9.9,4.1-11.6,5c-3.2,1.8-5.4,3.6-6.7,5.5c-1.4,1.9-2,4-2,6.2c0,2.9,0.8,5.2,2.5,7.1
			s3.7,2.8,5.9,2.8C660.3,115.7,664.3,113.7,669.2,109.7 M669.2,113.6c-5.6,4.4-9.1,6.8-10.5,7.5c-2.1,1-4.4,1.5-6.8,1.5
			c-3.8,0-6.9-1.3-9.3-3.9c-2.5-2.6-3.7-6-3.7-10.1c0-2.7,0.6-5,1.8-6.9c1.6-2.7,4.4-5.2,8.5-7.6c4-2.3,10.7-5.2,20.1-8.6v-2.2
			c0-5.4-0.9-9.2-2.6-11.2c-1.8-2-4.2-3-7.6-3c-2.5,0-4.4,0.7-6,2.1c-1.5,1.3-2.2,2.9-2.2,4.6l0.1,3.5c0,1.8-0.5,3.2-1.4,4.2
			S647.5,85,646,85c-1.4,0-2.7-0.5-3.7-1.5c-0.9-1-1.3-2.4-1.3-4.3c0-3.4,1.7-6.5,5.2-9.4s8.4-4.3,14.7-4.3c4.9,0,8.8,0.8,11.9,2.5
			c2.3,1.2,4,3.2,5.2,5.7c0.7,1.7,1,5.3,1,10.5v18.5c0,5.2,0.1,8.4,0.3,9.6s0.5,1.9,0.9,2.4c0.5,0.4,1,0.6,1.6,0.6s1.2-0.1,1.7-0.4
			c0.8-0.5,2.4-2,4.8-4.4v3.3c-4.4,6-8.7,8.9-12.7,8.9c-1.9,0-3.5-0.7-4.6-2C669.9,119.2,669.3,116.9,669.2,113.6"/>
		<g>
			<g>
				<g>
					<path id="SVGID_1_" class="st0" d="M12.4,140.7c17.5,14.4,46.8,4.6,69.1-21.4c8.7-10.1,12.9-22.7,14.9-32.2l-1-0.9
						c-2,9.5-7.7,20.5-16.6,30.4C62,135.3,43,144,29,132.9c-9.9-7.9-9.3-31.4,7.6-67.7l-24.9-0.5C-5.1,100.9-2.8,128.1,12.4,140.7
						 M23.3,37.8c-5.7,5.8-6.6,14-2.1,18.4s12.7,3.3,18.4-2.4c5.7-5.8,6.6-14.1,2.1-18.5c-1.8-1.8-4.4-2.7-7-2.7
						C30.8,32.6,26.7,34.4,23.3,37.8"/>
				</g>
			</g>
		</g>
		<g>
			<g>
				<g>
					<path id="SVGID_3_" class="st0" d="M72.4,0L41.3,67.6l1.6,1.6c22.7-15.2,40.2-13.3,49-7.3c14.8,10.1,12.2,30.8-0.7,52.5
						c-6.8,11.4-20.9,24-29.4,28.8l1,1.3c30.3-13.8,39.7-26.5,46.5-38c12.8-21.7,14.9-50-8-63C96,40.5,88.1,38.4,78,40L96.8,0H72.4"
						/>
				</g>
			</g>
		</g>
	</g>
</g>
</svg>
