<?xml version="1.0" encoding="iso-8859-1"?>
<!-- Generator: Adobe Illustrator 19.1.0, SVG Export Plug-In . SVG Version: 6.00 Build 0)  -->
<svg version="1.1" id="Vrstva_1" xmlns="http://www.w3.org/2000/svg" xmlns:xlink="http://www.w3.org/1999/xlink" x="0px" y="0px"
	 viewBox="0 0 119.055 34.016" style="enable-background:new 0 0 119.055 34.016;" xml:space="preserve">
<g>
	<g>
		<polygon style="fill:#999FA3;" points="35.316,9.468 35.316,13.982 38.218,13.982 38.218,24.523 43.314,24.523 43.314,13.982 
			46.206,13.982 46.206,9.468 		"/>
		<path style="fill:#999FA3;" d="M16.014,9.468V20.01h-3.581v4.513h5.143c0.428,0.002,0.696-0.034,0.696-0.034
			c1.576-0.232,2.794-1.565,2.839-3.194l0.003-0.003V9.468H16.014z"/>
		<path style="fill:#999FA3;" d="M34.532,21.182c0.14-0.682,0.179-1.406,0.179-2.107c0-0.402-0.02-0.784-0.039-1.185h-1.566
			c0,0.341,0.063,0.703,0.04,1.045c-0.021,0.34-0.04,0.662-0.06,1.002l-5.858-4.917c-0.785-0.66-1.044-1.043-1.044-2.106
			c0-1.988,1.282-2.046,2.908-2.046c2.25,0,2.531,0.38,2.548,2.287v0.829h1.708v-0.829c0-3.171-1.525-3.792-4.256-3.792
			c-2.948,0-4.615,0.582-4.615,3.552c0,1.686,0.382,2.148,1.365,2.971c-1.927,0.541-3.07,0.441-3.07,4.093
			c0,4.697,2.388,4.676,5.718,4.676c2.409,0,4.756,0,5.619-1.966l2.229,1.846l0.921-1.184L34.532,21.182z M28.491,23.149
			c-3.552,0-4.013-0.22-4.013-3.151c0-2.389,0.221-2.69,2.429-3.191l5.88,4.837C32.425,23.289,30.116,23.149,28.491,23.149"/>
		<g>
			<path style="fill:#999FA3;" d="M60.164,16.622c1.415-0.548,1.729-1.637,1.722-3.142c0-1.306-0.162-2.307-0.694-2.991
				c-0.535-0.685-1.432-1.021-2.842-1.021h-7.627v15.055h0.08h7.925c0.002,0,0.004,0,0.005,0c1.272,0,2.179-0.375,2.761-1.1
				c0.58-0.725,0.828-1.781,0.83-3.132C62.331,18.512,62.013,17.047,60.164,16.622z M57.397,15.962h-4.825v-4.845h5.004
				c1.771,0.024,2.44,0.169,2.461,2.145C60.014,15.57,59.413,15.939,57.397,15.962z M52.572,17.612h5.46c0.043,0,0.085,0,0.127,0
				c2.072,0.016,2.295,0.908,2.314,2.84c-0.021,2.255-0.81,2.399-2.64,2.423h-5.261V17.612z"/>
			<path style="fill:#999FA3;" d="M68.463,9.468l-5.481,15.055h1.938l1.152-3.158h7.416l1.172,3.158h1.918L70.957,9.468H68.463z
				 M72.953,19.815h-6.364l3.162-8.645L72.953,19.815z"/>
			<polygon style="fill:#999FA3;" points="89.017,22.935 80.759,9.468 77.855,9.468 77.855,24.523 79.703,24.523 79.703,11.155 
				87.978,24.523 90.866,24.523 90.866,24.443 90.866,9.468 89.017,9.468 			"/>
			<polygon style="fill:#999FA3;" points="98.915,16.755 105.801,9.468 103.377,9.468 97.299,15.981 95.945,15.981 95.945,9.468 
				94.097,9.468 94.097,24.523 95.945,24.523 95.945,17.631 97.301,17.632 104.113,24.523 106.623,24.523 			"/>
		</g>
	</g>
</g>
</svg>
