<svg id="Layer_1" data-name="Layer 1" xmlns="http://www.w3.org/2000/svg" viewBox="0 0 1912.21 619.48"><defs><style>.cls-1{fill:#0069b5;}.cls-2{fill:#d2142e;}</style></defs><title>KentBank_Logo</title><g id="BODY"><path class="cls-1" d="M491.18,126.13a25.85,25.85,0,0,0-25.72-25.83H310.59a25.86,25.86,0,0,0-25.85,25.83V281a25.84,25.84,0,0,0,25.85,25.79H465.47A25.83,25.83,0,0,0,491.18,281V126.13Z" transform="translate(-78.3 -100.3)"/></g><g id="BODY-2" data-name="BODY"><path class="cls-1" d="M284.74,332.64a25.87,25.87,0,0,0-25.8-25.86H104.12A25.84,25.84,0,0,0,78.3,332.64V487.46a25.72,25.72,0,0,0,25.82,25.78H258.94a25.75,25.75,0,0,0,25.8-25.78V332.64Z" transform="translate(-78.3 -100.3)"/></g><g id="BODY-3" data-name="BODY"><path class="cls-1" d="M491.18,539.06a25.85,25.85,0,0,0-25.72-25.81H310.59a25.86,25.86,0,0,0-25.85,25.81V693.92a25.87,25.87,0,0,0,25.85,25.85H465.47a25.85,25.85,0,0,0,25.72-25.85V539.06Z" transform="translate(-78.3 -100.3)"/></g><path class="cls-2" d="M1977.3,514.63a120.73,120.73,0,0,1-15.63.86c-9.75,0-18.17-1.59-25.3-4.92s-14.09-8.77-20.65-16.66-13.31-18.19-20.26-31.16c-8.47-15.75-16.23-31.79-23.77-48-1.32,1.43-2.55,2.92-3.75,4.37-1.51,1.77-2.94,3.49-4.53,5.21s-2.94,3.54-4.33,5.32c-1,1.29-2,2.64-3.14,3.88v79.7h-39.81V306.78h39.81v96.73q7.05-8.52,14-17.24c5.52-7,11.11-14,16.78-21q8.26-10.24,16.55-20.42c2.26-2.58,4.32-5.2,6.55-7.79s4.48-5.1,6.8-7.65a114.57,114.57,0,0,1,12.57-12.15,42.1,42.1,0,0,1,11.1-6.94,40,40,0,0,1,11.2-3.13,128.79,128.79,0,0,1,13.53-.6c1.09,0,2.28,0,3.64.12a31.68,31.68,0,0,1,3.6.22c2.82,0.2,4.67.48,5.7,1v12.76h-2.88a38.13,38.13,0,0,0-10.36,1.4,47.81,47.81,0,0,0-10.06,4.62,87,87,0,0,0-10.86,8.19c-3.86,3.44-8,7.46-12.42,12.22-2.52,2.69-5.08,5.54-7.88,8.55-2.54,2.91-5.15,5.85-7.73,8.81-5.83,6.85-11.67,13.61-17.52,20.55,7.6,15.37,15.43,30.67,23.67,45.84a328.66,328.66,0,0,0,22.15,35.91c7.23,10.08,14.43,18,21.61,23.53s14.54,8.39,22.34,8.39h2.47V512A102.69,102.69,0,0,1,1977.3,514.63Zm-385.82-1.38h23.26V432.69c0-1.58-.06-3.19-0.1-4.84,0-4-.2-8-0.23-12,0-4.35-.2-8.61-0.33-13-0.38-11.1-.56-22.25-0.85-33.35h0.36l138.69,144.91h17.85V307h-23.22v76c0,3.54.07,7.08,0.07,10.59,0.07,4.09.19,8.12,0.23,12.23s0.13,8.45.15,12.71c0,10.31.28,20.72,0.43,31.1L1609,305.47h-17.5V513.25Zm-125.2-178.16,29.84,89.08H1435.6l30.68-89.08,36.12,108.55,23.08,69.6h42.63l-72.23-211.61-38.8,7-77.63,204.66h25.26l23.76-68.52,73.94-1.09m-177.84-40.77v-0.71m0,0a54.82,54.82,0,0,0,13.56-5.43,40.67,40.67,0,0,0,11.35-9.6,47.07,47.07,0,0,0,7.65-13.91,51.53,51.53,0,0,0,3-18.44q0-13-5.14-22.35a41,41,0,0,0-14.78-15.16c-6.27-4-13.9-6.9-22.88-8.84a150.8,150.8,0,0,0-29.88-2.71c-8.85,0-18.4.12-28.76,0.63-10.17.43-19.21,1.08-27.09,2v204c4.84,0.48,9.74.91,14.7,1.36,5.43,0.5,11.15.74,17.24,1,5.6,0.18,11.39.38,17.08,0.61,4.91,0.1,9.77.16,14.52,0.16q19.34,0,33.21-3.86c9.25-2.66,16.86-6.38,22.9-11.4a46.25,46.25,0,0,0,13.48-18.34,64.4,64.4,0,0,0,4.33-24.4,67.55,67.55,0,0,0-2.48-18.9,51.05,51.05,0,0,0-8-15.93,49.65,49.65,0,0,0-13.78-12.15,62.79,62.79,0,0,0-20.26-7.65m-50.8-76.07a12.9,12.9,0,0,1,2.31-.2c1.82,0,3.6-.07,5.26-0.07q18.16,0,28.14,7.28c6.58,4.8,9.92,13.36,9.92,25.67a65.51,65.51,0,0,1-1,12.45,34.39,34.39,0,0,1-2.31,8.56,17.49,17.49,0,0,1-6.78,8.29,40.51,40.51,0,0,1-10.84,3.33,70.2,70.2,0,0,1-13.83,1.4h-13.2V327A18.74,18.74,0,0,1,1273.76,326.8Zm43.3,97.75c7.5,6.9,11.31,17,11.31,30.39a76.87,76.87,0,0,1-1.19,14.88,37,37,0,0,1-3,9.77,19.92,19.92,0,0,1-4.09,6.15,25.75,25.75,0,0,1-4.24,3.58,22.75,22.75,0,0,1-5.59,2,65,65,0,0,1-7.54,1.49c-2.74.37-5.6,0.67-8.48,0.89s-5.58.34-8,.34h-4.9c-1.12,0-3.17,0-4.21-.12s-2.1-.21-2.94-0.21c-1.09-.14-1.72-0.21-2.71-0.31v-79H1284C1298.5,414.35,1309.47,417.79,1317.06,424.56ZM1105.33,328.8V513.25h40V328.8l58.5-1.62,2-20.4H1047l-2,21.09ZM840.61,513.25h23.34V437.51c0-3.15,0-6.5-.13-9.66-0.14-4-.14-8-0.22-12-0.16-4.35-.2-8.61-0.34-13-0.38-11.1-.66-22.25-0.92-33.35h0.43l138.66,144.91h17.93V307H996v76c0,3.54.09,7.08,0.2,10.59,0.12,4.09.12,8.12,0.25,12.23,0,4.26,0,8.49.07,12.71,0.07,10.31.3,20.72,0.43,31.1L858.13,305.47H840.61V513.25Zm-38.2-206.47h-114V513.25h118l1.76-20.36-79.94-1.57V417.39l66.06-1.53,1.84-19-67.9-.91V328.8l72.19-.93ZM669,498.72c-0.76.06-1.46,0.08-2.27,0.08-7.92,0-15.79-2.9-23-8.47-7.47-5.65-14.65-13.36-22.16-23.53a340.94,340.94,0,0,1-22.45-35.91C591.23,416.71,583.26,401.53,575,385c6-6.93,12-13.7,17.94-20.55,5.51-6.35,10.82-12.07,15.89-17.36,9.73-10.19,16.75-16.21,23.77-20.41a46.35,46.35,0,0,1,10.25-4.62,39.59,39.59,0,0,1,10.55-1.4h2.89V308c-1.19-.54-2.65-0.8-5.79-1-3.88-.34-7.23-0.47-10.29-0.47-9,0-16.35,1.25-22.34,3.85a46.26,46.26,0,0,0-11.36,6.94,120.74,120.74,0,0,0-12.76,12.15c-0.62.55-1.09,1.17-1.75,1.9-4.05,4.39-7.93,9-11.83,13.62-5.64,6.75-11.39,13.66-17.08,20.57s-11.29,13.87-17,20.76c-2.29,2.87-4.67,5.83-7,8.75s-4.8,5.63-7.2,8.49V306.78H517a25.91,25.91,0,0,0-25.86,25.86V487.46A25.79,25.79,0,0,0,517,513.25h14.8v-79.7c1.13-1.23,2.13-2.59,3.22-3.92,1.27-1.61,2.77-3.39,4.41-5.28,2.85-3.12,5.55-6.44,8.3-9.58,5.83,12.15,11.78,24.22,18,36.16,2.11,4.09,4.24,8,6.35,11.83,7.25,13.24,13.78,23.17,20.61,31.1s13.7,13.45,21,16.72a59.25,59.25,0,0,0,26.52,5.09c6.51-.22,13.11-0.82,19.55-1.68a93.87,93.87,0,0,0,9.2-2V498.72Z" transform="translate(-78.3 -100.3)"/></svg>