<?xml version="1.0" encoding="utf-8"?>
<!-- Generator: Adobe Illustrator 19.0.0, SVG Export Plug-In . SVG Version: 6.00 Build 0)  -->
<svg version="1.1" id="Layer_1" xmlns="http://www.w3.org/2000/svg" xmlns:xlink="http://www.w3.org/1999/xlink" x="0px" y="0px"
	 viewBox="0 0 3121.6 461.9" style="enable-background:new 0 0 3121.6 461.9;" xml:space="preserve">
<style type="text/css">
	.st0{fill-rule:evenodd;clip-rule:evenodd;fill:#ED1C24;}
	.st1{fill-rule:evenodd;clip-rule:evenodd;fill:#A7A9AC;}
	.st2{fill-rule:evenodd;clip-rule:evenodd;}
	.st3{fill-rule:evenodd;clip-rule:evenodd;fill:#FFFFFF;}
	.st4{fill-rule:evenodd;clip-rule:evenodd;fill:url(#SVGID_1_);}
	.st5{fill-rule:evenodd;clip-rule:evenodd;fill:#939598;}
	.st6{fill-rule:evenodd;clip-rule:evenodd;fill:#ED1C24;stroke:#FFFFFF;stroke-width:1.9998;stroke-miterlimit:22.9256;}
	.st7{fill-rule:evenodd;clip-rule:evenodd;fill:#A7A9AC;stroke:#ED1C24;stroke-width:0.216;stroke-miterlimit:22.9256;}
</style>
<path class="st0" d="M524.9,403.3c-12.5-7.7-20.1-19.7-8.2-27.8c91.6-7.7,204.5-18.7,425.1-38.9c-83.7,0-191.3-0.9-275.6,14.3
	c-4,0.7-6.2,6.6-11.9,7.2c-20.1,3.8-48.9-16.4-23.8-30.3c1.5-0.9,6.9-2.5,8.5-2.7c228.6-24.7,388.2-29.9,602-11.4
	c30.8,4.8,25.9,20.2,30.2,21.6c51.8,3.9,81.7-1.1,157,13c13.5,8.3,4.2,15.5,0.2,16.7c-103.1,6.7-199.9-1.4-300.7-3.3
	C916.7,363.5,732.1,378.3,524.9,403.3z"/>
<g>
	<path class="st1" d="M231,0c127.2,0,231,103.8,231,231c0,127.2-103.8,231-231,231C103.8,461.9,0,358.2,0,231C0,103.8,103.8,0,231,0
		z"/>
	<path class="st2" d="M231,13.3c61.3,0,116.8,25.6,156.4,66.6C348.2,42,294.9,18.6,236.3,18.6c-119.9,0-217.7,97.8-217.7,217.7
		c0,58.6,23.4,111.9,61.3,151.1c-41-39.6-66.6-95.1-66.6-156.4C13.3,111.1,111.1,13.3,231,13.3z"/>
	<path class="st3" d="M382.1,74.5c41,39.6,66.6,95.1,66.6,156.4c0,119.9-97.8,217.7-217.7,217.7c-61.3,0-116.8-25.6-156.4-66.6
		c39.2,37.9,92.5,61.3,151.1,61.3c119.9,0,217.7-97.8,217.7-217.7C443.4,167.1,420,113.7,382.1,74.5z"/>
	<radialGradient id="SVGID_1_" cx="140.3416" cy="146.5925" r="340.4244" gradientUnits="userSpaceOnUse">
		<stop  offset="0" style="stop-color:#FFFFFF"/>
		<stop  offset="0.6183" style="stop-color:#AEB0B3"/>
		<stop  offset="1" style="stop-color:#808285"/>
	</radialGradient>
	<path class="st4" d="M231,74.7c86.1,0,156.3,70.2,156.3,156.3c0,86.1-70.2,156.3-156.3,156.3C144.9,387.2,74.7,317,74.7,231
		C74.7,144.9,144.9,74.7,231,74.7z"/>
	<path class="st2" d="M231,74.7c44,0,83.8,18.4,112.3,47.8c-28.1-27.2-66.4-44-108.5-44c-86.1,0-156.3,70.2-156.3,156.3
		c0,42.1,16.8,80.3,44,108.5C93.1,314.8,74.7,275,74.7,231C74.7,144.9,144.9,74.7,231,74.7z"/>
	<path class="st3" d="M339.4,118.7c29.4,28.4,47.8,68.3,47.8,112.3c0,86.1-70.2,156.3-156.3,156.3c-44,0-83.8-18.4-112.3-47.8
		c28.1,27.2,66.4,44,108.5,44c86.1,0,156.3-70.2,156.3-156.3C383.4,185.1,366.6,146.8,339.4,118.7z"/>
	<path class="st2" d="M346.4,296.5c0,16.2-3.6,28.6-10.9,37.1c-7.9,9.4-20.1,14.1-36.8,14.1h-64.3c-5.8,0-11.6-5.9-17.6-17.6
		l-4.8,17.6h-76.1c3-5.1,4.8-9.4,5.6-12.9c0.7-3.5,1.1-9.4,1.1-17.7V154.6c0-7.5-0.2-13.3-0.6-17.6c-0.4-4.3-2.5-8.7-6.1-13.4h82.5
		v75.8c2.1-4.7,3.7-7.9,4.8-9.6c3.2-4.5,8.5-6.7,16-6.7h59.5c31.8,0,47.6,17,47.6,51.1V296.5L346.4,296.5z M214.1,291.4l16.2-15.3
		l28.2,62.2l72.3-0.6c-1.9-2.1-1.8-3.5-3.1-5.3c-3.6-5.4-7.8-12.4-12.6-21.3l-40-74.9l37.3-30.6c0.7-0.6,3.5-2.4,8.5-4.9
		c1.5-0.8,3.8-1.9,6.9-3.6H273c-1,4.2-2.4,7.7-4.2,10.8c-1.8,3-15.4,14.2-19.4,18l-35,33.1L214.1,291.4z"/>
	<path class="st0" d="M341.2,292.8c0,16.2-3.6,28.6-10.9,37.1c-7.9,9.4-20.1,14.1-36.8,14.1h-64.3c-5.8,0-11.6-5.9-17.6-17.6
		l-4.8,17.6h-76.1c3-5.1,4.8-9.4,5.6-12.9c0.7-3.5,1.1-9.4,1.1-17.7V150.9c0-7.5-0.2-13.3-0.6-17.6c-0.4-4.3-2.5-8.7-6.1-13.4h82.5
		v75.8c2.1-4.7,3.7-7.9,4.8-9.6c3.2-4.5,8.5-6.7,16-6.7h59.5c31.8,0,47.6,17.1,47.6,51.1V292.8L341.2,292.8z M208.9,287.7l16.2-15.3
		l28.2,62.2l72.3-0.6c-1.9-2.1-1.8-3.5-3.1-5.3c-3.6-5.4-7.8-12.4-12.6-21.3l-40-74.9l37.3-30.6c0.7-0.6,3.5-2.4,8.5-4.9
		c1.5-0.8,3.8-1.9,6.9-3.6h-54.9c-1,4.2-2.4,7.7-4.2,10.8c-1.8,3-15.4,14.2-19.4,18l-35,33.1L208.9,287.7z"/>
</g>
<path class="st5" d="M2619.8,172.9c-24.5-10.4-26.9-49.2,0-63.2C2582.3,123.7,2584.8,162.5,2619.8,172.9z"/>
<g>
	<path class="st0" d="M3088.3,176.2h-428.2c28.4-10.6,30.8-49.7,0-63.9h373.4C3088.1,121.3,3087.9,148.2,3088.3,176.2z"/>
	<path class="st3" d="M2733.3,142.4h-9.2c-0.9,0-1.6,0-2.2,0.1c-0.6,0.1-1,0.3-1.4,0.6c-0.3,0.3-0.6,0.7-0.7,1.2
		c-0.1,0.5-0.2,1.2-0.2,2.1v6.1c0,0.8,0.1,1.5,0.2,2.1c0.1,0.5,0.4,1,0.7,1.2c0.3,0.3,0.8,0.5,1.4,0.6c0.6,0.1,1.3,0.2,2.2,0.2h7.2
		c0.7,0,1.2-0.2,1.5-0.7c0.3-0.5,0.5-1.1,0.5-1.9V142.4L2733.3,142.4z M2735.7,161.6c-0.7,0-1.2-0.3-1.7-1c-0.4,0.7-1,1-1.7,1h-10.8
		c-1.7,0-3.1-0.1-4.1-0.3c-1-0.2-1.8-0.5-2.4-1c-0.5-0.5-0.9-1.2-1-2c-0.1-0.8-0.2-1.9-0.2-3.3v-10.9c0-1.3,0.1-2.4,0.2-3.2
		c0.1-0.9,0.5-1.5,1-2c0.5-0.5,1.3-0.9,2.4-1c1-0.2,2.4-0.3,4.1-0.3h11.9v-4.8c0-1.4-0.5-3.1-1.5-5.2h8.9c-0.9,2.3-1.4,4.1-1.4,5.2
		V156c0,0.9,0.1,1.9,0.4,2.8c0.3,0.9,0.6,1.9,1.1,2.8H2735.7L2735.7,161.6z M2755.7,159.2c0,0.8-0.4,1.6-1.1,2.2
		c-0.7,0.6-1.5,0.9-2.5,0.9c-1,0-1.8-0.3-2.5-0.9c-0.7-0.6-1-1.4-1-2.2c0-0.9,0.3-1.6,1-2.3c0.7-0.6,1.5-0.9,2.5-0.9
		c1,0,1.8,0.3,2.5,0.9C2755.3,157.6,2755.7,158.3,2755.7,159.2L2755.7,159.2z M2782.6,142.4h-9.2c-0.9,0-1.6,0-2.2,0.1
		c-0.6,0.1-1,0.3-1.4,0.6c-0.3,0.3-0.6,0.7-0.7,1.2c-0.1,0.5-0.2,1.2-0.2,2.1v6.1c0,0.8,0.1,1.5,0.2,2.1c0.1,0.5,0.4,1,0.7,1.2
		c0.3,0.3,0.8,0.5,1.4,0.6s1.3,0.2,2.2,0.2h7.2c0.7,0,1.2-0.2,1.5-0.7c0.3-0.5,0.5-1.1,0.5-1.9V142.4L2782.6,142.4z M2785,161.6
		c-0.7,0-1.2-0.3-1.7-1c-0.4,0.7-1,1-1.7,1h-10.8c-1.7,0-3.1-0.1-4.1-0.3c-1-0.2-1.8-0.5-2.4-1c-0.5-0.5-0.9-1.2-1-2
		c-0.1-0.8-0.2-1.9-0.2-3.3v-10.9c0-1.3,0.1-2.4,0.2-3.2c0.1-0.9,0.5-1.5,1-2c0.5-0.5,1.3-0.9,2.4-1c1-0.2,2.4-0.3,4.1-0.3h11.9
		v-4.8c0-1.4-0.5-3.1-1.5-5.2h8.9c-0.9,2.3-1.4,4.1-1.4,5.2V156c0,0.9,0.1,1.9,0.4,2.8c0.3,0.9,0.6,1.9,1.1,2.8H2785L2785,161.6z
		 M2805,159.2c0,0.8-0.4,1.6-1.1,2.2c-0.7,0.6-1.5,0.9-2.5,0.9c-1,0-1.8-0.3-2.5-0.9c-0.7-0.6-1-1.4-1-2.2c0-0.9,0.3-1.6,1-2.3
		c0.7-0.6,1.5-0.9,2.5-0.9c1,0,1.8,0.3,2.5,0.9C2804.6,157.6,2805,158.3,2805,159.2L2805,159.2z M2848,128.9c-0.4,0.6-0.7,1.1-1,1.7
		c-0.3,0.6-0.5,1-0.7,1.2v-0.1c-0.4,0.7-0.7,1.4-0.9,2c-0.2,0.6-0.4,1.2-0.6,1.8v-0.1l-7,26.1h-9.4l-7.1-26.1
		c-0.3-0.9-0.7-2-1.2-3.1c-0.6-1.1-1.2-2.3-2.1-3.5h8.7c-0.1,0.3-0.1,0.7-0.1,1c0,0.3,0,0.7,0,1c0,1.2,0.2,2.6,0.5,4.2l5.5,22.1h1.1
		l5.2-22.1c0.5-2,0.7-3.3,0.7-4.1v-0.7c0,0.1-0.1-0.1-0.1-0.4c-0.1-0.3-0.1-0.7-0.2-1H2848L2848,128.9z M2871.3,152h-11.4
		c-0.8,0-1.4,0.2-1.8,0.7c-0.5,0.4-0.7,1-0.7,1.7s0.2,1.3,0.7,1.7c0.5,0.4,1.1,0.6,1.8,0.6h9.7c1.1,0,1.7-0.8,1.7-2.3V152
		L2871.3,152z M2874.1,161.6c-0.9,0-1.6-0.3-2.2-1c-0.8,0.7-1.6,1-2.3,1h-10.2c-2.5,0-4.2-0.2-5-0.5h0c-1.3-0.3-2.1-1.2-2.4-2.6
		l0,0.1c-0.2-0.4-0.3-1-0.3-1.8c0-0.8-0.1-1.9-0.1-3.1c0-1.3,0.1-2.4,0.2-3.2s0.5-1.5,1-2c0.5-0.5,1.3-0.9,2.4-1
		c1-0.2,2.4-0.3,4.1-0.3h11.9v-0.5c0-1.7-0.3-2.9-0.8-3.3l0,0.1c-0.6-0.5-1.8-0.8-3.7-0.8h-9.5c-1,0-2.4,0.8-4.2,2.4v-7.4h16.5
		c3,0,4.9,0.3,5.8,0.9v-0.1c1.2,0.8,1.9,2.7,1.9,5.7v12.4c0,1.5,0.5,3.2,1.6,5.1H2874.1L2874.1,161.6z M2906.1,145.5
		c-1.5-2-2.6-3-3.4-3h-4.4c-0.9,0-1.7,0.1-2.2,0.2c-0.6,0.1-1,0.3-1.4,0.6c-0.3,0.3-0.6,0.7-0.7,1.2c-0.1,0.5-0.2,1.2-0.2,2.1v10.2
		c0,1.3,0.5,2.9,1.5,4.9h-8.9c0.9-2,1.4-3.6,1.4-4.9v-14.5c0-1.2-0.5-2.8-1.4-4.7h7.4v1.7c1.2-1.2,2.9-1.7,5.1-1.7h7.2V145.5
		L2906.1,145.5z M2933,152h-11.4c-0.8,0-1.4,0.2-1.8,0.7c-0.5,0.4-0.7,1-0.7,1.7s0.2,1.3,0.7,1.7c0.5,0.4,1.1,0.6,1.8,0.6h9.7
		c1.1,0,1.7-0.8,1.7-2.3V152L2933,152z M2935.8,161.6c-0.9,0-1.6-0.3-2.2-1c-0.8,0.7-1.6,1-2.3,1h-10.2c-2.5,0-4.2-0.2-5-0.5h0
		c-1.3-0.3-2.1-1.2-2.4-2.6l0,0.1c-0.2-0.4-0.3-1-0.3-1.8c0-0.8-0.1-1.9-0.1-3.1c0-1.3,0.1-2.4,0.2-3.2s0.5-1.5,1-2
		c0.5-0.5,1.3-0.9,2.4-1c1-0.2,2.4-0.3,4.1-0.3h11.9v-0.5c0-1.7-0.3-2.9-0.8-3.3l0,0.1c-0.6-0.5-1.8-0.8-3.7-0.8h-9.5
		c-1,0-2.4,0.8-4.2,2.4v-7.4h16.5c3,0,4.9,0.3,5.8,0.9v-0.1c1.2,0.8,1.9,2.7,1.9,5.7v12.4c0,1.5,0.5,3.2,1.6,5.1H2935.8
		L2935.8,161.6z M2949.5,161.6v-3.5l14.8-15.6h-11.1c-0.9,0-2.2,0.9-3.8,2.7v-7.8h23.1v4.3l-14.1,15h9.7c1,0,2.5-0.8,4.4-2.4v7.4
		H2949.5L2949.5,161.6z M2963,136.1h-4.4l-8.8-6.1h7.9l3.1,2.9l3.2-2.9h8L2963,136.1L2963,136.1z M2998.5,142.4h-9.2
		c-0.9,0-1.6,0-2.2,0.1c-0.6,0.1-1,0.3-1.4,0.6c-0.3,0.3-0.6,0.7-0.7,1.2c-0.1,0.5-0.2,1.2-0.2,2.1v6.1c0,0.8,0.1,1.5,0.2,2.1
		c0.1,0.5,0.4,1,0.7,1.2c0.3,0.3,0.8,0.5,1.4,0.6c0.6,0.1,1.3,0.2,2.2,0.2h7.2c0.7,0,1.2-0.2,1.5-0.7c0.3-0.5,0.5-1.1,0.5-1.9V142.4
		L2998.5,142.4z M3000.9,161.6c-0.7,0-1.2-0.3-1.7-1c-0.4,0.7-1,1-1.7,1h-10.8c-1.7,0-3.1-0.1-4.1-0.3c-1-0.2-1.8-0.5-2.4-1
		c-0.5-0.5-0.9-1.2-1-2c-0.1-0.8-0.2-1.9-0.2-3.3v-10.9c0-1.3,0.1-2.4,0.2-3.2c0.1-0.9,0.5-1.5,1-2c0.5-0.5,1.3-0.9,2.4-1
		c1-0.2,2.4-0.3,4.1-0.3h11.9v-4.8c0-1.4-0.5-3.1-1.5-5.2h8.9c-0.9,2.3-1.4,4.1-1.4,5.2V156c0,0.9,0.1,1.9,0.4,2.8
		c0.3,0.9,0.6,1.9,1.1,2.8H3000.9L3000.9,161.6z M3021.1,131.5c0,0.9-0.3,1.6-1,2.3c-0.7,0.6-1.5,0.9-2.5,0.9c-1,0-1.9-0.3-2.5-0.9
		c-0.7-0.6-1-1.4-1-2.3c0-0.8,0.3-1.6,1-2.2c0.7-0.6,1.5-0.9,2.5-0.9c1,0,1.8,0.3,2.5,0.9C3020.8,129.9,3021.1,130.6,3021.1,131.5
		L3021.1,131.5z M3013.2,161.6c0.4-1.2,0.8-2.2,1-3.1c0.2-0.9,0.3-1.6,0.3-2.1v-14.1c0-1.4-0.3-3.1-0.9-4.9h8.4
		c-1,2-1.5,3.7-1.5,4.9v14.1c0,1.3,0.5,3,1.5,5.2H3013.2L3013.2,161.6z M3049.8,161.6c1-2,1.5-3.7,1.5-4.9v-10.2
		c0-0.8-0.1-1.5-0.2-2c-0.1-0.5-0.4-0.9-0.7-1.2c-0.3-0.3-0.8-0.5-1.4-0.6c-0.6-0.1-1.3-0.2-2.1-0.2h-5.7c-1.8,0-3,0.3-3.6,1v-0.1
		c-0.6,0.7-0.8,1.9-0.8,3.7v9.5c0,1.4,0.5,3,1.6,4.9h-9.1c1-2.2,1.5-3.9,1.5-4.9v-14.5c0-1.2-0.5-2.7-1.5-4.7h7.5v1.4
		c1.2-0.9,3-1.4,5.2-1.4h7.5c3,0,5,0.3,5.9,0.9v-0.1c1.2,0.8,1.9,2.7,1.9,5.7v12.6c0,1.3,0.5,3,1.4,4.9H3049.8z"/>
</g>
<path class="st6" d="M3037.2,317.3v-25.3h-34.1c-11,0-16.4,5-16.4,14.9v20.5c0,5.8,1.1,9.8,3.4,12c2.3,2.2,6.6,3.3,13,3.3h17.7
	c2.1,0,3.6,0,4.5,0c4.9,0,8.2-1.4,9.7-4.3C3036.5,335.4,3037.2,328.4,3037.2,317.3L3037.2,317.3z M3121.6,377.7H3045l-3.9-19.8
	c-2.1,7.4-5.3,12.6-9.3,15.4c-4.1,2.9-11.6,4.3-22.5,4.3h-55.1c-16.1,0-27.4-4-34-12c-6.5-8-9.8-21.9-9.8-41.8v-13.2
	c0-19.4,3.2-33.3,9.5-41.5c6.3-8.2,17.7-12.3,34.1-12.3h69.9c4.1,0,7.4-1.2,9.8-3.6c2.5-2.4,3.7-5.3,3.7-8.5c0-2.1-0.5-3.9-1.6-5.6
	c-2.4-3.5-6.3-5.2-11.9-5.2h-75.9c-11.1,0-21.4,2.5-30.8,7.6l5.5-42.7h140.1c18.5,0,31.6,5.1,39.5,15.3
	c7.8,10.2,11.8,27.5,11.8,52.1v78.1c0,11.6,0.5,19,1.6,22.4C3116.6,370.1,3118.6,373.7,3121.6,377.7L3121.6,377.7z M2895,243.4
	c-5.4-6.2-17.4-9.4-36.1-9.4h-43.8c-11.8,0-17.7,6.1-17.7,18.4v72.2c0,12,5.9,18,17.7,18h37.7c10.7,0,18.7-0.6,24-1.7
	c5.3-1.2,10.7-3.5,16.3-6.9l-5.2,43.7h-118.9c-32,0-48-18.5-48-55.5v-67.7c0-17.6,3.8-31.2,11.4-40.9c7.6-9.7,19.8-14.6,36.6-14.6
	h119.5L2895,243.4L2895,243.4z M2703.9,377.7h-93.4c2.8-4.9,4.8-10.2,6.1-16c1.3-5.8,1.9-14.1,1.9-25v-96.5
	c0-11.6-0.4-19.4-1.1-23.6c-0.8-4.2-3.1-10.1-6.9-17.7h85v137.8c0,11.3,0.4,19.3,1.3,23.8C2697.6,365,2700,370.7,2703.9,377.7
	L2703.9,377.7z M2598.1,377.7h-93.7c2.1-3.9,4.3-8,6.4-12.1c1.5-6.7,2.3-16.3,2.3-28.8v-87.8c0-5.8-0.8-9.7-2.4-11.8
	c-1.6-2.1-5.1-3.1-10.5-3.1h-28c-4.5,0-7.7,0.9-9.7,2.6c-1.9,1.7-2.9,5.8-2.9,12.3v87.8c0,11.3,0.4,19.3,1.3,23.8
	c0.9,4.5,3.2,10.2,7.1,17.2h-93.7c1.7-2.1,3.5-4.3,5.5-6.6c2.2-4.9,3.2-16.3,3.2-34.4v-96.5c0-10.9-0.4-18.4-1.3-22.7
	c-0.9-4.3-3.3-10.5-7.4-18.6h79.2l2.3,18.7c2.6-6.2,5-10.6,7.4-13.2c3.4-3.7,7.9-5.6,13.5-5.6h61.8c33.9,0,50.9,21.7,50.9,65.2v72.5
	c0,11.1,0.4,18.9,1.3,23.4C2591.5,364.6,2594,370.5,2598.1,377.7L2598.1,377.7z M2280.9,317.3v-25.3h-34.1c-11,0-16.4,5-16.4,14.9
	v20.5c0,5.8,1.1,9.8,3.4,12c2.3,2.2,6.6,3.3,13,3.3h17.7c2.1,0,3.7,0,4.5,0c4.9,0,8.2-1.4,9.7-4.3
	C2280.2,335.4,2280.9,328.4,2280.9,317.3L2280.9,317.3z M2365.3,377.7h-76.7l-3.9-19.8c-2.1,7.4-5.3,12.6-9.3,15.4
	c-4.1,2.9-11.6,4.3-22.5,4.3h-55.1c-16.1,0-27.4-4-34-12c-6.5-8-9.8-21.9-9.8-41.8v-13.2c0-19.4,3.2-33.3,9.4-41.5
	c6.3-8.2,17.7-12.3,34.1-12.3h69.8c4.1,0,7.4-1.2,9.8-3.6c2.5-2.4,3.7-5.3,3.7-8.5c0-2.1-0.5-3.9-1.6-5.6c-2.4-3.5-6.3-5.2-11.9-5.2
	h-75.9c-11.1,0-21.4,2.5-30.8,7.6l5.5-42.7h140.1c18.5,0,31.6,5.1,39.5,15.3c7.8,10.2,11.8,27.5,11.8,52.1v78.1
	c0,11.6,0.5,19,1.6,22.4C2360.3,370.1,2362.3,373.7,2365.3,377.7L2365.3,377.7z M2153.2,198.9c-3.2,6-6.5,12.8-10,20.5
	c-3.4,7.6-5.8,13.2-7.1,16.7l-49.3,141.6h-81.8l-59.9-159.3c-1.9-3.7-3.3-6.5-4.2-8.3c-3.2-6.5-5.3-10.2-6.1-11.1h92.6
	c0,3.9,0.2,8,0.6,12.4c0.4,4.3,1.4,8.7,2.9,13.4l39,106.9l38.2-110.8c1.3-3.2,1.9-6.7,1.9-10.4c0-3-0.6-6.8-1.9-11.5H2153.2
	L2153.2,198.9z M1858.3,328.4v-79.8c0-6.7-0.9-10.8-2.7-12.3c-1.8-1.5-4.9-2.3-9.2-2.3h-31.9c-1.9,0-3.3,0-4.2,0
	c-2.4,0-4.1,0.9-5.3,2.8c-1.2,1.8-1.8,5.8-1.8,11.8v79.8c0,9.5,3.8,14.2,11.3,14.2h31.9C1854.4,342.6,1858.3,337.9,1858.3,328.4
	L1858.3,328.4z M1934.7,323.9c0,19.2-2.9,32.7-8.7,40.6c-6.7,8.8-18.4,13.2-35.1,13.2h-120.2c-16.1,0-27.4-4-34-12
	c-6.5-8-9.8-21.9-9.8-41.8v-70.8c0-19.9,3.2-33.9,9.5-42c6.3-8.1,17.8-12.1,34.3-12.1h120.2c16.1,0,27.4,3.9,34,11.6
	c6.5,7.7,9.8,21.9,9.8,42.5V323.9L1934.7,323.9z M1722.9,377.7h-92.8l-35.4-83.3l-12.9,12.1v30.2c0,11.3,0.4,19.3,1.3,23.8
	c0.9,4.5,3.2,10.2,7.1,17.2h-93.7c1.7-2.1,3.5-4.3,5.5-6.6c2.2-4.9,3.2-16.3,3.2-34.4V127c0-9.5-0.5-16.7-1.5-21.7
	c-1-5-3.4-11.4-7.2-19.3h85.4v175.7l36.7-34.7c5.2-5.1,8.9-9.7,11.1-13.7c2.3-4,4-8.8,5.3-14.4h68.9c-3.9,2.3-6.8,3.9-8.7,4.9
	c-6.2,3.5-9.8,5.7-10.6,6.6l-33.5,30.5l50.3,100.3c6,11.8,11.3,21.3,15.8,28.5C1718.6,372.2,1720.5,374.9,1722.9,377.7z"/>
<path class="st1" d="M3022.7,331v-25.3h-34.1c-0.6,0-1.3,0-1.9,0.1c0.4-9.2,5.9-13.8,16.4-13.8h34.1v25.3c0,11.1-0.7,18.1-2.3,21
	c-1.5,2.9-4.7,4.3-9.7,4.3c-0.6,0-1.6,0-3,0C3022.6,339.4,3022.7,335.6,3022.7,331L3022.7,331z M3107.1,391.4h-76.7l-3.1-15.9
	c1.8-0.6,3.3-1.3,4.5-2.2c4.1-2.9,7.2-8,9.3-15.4l3.9,19.8h55.4c0.2,1.1,0.4,2.1,0.6,2.8C3102,383.8,3104.1,387.5,3107.1,391.4
	L3107.1,391.4z M3025,376.1c-4.1,1-9.3,1.5-15.8,1.5h-55.1c-16.1,0-27.4-4-34-12c-6.5-8-9.8-21.9-9.8-41.8v-13.2
	c0-15.7,2.1-27.8,6.2-36.2c-4.8,2-8.5,4.8-11.3,8.5c-6.3,8.2-9.4,22-9.4,41.5v13.2c0,19.9,3.3,33.8,9.8,41.8c6.6,8,17.9,12,34,12
	h55.1c11,0,18.5-1.4,22.5-4.3C3020.4,384.8,3023,381.2,3025,376.1L3025,376.1z M3022.6,256.9c-0.2-1.4-0.7-2.8-1.5-3.9
	c-2.4-3.5-6.3-5.2-11.9-5.2h-75.9c-11.1,0-21.4,2.5-30.8,7.6l5.5-42.7h12.8l-3.7,28.9c9.4-5.1,19.7-7.6,30.8-7.6h75.9
	c5.6,0,9.5,1.7,11.9,5.2c1.1,1.6,1.6,3.5,1.6,5.6c0,3.2-1.2,6.1-3.7,8.5c-2.4,2.4-5.7,3.6-9.8,3.6H3022.6L3022.6,256.9z
	 M2880.5,257.1c-5.4-6.2-17.4-9.4-36.1-9.4h-43.8c-1,0-1.9,0-2.9,0.1c1.3-9.3,7.1-13.9,17.4-13.9h43.8c7.1,0,13.2,0.4,18.4,1.3
	L2880.5,257.1L2880.5,257.1z M2875,377.7h-105.9c-32,0-48-18.5-48-55.5v-67.7c0-15.1,2.8-27.3,8.5-36.7c-4.6,2.3-8.5,5.5-11.6,9.5
	c-7.6,9.7-11.4,23.4-11.4,40.9v67.7c0,37,16,55.5,48,55.5h118.9L2875,377.7L2875,377.7z M2689.3,391.4h-93.4
	c2.8-4.9,4.8-10.2,6.1-16c1.3-5.8,1.9-14.1,1.9-25V254c0-11.6-0.4-19.4-1.1-23.6c-0.8-4.2-3.1-10.1-6.9-17.7h20.5
	c0.5,1.5,0.8,2.8,1,4c0.7,4.2,1.1,12,1.1,23.6v96.5c0,10.9-0.6,19.2-1.9,25c-1.3,5.8-3.3,11.1-6.1,16h72.7
	C2684.3,381.5,2686.4,386.1,2689.3,391.4L2689.3,391.4z M2583.5,391.4h-93.7c2.1-3.9,4.3-8,6.4-12.1c1.5-6.7,2.3-16.3,2.3-28.8
	v-87.8c0-5.8-0.8-9.7-2.4-11.8c-1.6-2.1-5.1-3.1-10.5-3.1h-26c0.1-5.8,1.1-9.5,2.9-11.1c1.9-1.7,5.2-2.6,9.7-2.6h28
	c5.4,0,8.9,1,10.5,3.1c1.6,2.1,2.4,6,2.4,11.8v87.8c0,12.5-0.7,22.1-2.3,28.8c-2.1,4.2-4.3,8.2-6.4,12.1h72.8
	C2578.4,381.5,2580.5,386.1,2583.5,391.4L2583.5,391.4z M2447.2,377.7c1.2,3.9,3.3,8.5,6.2,13.7h-93.7c1.7-2.1,3.5-4.3,5.5-6.6
	c2.1-4.9,3.2-16.3,3.2-34.4V254c0-10.9-0.4-18.5-1.3-22.7c-0.9-4.3-3.3-10.5-7.4-18.6h20.6c0.6,1.8,1.1,3.4,1.4,4.8
	c0.9,4.3,1.3,11.9,1.3,22.7v96.5c0,18-1.1,29.5-3.2,34.4c-1.9,2.3-3.8,4.5-5.5,6.6H2447.2L2447.2,377.7z M2455.2,213.8
	c0.8-0.3,1.6-0.5,2.5-0.7c-0.7,1.4-1.3,2.9-2,4.6L2455.2,213.8L2455.2,213.8z M2266.4,331v-25.3h-34.1c-0.6,0-1.3,0-1.9,0.1
	c0.4-9.2,5.9-13.8,16.4-13.8h34.1v25.3c0,11.1-0.8,18.1-2.3,21c-1.5,2.9-4.7,4.3-9.7,4.3c-0.6,0-1.6,0-3,0
	C2266.3,339.4,2266.4,335.6,2266.4,331L2266.4,331z M2350.8,391.4h-76.7l-3.1-15.9c1.8-0.6,3.3-1.3,4.5-2.2c4.1-2.9,7.2-8,9.3-15.4
	l3.9,19.8h55.4c0.2,1.1,0.4,2.1,0.6,2.8C2345.7,383.8,2347.8,387.5,2350.8,391.4L2350.8,391.4z M2268.7,376.1
	c-4.1,1-9.3,1.5-15.8,1.5h-55.1c-16.1,0-27.4-4-34-12c-6.5-8-9.8-21.9-9.8-41.8v-13.2c0-15.7,2.1-27.8,6.2-36.2
	c-4.8,2-8.5,4.8-11.3,8.5c-6.3,8.2-9.4,22-9.4,41.5v13.2c0,19.9,3.3,33.8,9.8,41.8c6.6,8,17.9,12,34,12h55.1c11,0,18.5-1.4,22.5-4.3
	C2264.1,384.8,2266.7,381.2,2268.7,376.1L2268.7,376.1z M2266.3,256.9c-0.2-1.4-0.7-2.8-1.5-3.9c-2.4-3.5-6.3-5.2-11.9-5.2H2177
	c-11.1,0-21.4,2.5-30.8,7.6l5.5-42.7h12.8l-3.7,28.9c9.4-5.1,19.6-7.6,30.8-7.6h75.9c5.6,0,9.5,1.7,11.9,5.2
	c1.1,1.6,1.6,3.5,1.6,5.6c0,3.2-1.2,6.1-3.7,8.5c-2.4,2.4-5.7,3.6-9.8,3.6H2266.3L2266.3,256.9z M2077.1,377.7l-4.8,13.7h-81.8
	l-56.2-149.3c-0.9-13.2-3.5-23-7.9-29.4h15.8c0.8,1.6,1.7,3.5,2.9,5.7l59.9,159.3H2077.1L2077.1,377.7z M2064.9,317.7l5,13.8
	l38.2-110.8c1-2.6,1.6-5.3,1.8-8.1h-16.4c1.3,4.6,1.9,8.4,1.9,11.5c0,3.7-0.6,7.2-1.9,10.4L2064.9,317.7L2064.9,317.7z
	 M1843.8,342.1v-79.8c0-6.7-0.9-10.8-2.7-12.3c-1.8-1.5-4.9-2.3-9.2-2.3h-28.6c0.1-5.5,0.6-9.2,1.8-11c1.2-1.9,3-2.8,5.3-2.8
	c0.9,0,2.3,0,4.2,0h31.9c4.3,0,7.4,0.8,9.2,2.3c1.8,1.5,2.7,5.6,2.7,12.3v79.8c0,9.5-4,14.2-11.9,14.2h-2.6
	C1843.8,342.4,1843.8,342.3,1843.8,342.1L1843.8,342.1z M1914.2,373.5c-6.2,2.7-14,4.1-23.4,4.1h-120.2c-16.1,0-27.4-4-34-12
	c-6.6-8-9.8-21.9-9.8-41.8v-70.8c0-16,2-28.1,6.1-36.5c-4.7,2-8.4,4.7-11.2,8.3c-6.3,8.1-9.5,22.1-9.5,42v70.8
	c0,12.8,1.3,23.1,4,30.9c0.2,0.4,0.5,0.8,0.7,1.1c1.5,2.5,3.4,5.2,5.8,8h-2.1c0.4,0.6,0.9,1.2,1.3,1.8c6.6,8,17.9,12,34,12h120.2
	c16.7,0,28.5-4.4,35.1-13.2C1912.5,376.8,1913.4,375.3,1914.2,373.5L1914.2,373.5z M1708.4,391.4h-92.8l-33.8-79.4v-5.5l12.9-12.1
	l35.4,83.3h68.9c1.2,2.1,2.4,4,3.5,5.8C1704.1,386,1706,388.6,1708.4,391.4L1708.4,391.4z M1569.4,377.7c1.2,3.9,3.3,8.5,6.2,13.7
	h-93.7c1.7-2.1,3.5-4.3,5.5-6.6c2.1-4.9,3.2-16.3,3.2-34.4V140.7c0-9.5-0.5-16.7-1.5-21.7c-1-5-3.4-11.4-7.2-19.3h20.3
	c0.7,2,1.1,3.8,1.5,5.5c1,5,1.5,12.2,1.5,21.7v209.8c0,18-1.1,29.5-3.2,34.4c-1.9,2.3-3.8,4.5-5.5,6.6H1569.4L1569.4,377.7z
	 M1581.8,261.8l22.2-21c5.2-5.1,8.9-9.7,11.1-13.7c2.3-4,4-8.8,5.3-14.4h9.6c-0.1,0.2-0.2,0.4-0.4,0.7c-2.3,4.1-6,8.6-11.1,13.7
	L1581.8,261.8L1581.8,261.8L1581.8,261.8z M1682.1,212.7h7.3c-3.9,2.3-6.8,3.9-8.7,4.9c-6.2,3.5-9.8,5.7-10.6,6.6l-18.8,17.1
	l-0.2-0.3L1682.1,212.7z"/>
<path class="st7" d="M602.7,101.6v49.9c2.7-5.4,8.8-8.2,18-8.3h42.4c13.6-0.4,23.7,3.2,30.2,10.8c4.6,5.4,7.1,13.4,7.4,23.9V222
	c0.2,12.6-2.8,22.1-8.8,28.7c-3.4,3.7-7.6,6.4-12.6,8.1c-5,1.7-11.3,2.6-18.8,2.6H623c-12.3-0.2-19.9-4-22.8-11.1l-2,11.1h-58.1
	c2-3.7,3.3-7.3,3.9-10.8c0.6-3.6,0.9-9.9,0.9-18.9V131.3c0-9-0.3-15.3-0.9-18.9c-0.6-3.6-1.9-7.2-3.9-10.8H602.7L602.7,101.6z
	 M602.7,176.6v51.3c-0.1,7.6,4.2,11.3,13,11.1h14.4c4.8,0,8.2-0.9,10-2.8c1.8-1.9,2.8-5.3,2.8-10.2v-47.5c0-5-0.9-8.4-2.8-10.2
	c-1.8-1.8-5.2-2.8-10-2.8h-14.4C607,165.4,602.6,169.1,602.7,176.6L602.7,176.6z M727.7,143.1h107.7c8.1,0,14.1,0.6,18,1.7
	c3.9,1.2,7.7,3.4,11.4,6.9c7.3,6.8,10.8,15.2,10.7,25.3v54.8c0,9,0.3,15.2,0.9,18.8c0.6,3.6,1.9,7.2,3.9,10.8h-57.5
	c-1.7-3.2-2.9-7.4-3.5-12.5c-1.2,4.3-3.6,7.5-7,9.5c-3.4,2-8.2,3-14.3,3h-43.2c-7.3,0-12.8-0.5-16.6-1.4c-3.8-1-7.3-2.7-10.4-5.2
	c-3.2-2.7-5.6-6.1-7.1-10.2c-1.5-4.2-2.3-9.4-2.3-15.7v-20c0-8.8,2.6-15.6,7.7-20.3c5.2-4.7,12.6-7,22.4-7h55c5-0.1,8.2-0.4,9.7-0.8
	c2.8-1,4.2-3.6,4.2-7.7c0-3-0.9-5-2.6-6c-1.8-1.1-5.1-1.6-10-1.6h-56.2c-9.7-0.2-17.9,1.7-24.8,5.6L727.7,143.1L727.7,143.1z
	 M817.6,204h-27.8c-5.2,0-8.7,1.1-10.7,3.2c-2,2.2-2.9,6.1-2.9,11.8v5.1c0,5.6,1,9.5,2.9,11.7c2,2.1,5.5,3.2,10.7,3.2h14.1
	c5.2,0,8.8-1.1,10.8-3.2c2-2.2,2.9-6,2.9-11.7V204L817.6,204z M952.9,143.1l2.4,11.8c2.4-4.5,5.1-7.6,8.1-9.3
	c3-1.7,7.3-2.5,12.9-2.5h43.3c6.9,0,12.4,0.8,16.6,2.4c4.2,1.6,8.1,4.2,11.6,8.1c3.4,3.8,5.7,7.8,7.1,12.2c1.4,4.4,2.1,9.9,2.1,16.5
	v49.4c0,9.1,0.3,15.3,0.9,18.9c0.6,3.6,1.9,7.2,3.9,10.8h-67.4c2-3.6,3.3-7.2,3.9-10.7c0.6-3.6,0.9-9.9,0.9-19v-51.4
	c0-6-0.8-9.9-2.4-11.9c-1.6-1.9-4.9-2.9-9.9-2.9h-17.8c-3.8,0-6.5,0.8-8,2.5c-1.5,1.7-2.2,4.7-2.2,9.1v54.5c0,9,0.3,15.3,0.9,18.9
	c0.6,3.6,1.9,7.2,3.9,10.9h-67.4c2-3.7,3.3-7.3,3.9-10.8c0.6-3.6,0.9-9.8,0.9-18.9v-58.9c0-9-0.3-15.3-0.9-18.9
	c-0.6-3.6-1.9-7.2-3.9-10.8H952.9L952.9,143.1z M1150.1,206.4l-11,8.6v16.7c0,9,0.3,15.3,0.9,18.9c0.6,3.6,1.9,7.2,3.9,10.8h-67.4
	c2-3.7,3.3-7.3,3.9-10.8c0.6-3.6,0.9-9.9,0.9-18.9V131.3c0-9-0.3-15.3-0.9-18.9c-0.6-3.6-1.9-7.2-3.9-10.8h62.6v84.2l30.3-25.3
	c3-2.4,5.6-5.2,7.5-8.2c2-3,3-5.5,3-7.4c0-0.4,0-1-0.1-1.8h53.3c-7.3,3.1-13.7,6.5-19,10.1c-5.3,3.6-12.2,9.2-20.5,16.8l39.6,69
	c3.1,5.3,5.8,9.5,8.2,12.5c2.4,3,5.6,6.3,9.5,9.8H1179L1150.1,206.4L1150.1,206.4z M1263.7,143.1h107.7c8.1,0,14.1,0.6,18,1.7
	c3.9,1.2,7.7,3.4,11.4,6.9c7.3,6.8,10.8,15.2,10.7,25.3v54.8c0,9,0.3,15.2,0.9,18.8c0.6,3.6,1.9,7.2,3.9,10.8h-57.5
	c-1.7-3.2-2.9-7.4-3.5-12.5c-1.2,4.3-3.6,7.5-7,9.5c-3.4,2-8.2,3-14.3,3h-43.2c-7.3,0-12.8-0.5-16.6-1.4c-3.8-1-7.3-2.7-10.4-5.2
	c-3.2-2.7-5.6-6.1-7.1-10.2c-1.5-4.2-2.3-9.4-2.3-15.7v-20c0-8.8,2.6-15.6,7.7-20.3c5.2-4.7,12.6-7,22.4-7h55c5-0.1,8.2-0.4,9.7-0.8
	c2.8-1,4.2-3.6,4.2-7.7c0-3-0.9-5-2.6-6c-1.8-1.1-5.1-1.6-10-1.6h-56.2c-9.7-0.2-17.9,1.7-24.8,5.6L1263.7,143.1L1263.7,143.1z
	 M1353.6,204h-27.8c-5.2,0-8.7,1.1-10.7,3.2c-2,2.2-2.9,6.1-2.9,11.8v5.1c0,5.6,1,9.5,2.9,11.7c2,2.1,5.5,3.2,10.7,3.2h14.1
	c5.2,0,8.8-1.1,10.8-3.2c2-2.2,2.9-6,2.9-11.7V204z"/>
<path class="st0" d="M684.3,256.7c-1.2,2.1-2.5,4.1-4.1,5.8c-3.4,3.7-7.6,6.4-12.6,8.1c-5,1.7-11.3,2.6-18.8,2.6h-37.6
	c-12.3-0.2-19.9-4-22.8-11.1l-2,11.1h-58.1c2-3.7,3.3-7.3,3.9-10.8c0.6-3.6,0.9-9.9,0.9-18.9V143.1c0-9-0.3-15.3-0.9-18.9
	c-0.6-3.6-1.9-7.2-3.9-10.8h15.8c0.5,3.7,0.7,9.7,0.7,18v100.3c0,9-0.3,15.3-0.9,18.9c-0.6,3.6-1.9,7.2-3.9,10.8h58.1l1.9-10.9
	c0.1,0,0.1,0,0.2,0c3,7,10.5,10.6,22.7,10.8h37.6c7.5,0,13.7-0.8,18.8-2.6C681.1,258.2,682.7,257.5,684.3,256.7L684.3,256.7z
	 M631.1,239c4.3-0.1,7.3-1,9-2.8c1.8-1.9,2.8-5.3,2.8-10.2v-47.5c0-5-0.9-8.4-2.8-10.2c-1.8-1.8-5.2-2.8-10-2.8h-14.4
	c-8.8-0.2-13.1,3.6-13,11.1v0.6c0.4,0,0.8,0,1.3,0h14.4c4.8,0,8.2,0.9,10,2.8c1.8,1.8,2.8,5.2,2.8,10.2v47.5
	C631.1,238.2,631.1,238.6,631.1,239L631.1,239z M716,154.9h10.1l-2.3,16.3c6.9-3.9,15.1-5.8,24.8-5.6h56.2c4.9,0,8.2,0.5,10,1.6
	c1.8,1,2.6,3,2.6,6c0,4.2-1.4,6.7-4.2,7.7c-1.3,0.4-4,0.7-8,0.8c-0.4-1.2-1.2-2.2-2.2-2.8c-1.8-1.1-5.1-1.6-10-1.6h-56.2
	c-9.7-0.2-17.9,1.7-24.8,5.6L716,154.9L716,154.9z M864.5,261.4c0,0.3,0.1,0.6,0.1,0.9c0.6,3.6,1.9,7.2,3.9,10.8h-57.5
	c-1.7-3.2-2.9-7.4-3.5-12.5c-1.2,4.3-3.6,7.5-7,9.5c-3.4,2-8.2,3-14.3,3h-43.2c-7.3,0-12.8-0.5-16.6-1.4c-3.8-1-7.3-2.7-10.4-5.2
	c-3.2-2.7-5.6-6.1-7.1-10.2c-1.5-4.2-2.3-9.4-2.3-15.7v-20c0-8.8,2.6-15.6,7.7-20.3c1.8-1.6,3.9-3,6.3-4.1
	c-1.5,3.6-2.3,7.8-2.3,12.6v20c0,6.3,0.8,11.5,2.3,15.7c1.5,4.2,3.9,7.6,7.1,10.2c3.1,2.5,6.6,4.2,10.4,5.2
	c3.8,0.9,9.3,1.4,16.6,1.4H798c6.1,0,10.8-1,14.3-3c3.4-2,5.8-5.2,7-9.5c0.6,5.2,1.8,9.4,3.5,12.5H864.5L864.5,261.4z M805.9,215.8
	v20.1c0,1.1,0,2.1-0.1,3.1c4.2-0.2,7.2-1.3,8.9-3.1c2-2.2,2.9-6,2.9-11.7V204h-27.8c-5.2,0-8.7,1.1-10.7,3.2
	c-1.6,1.7-2.5,4.6-2.8,8.6c0.6,0,1.1,0,1.7,0H805.9L805.9,215.8z M1046,261.4c0,0.3,0.1,0.6,0.1,0.9c0.6,3.6,1.9,7.2,3.9,10.8h-67.4
	c2-3.6,3.3-7.2,3.9-10.7c0.6-3.6,0.9-9.9,0.9-19V192c0-6-0.8-9.9-2.4-11.9c-1.6-1.9-4.9-2.9-9.9-2.9h-16.2v-0.2
	c0-4.4,0.8-7.4,2.2-9.1c1.5-1.7,4.1-2.5,8-2.5h17.8c5,0,8.3,1,9.9,2.9c1.6,1.9,2.4,5.9,2.4,11.9v51.4c0,9.1-0.3,15.4-0.9,19
	c-0.6,3.6-1.9,7.2-3.9,10.7H1046L1046,261.4z M948,261.4c0,0.3,0.1,0.6,0.1,0.9c0.6,3.6,1.9,7.2,3.9,10.9h-67.4
	c2-3.7,3.3-7.3,3.9-10.8c0.6-3.6,0.9-9.8,0.9-18.9v-58.9c0-9-0.3-15.3-0.9-18.9c-0.6-3.6-1.9-7.2-3.9-10.8h15.8
	c0.5,3.7,0.7,9.7,0.7,17.9v58.9c0,9.1-0.3,15.3-0.9,18.9c-0.6,3.6-1.9,7.2-3.9,10.8H948L948,261.4z M1128.1,261.4
	c0,0.3,0.1,0.6,0.1,0.9c0.6,3.6,1.9,7.2,3.9,10.8h-67.4c2-3.7,3.3-7.3,3.9-10.8c0.6-3.6,0.9-9.9,0.9-18.9V143.1
	c0-9-0.3-15.3-0.9-18.9c-0.6-3.6-1.9-7.2-3.9-10.8h15.8c0.5,3.7,0.7,9.7,0.7,18v100.3c0,9-0.3,15.3-0.9,18.9
	c-0.6,3.6-1.9,7.2-3.9,10.8H1128.1L1128.1,261.4z M1165.3,163.9c1.9-2.9,2.9-5.3,2.9-7.3c0-0.4,0-1-0.1-1.8h7
	c-1.6,2-3.5,3.9-5.7,5.6L1165.3,163.9L1165.3,163.9z M1211.9,154.9h9.6c-7.3,3.1-13.7,6.5-19,10.1c-2.4,1.6-5.1,3.7-8.2,6.2
	l-0.6-1.1C1200.8,163.5,1206.9,158.5,1211.9,154.9L1211.9,154.9z M1228.2,261.4c0.5,0.7,1,1.4,1.5,2c2.4,3,5.6,6.3,9.5,9.8h-71.9
	l-28.2-53.6v-4.6l11-8.6l28.9,55H1228.2L1228.2,261.4z M1251.9,154.9h10.1l-2.3,16.3c6.9-3.9,15.1-5.8,24.8-5.6h56.2
	c4.9,0,8.2,0.5,10,1.6c1.8,1,2.6,3,2.6,6c0,4.2-1.4,6.7-4.2,7.7c-1.3,0.4-4,0.7-8,0.8c-0.4-1.2-1.2-2.2-2.2-2.8
	c-1.8-1.1-5.1-1.6-10-1.6h-56.2c-9.7-0.2-17.9,1.7-24.8,5.6L1251.9,154.9L1251.9,154.9z M1400.4,261.4c0,0.3,0.1,0.6,0.1,0.9
	c0.6,3.6,1.9,7.2,3.9,10.8H1347c-1.7-3.2-2.9-7.4-3.5-12.5c-1.2,4.3-3.6,7.5-7,9.5c-3.4,2-8.2,3-14.3,3H1279
	c-7.3,0-12.8-0.5-16.6-1.4c-3.8-1-7.3-2.7-10.4-5.2c-1.8-1.5-3.3-3.2-4.6-5.2h3.6c-2.5-2.2-4.6-4.2-6.5-6.2c-1.3-4-1.9-8.8-1.9-14.5
	v-20c0-8.8,2.6-15.6,7.7-20.3c1.8-1.6,3.9-3,6.3-4.1c-1.5,3.6-2.3,7.8-2.3,12.6v20c0,6.3,0.8,11.5,2.3,15.7
	c1.5,4.2,3.9,7.6,7.1,10.2c3.1,2.5,6.6,4.2,10.4,5.2c3.8,0.9,9.3,1.4,16.6,1.4h43.2c6.1,0,10.8-1,14.3-3c3.4-2,5.8-5.2,7-9.5
	c0.6,5.2,1.8,9.4,3.5,12.5H1400.4L1400.4,261.4z M1341.8,215.8v20.1c0,1.1,0,2.1-0.1,3.1c4.2-0.2,7.2-1.3,8.9-3.1
	c2-2.2,2.9-6,2.9-11.7V204h-27.9c-5.2,0-8.7,1.1-10.7,3.2c-1.6,1.7-2.5,4.6-2.8,8.6c0.6,0,1.1,0,1.7,0H1341.8z"/>
</svg>
