<?xml version="1.0" encoding="utf-8"?>
<!-- Generator: Adobe Illustrator 21.0.0, SVG Export Plug-In . SVG Version: 6.00 Build 0)  -->
<svg version="1.1" id="Layer_1" xmlns="http://www.w3.org/2000/svg" xmlns:xlink="http://www.w3.org/1999/xlink" x="0px" y="0px"
	 viewBox="0 0 945.1 165.3" style="enable-background:new 0 0 945.1 165.3;" xml:space="preserve">
<style type="text/css">
	.st0{fill:#ED1C24;}
	.st1{fill:none;stroke:#000000;stroke-width:0.216;stroke-miterlimit:2.6131;}
</style>
<g>
	<polygon class="st0" points="0,133 0,32.1 28.5,32.1 28.5,109.2 75.6,109.2 75.6,133 	"/>
	<polygon class="st0" points="88.3,133 88.3,32.1 114.6,32.1 114.6,133 	"/>
	<path class="st0" d="M131.7,133V32.1h54.9c9.5,0,16.7,2.1,21.4,6.3c4.8,4.2,7.1,10.5,7.1,18.9c0,4.9-1,9.2-2.9,13
		c-2,3.8-3.5,6.8-7.3,9.1c4.9,1.9,8.6,4.9,11.1,9.1s3.7,9.4,3.7,15.7c0,9-3.7,16-8.6,21.1s-11.7,7.7-20.3,7.7L131.7,133L131.7,133z
		 M174.9,51.7L174.9,51.7h-16.1v20.8h16.1c5.7,0,9.5-0.8,11.7-2.3c2.1-1.5,3.2-4.2,3.2-8c0-3.7-1.1-6.4-3.4-8
		C184.1,52.5,180.3,51.7,174.9,51.7L174.9,51.7z M158.8,112.9L158.8,112.9h19.3c5.7,0,9.6-0.8,11.7-2.5c2.1-1.6,3.1-4.5,3.1-8.6
		s-1.2-7-3.4-8.9c-2.3-1.8-6.1-2.7-11.4-2.7h-19.3L158.8,112.9L158.8,112.9z"/>
	<path class="st0" d="M233.2,133V32.1H286c11.5,0,19.9,2.2,25.3,6.6s8.1,11.3,8.1,20.5c0,5.9-1.3,11.1-3.8,15.7
		c-2.5,4.5-6,7.8-10.5,9.8c3.8,1.9,8.4,4.2,9.9,6.9c1.5,2.8,2.4,7.6,2.7,14.6c0,0.7,0.1,1.6,0.1,2.8c0.5,12.5,2,20.5,4.5,23.9h-28
		c-0.6-1.1-1-2.3-1.3-3.6c-0.3-1.3-0.4-2.7-0.4-4.2v-6.8c0-9.3-1-15.3-3-18.2c-2-2.9-4.1-4.3-10-4.3h-0.5h-19.2V133H233.2L233.2,133
		z M259.9,75.2L259.9,75.2h16c6.4,0,11-0.9,13.6-2.8c2.6-1.8,3.9-4.2,3.9-8.5c0-4.1-1.2-7-3.7-8.6c-2.4-1.6-7.4-2.5-14.8-2.5h-15
		V75.2L259.9,75.2z"/>
	<path class="st0" d="M323.5,133l38.2-100.9h25.9L425.7,133H398l-4.6-18.8h-35.6l-5.5,18.8H323.5L323.5,133z M364.2,91.3H385
		l-10.1-31.2L364.2,91.3L364.2,91.3z"/>
	<polygon points="634.1,75 643.9,75 643.9,31.6 634.1,31.6 	"/>
	<polygon points="652.6,75 661.9,75 661.9,46 662,46 680.8,75 690.6,75 690.6,31.6 681.4,31.6 681.4,60.7 681.3,60.7 662.5,31.6 
		652.6,31.6 	"/>
	<polygon points="709.3,75 719.2,75 719.2,39.7 732.7,39.7 732.7,31.6 695.8,31.6 695.8,39.7 709.3,39.7 	"/>
	<polygon points="737.9,75 772,75 772,67 747.7,67 747.7,56.4 769.6,56.4 769.6,49 747.7,49 747.7,39.7 771.5,39.7 771.5,31.6 
		737.9,31.6 	"/>
	<path d="M778.7,75h9.9V58.1h9.9c1.6,0,3,0.2,4,0.7s1.8,1.2,2.4,2.1c0.5,1,0.9,2.2,1.1,3.7c0.2,1.2,0.3,2.4,0.4,3.6
		c0.1,1.2,0.2,2.5,0.4,3.6c0.2,1.2,0.4,2.2,0.8,3.1h9.9c-0.4-0.6-0.8-1.4-1-2.2c-0.2-0.9-0.4-1.8-0.5-2.8s-0.2-1.9-0.2-2.8
		s-0.1-1.7-0.1-2.4c-0.1-1.1-0.2-2.2-0.5-3.3c-0.2-1.1-0.6-2.1-1.1-3s-1.1-1.7-2-2.4c-0.8-0.7-1.8-1.2-3-1.5v-0.1
		c2.5-1,4.3-2.4,5.4-4.3c1.1-1.9,1.7-4.1,1.7-6.6c0-1.7-0.3-3.2-0.9-4.6c-0.6-1.4-1.5-2.7-2.6-3.8c-1.1-1.1-2.5-2-4.1-2.6
		c-1.6-0.6-3.4-0.9-5.5-0.9h-24.3V75H778.7z M788.6,39.1h10.8c2.2,0,3.9,0.5,5.1,1.4c1.2,1,1.7,2.5,1.7,4.6c0,2.2-0.6,3.7-1.7,4.7
		c-1.2,1-2.8,1.5-5.1,1.5h-10.8V39.1L788.6,39.1z"/>
	<polygon points="824.2,75 833.5,75 833.5,46 833.6,46 852.3,75 862.2,75 862.2,31.6 852.9,31.6 852.9,60.7 852.8,60.7 834,31.6 
		824.2,31.6 	"/>
	<polygon points="870.9,75 905.1,75 905.1,67 880.8,67 880.8,56.4 902.6,56.4 902.6,49 880.8,49 880.8,39.7 904.6,39.7 904.6,31.6 
		870.9,31.6 	"/>
	<polygon points="921.7,75 931.6,75 931.6,39.7 945.1,39.7 945.1,31.6 908.2,31.6 908.2,39.7 921.7,39.7 	"/>
	<path class="st1" d="M634.1,75h9.9V31.6h-9.9V75L634.1,75z M652.6,75h9.3V46h0.1l18.7,29h9.9V31.6h-9.3v29.1h-0.1l-18.8-29.1h-9.8
		L652.6,75L652.6,75z M709.3,75h9.9V39.6h13.5v-8h-36.9v8h13.5V75L709.3,75z M737.9,75H772v-8h-24.3V56.4h21.8V49h-21.8v-9.3h23.8
		v-8h-33.7V75H737.9z M778.7,75h9.9V58.1h9.9c1.6,0,3,0.2,4,0.7s1.8,1.2,2.4,2.1c0.5,1,0.9,2.2,1.1,3.7c0.2,1.2,0.3,2.4,0.4,3.6
		c0.1,1.2,0.2,2.5,0.4,3.6c0.2,1.2,0.4,2.2,0.8,3.1h9.9c-0.4-0.6-0.8-1.4-1-2.2c-0.2-0.9-0.4-1.8-0.5-2.8s-0.2-1.9-0.2-2.8
		s-0.1-1.7-0.1-2.4c-0.1-1.1-0.2-2.2-0.5-3.3c-0.2-1.1-0.6-2.1-1.1-3s-1.1-1.7-2-2.4c-0.8-0.7-1.8-1.2-3-1.5v-0.1
		c2.5-1,4.3-2.4,5.4-4.3c1.1-1.9,1.7-4.1,1.7-6.6c0-1.7-0.3-3.2-0.9-4.6c-0.6-1.4-1.5-2.7-2.6-3.8c-1.1-1.1-2.5-2-4.1-2.6
		c-1.6-0.6-3.4-0.9-5.5-0.9h-24.3V75H778.7z M788.6,39.1h10.8c2.2,0,3.9,0.5,5.1,1.4c1.2,1,1.7,2.5,1.7,4.6c0,2.2-0.6,3.7-1.7,4.7
		c-1.2,1-2.8,1.5-5.1,1.5h-10.8V39.1L788.6,39.1z M824.2,75h9.3V46h0.1l18.7,29h9.9V31.6h-9.3v29.1h-0.1L834,31.6h-9.8V75L824.2,75z
		 M870.9,75h34.2v-8h-24.3V56.4h21.8V49h-21.8v-9.3h23.8v-8h-33.7V75L870.9,75z M921.7,75h9.9V39.6h13.5v-8h-36.9v8h13.5V75
		L921.7,75z"/>
	<path d="M643.6,114.2h10.5c1.4,0,2.6,0.2,3.6,0.6s1.8,1.1,2.4,2c0.6,0.9,0.9,2.1,0.9,3.6c0,1.1-0.2,2-0.6,2.8
		c-0.4,0.7-0.9,1.3-1.6,1.8c-0.7,0.4-1.4,0.7-2.3,0.9c-0.9,0.2-1.8,0.3-2.7,0.3h-10.3L643.6,114.2L643.6,114.2z M633.9,133.5h21.3
		c1.6,0,3.1-0.2,4.7-0.5c1.5-0.3,2.9-0.8,4.2-1.4s2.4-1.5,3.4-2.4c1-1,1.8-2.2,2.3-3.5c0.6-1.4,0.8-2.9,0.9-4.7
		c0-1.8-0.3-3.5-0.9-4.9c-0.6-1.5-1.5-2.7-2.7-3.8c-1.2-1-2.7-1.8-4.5-2.3c1.9-0.9,3.4-2.1,4.4-3.6s1.5-3.3,1.5-5.4
		c0-2-0.3-3.7-1-5.1s-1.6-2.5-2.9-3.3c-1.2-0.8-2.7-1.4-4.4-1.8s-3.6-0.6-5.7-0.5h-20.6V133.5L633.9,133.5z M643.6,97.6h9
		c0.9,0,1.7,0.1,2.5,0.2s1.5,0.4,2.1,0.7c0.6,0.4,1.1,0.9,1.5,1.5c0.4,0.7,0.5,1.5,0.6,2.5c0,1.2-0.3,2.2-0.8,3s-1.2,1.3-2.1,1.7
		c-0.9,0.4-1.9,0.5-3,0.5h-9.8V97.6L643.6,97.6z"/>
	<path d="M672.5,133.5h9.8l3.4-9.7h16.4l3.3,9.7h10L699,90.1h-9.9L672.5,133.5L672.5,133.5z M694,100.8L694,100.8l5.6,15.9h-11.4
		L694,100.8L694,100.8z"/>
	<polygon points="719.3,133.5 728.3,133.5 728.3,104.5 728.5,104.5 746.7,133.5 756.4,133.5 756.4,90.2 747.3,90.2 747.3,119.2 
		747.2,119.2 728.9,90.2 719.3,90.2 	"/>
	<polygon points="764.8,133.5 774.5,133.5 774.5,119.6 780,114 793.2,133.5 805.3,133.5 786.5,107.3 803.7,90.2 791.6,90.2 
		774.5,108.1 774.5,90.2 764.8,90.2 	"/>
	<path class="st1" d="M643.6,114.2h10.5c1.4,0,2.6,0.2,3.6,0.6s1.8,1.1,2.4,2c0.6,0.9,0.9,2.1,0.9,3.6c0,1.1-0.2,2-0.6,2.8
		c-0.4,0.7-0.9,1.3-1.6,1.8c-0.7,0.4-1.4,0.7-2.3,0.9c-0.9,0.2-1.8,0.3-2.7,0.3h-10.3L643.6,114.2L643.6,114.2z M633.9,133.5h21.3
		c1.6,0,3.1-0.2,4.7-0.5c1.5-0.3,2.9-0.8,4.2-1.4s2.4-1.5,3.4-2.4c1-1,1.8-2.2,2.3-3.5c0.6-1.4,0.8-2.9,0.9-4.7
		c0-1.8-0.3-3.5-0.9-4.9c-0.6-1.5-1.5-2.7-2.7-3.8c-1.2-1-2.7-1.8-4.5-2.3c1.9-0.9,3.4-2.1,4.4-3.6s1.5-3.3,1.5-5.4
		c0-2-0.3-3.7-1-5.1s-1.6-2.5-2.9-3.3c-1.2-0.8-2.7-1.4-4.4-1.8s-3.6-0.6-5.7-0.5h-20.6V133.5L633.9,133.5z M643.6,97.6h9
		c0.9,0,1.7,0.1,2.5,0.2s1.5,0.4,2.1,0.7c0.6,0.4,1.1,0.9,1.5,1.5c0.4,0.7,0.5,1.5,0.6,2.5c0,1.2-0.3,2.2-0.8,3s-1.2,1.3-2.1,1.7
		c-0.9,0.4-1.9,0.5-3,0.5h-9.8V97.6L643.6,97.6z M672.5,133.5h9.8l3.4-9.7h16.4l3.3,9.7h10L699,90.1h-9.9L672.5,133.5L672.5,133.5z
		 M694,100.8L694,100.8l5.6,15.9h-11.4L694,100.8L694,100.8z M719.3,133.5h9v-29h0.1l18.3,29h9.6V90.1h-9v29.1h-0.1l-18.3-29.1h-9.6
		V133.5L719.3,133.5z M764.8,133.5h9.6v-14l5.5-5.5l13.2,19.5h12.1l-18.8-26.2l17.1-17.1h-12l-17.1,18v-18h-9.6V133.5L764.8,133.5z"
		/>
	<path d="M491.6,36.5c0,0-2.2-0.6-2.2-2.5s1-3.1,3.8-3.1h33.3c0,0,4,0,4,3.1s-1.2,3.1-3.4,3.7s-5.2,0-5.2,4.7v71.8
		c0,0-0.8,10.9,7.6,11.7c8.4,0.8,24.7,2.7,35.7-3.7c11-6.4,15.2-12.9,15.2-12.9s-0.7,6.7-2.5,14.3c-1.8,7.6-20.6,11.3-26.2,11.3
		c-5.6,0-61.6,0-61.6,0s-1.8,0.2-1.8-2.5s1-3.1,3-3.1s9.6-1.5,9.8-4.9c0.2-3.3,0-81.3,0-81.3s0-4.5-3.6-5.3
		C494,36.9,491.6,36.5,491.6,36.5L491.6,36.5z"/>
	<path class="st0" d="M536.9,31.3c0,0-4.3-0.9-4.1,2.4s1.4,4.2,5.1,5.6c3.7,1.4,11.5,6.4,10.6,18.2c-0.9,11.8-6.9,16.1-10.8,17.1
		c-3.9,1-13.1,0.5-13.1,0.5v7.8h10.8c0,0,8.2,0.5,12.2,6.4c4.1,5.9,4.8,11.9,5,16.4c0.4,13.2-8.9,18.7-8.9,18.7s29.9,0.7,29.9-25.5
		c0-14.8-17.6-19.7-17.6-19.7s-4.2-0.7-4.4-1.7s2.7-1.5,4.5-2.1c1.8-0.5,15-5,13.3-23C567.9,34.6,547.3,31,536.9,31.3L536.9,31.3z"
		/>
	<path d="M578,142c-19.7,10.3-39.4,14.7-53.4,13c-37.9-2.9-65.7-32.8-66.2-70.7c-0.5-40.9,28.5-73.9,71-74.3
		c35.3-0.4,64.9,21,65.3,57.7c0.2,20-12.3,44.6-27.3,53.2l-2.6,11.4c21.1-5.3,42.4-33,42-64.1C606.3,27.3,572.5-0.5,528.9,0
		c-46.4,0.5-83.1,36.7-82.5,82.9c0.6,46.9,36.2,82.9,85.4,82.4c28.3-0.3,56-15.8,69.6-40C595,131.4,587.1,137.2,578,142L578,142z"/>
</g>
</svg>
