<svg id="Vrstva_1" data-name="Vrstva 1" xmlns="http://www.w3.org/2000/svg" viewBox="0 0 175.75 41.6"><defs><style>.cls-1{fill:#8e979d;}.cls-2{fill:#960032;}</style></defs><title>PRIVATBANKA_claimEN-2F</title><path class="cls-1" d="M17.65,3.44A1.75,1.75,0,1,1,18.72.1a14.68,14.68,0,1,1-8.11,0,1.75,1.75,0,1,1,1.12,3.32,11,11,0,0,0-1.2.4C5.56,5.33,2,9.46,2,14.33c0,6.13,5.68,10.35,12.69,10.35s12.69-4.22,12.69-10.35c0-4.88-3.6-9-8.6-10.51a11.07,11.07,0,0,0-1.12-.37Z"/><path class="cls-1" d="M117.69,17.11a14,14,0,0,1-.32,3.19,4.88,4.88,0,0,1-1.1,2.2,4.57,4.57,0,0,1-2.11,1.27,11.8,11.8,0,0,1-3.37.41,20.63,20.63,0,0,1-2.9-.19,18.17,18.17,0,0,1-2.09-.39,3.06,3.06,0,0,1-.86-.35,1.55,1.55,0,0,1-.46-.46,1.28,1.28,0,0,1-.19-.56c0-.21,0-.43,0-.69V5.47q0-.3.4-.36l1.88-.38h.09c.21,0,.32.12.32.36V9.41l-.29,1.48q.78-.2,1.63-.36c.46-.08,1-.17,1.55-.24a12.77,12.77,0,0,1,1.67-.11,9.29,9.29,0,0,1,3,.4,4.32,4.32,0,0,1,1.91,1.25,4.84,4.84,0,0,1,1,2.15,15,15,0,0,1,.29,3.14Zm-2.78,0a15.09,15.09,0,0,0-.17-2.49,3.79,3.79,0,0,0-.61-1.58,2.26,2.26,0,0,0-1.19-.84A6.46,6.46,0,0,0,111,12a11.46,11.46,0,0,0-1.35.09l-1.32.19q-.72.13-1.39.28v9.39q.46.13,1,.23t1.18.14c.45,0,1,.06,1.52.06a6.64,6.64,0,0,0,2-.25,2.65,2.65,0,0,0,1.29-.86,3.81,3.81,0,0,0,.71-1.61,12,12,0,0,0,.22-2.5Z"/><path class="cls-1" d="M131.78,21.2a5,5,0,0,1-.1,1.12,1.42,1.42,0,0,1-.39.71,2.14,2.14,0,0,1-.76.46,8.42,8.42,0,0,1-1.23.33c-.44.08-1,.17-1.65.24a19.2,19.2,0,0,1-2.17.11c-.66,0-1.38,0-2.16-.09a7.34,7.34,0,0,1-2.18-.5,4.06,4.06,0,0,1-1.7-1.26,3.77,3.77,0,0,1-.68-2.4,4.15,4.15,0,0,1,.39-2,2.82,2.82,0,0,1,1.06-1.12,4.73,4.73,0,0,1,1.56-.56q.9-.16,1.91-.32l5.44-.79V14.06a3.25,3.25,0,0,0-.14-1,1.26,1.26,0,0,0-.87-.7,8.91,8.91,0,0,0-2.55-.26,16,16,0,0,0-3,.27l-2.22.44a.55.55,0,0,1-.2,0,.44.44,0,0,1-.18,0,.21.21,0,0,1-.11-.16l-.29-1.24a.09.09,0,0,1,0-.08.23.23,0,0,1,.12-.2.8.8,0,0,1,.21-.1c.23-.07.55-.14,1-.24s.88-.18,1.42-.27,1.13-.15,1.77-.21,1.29-.09,2-.09a15.65,15.65,0,0,1,2.59.18,7,7,0,0,1,1.69.48,2.78,2.78,0,0,1,.86.65,2.52,2.52,0,0,1,.48.79,3.06,3.06,0,0,1,.19.89c0,.31,0,.63,0,1V21.2ZM129.12,17l-4.92.71-1,.15a2.55,2.55,0,0,0-.86.29,1.62,1.62,0,0,0-.61.62,2.25,2.25,0,0,0-.23,1.11A2.13,2.13,0,0,0,122.86,22a4.12,4.12,0,0,0,1.29.32c.48,0,.93.06,1.37.06a18,18,0,0,0,1.86-.1,11,11,0,0,0,1.74-.33V17Z"/><path class="cls-1" d="M147.27,23.46c0,.26-.15.38-.44.38H145c-.31,0-.46-.13-.46-.38V14.15a2.13,2.13,0,0,0-.58-1.71,3.16,3.16,0,0,0-2-.48,17,17,0,0,0-1.82.1c-.6.07-1.13.15-1.59.23s-1.06.19-1.56.31V23.46c0,.26-.14.38-.43.38h-1.8c-.31,0-.46-.13-.46-.38V12.81a4.36,4.36,0,0,1,0-.65,1,1,0,0,1,.22-.48,1.64,1.64,0,0,1,.51-.39A4.44,4.44,0,0,1,136,11c.37-.1.81-.2,1.33-.3s1.06-.19,1.6-.25,1.11-.12,1.67-.17,1.07-.06,1.54-.06A7.27,7.27,0,0,1,146,11a3.19,3.19,0,0,1,1.26,2.9v9.58Z"/><path class="cls-1" d="M162.33,23.49s.06.06.06.13-.1.23-.29.23h-2.75a.42.42,0,0,1-.29-.14L153.4,18h-1.13v5.41c0,.26-.15.4-.44.4H150c-.31,0-.46-.13-.46-.38v-18c0-.2.13-.32.4-.36l1.88-.38H152a.27.27,0,0,1,.25.11.44.44,0,0,1,.07.24V16.33h1.13l5.54-5.69a.42.42,0,0,1,.26-.14l2.46.05a.28.28,0,0,1,.22.08.22.22,0,0,1,.07.15.16.16,0,0,1-.05.13L155.75,17l6.58,6.46Z"/><path class="cls-1" d="M175.75,21.2a5,5,0,0,1-.1,1.12,1.43,1.43,0,0,1-.39.71,2.19,2.19,0,0,1-.77.46,8.42,8.42,0,0,1-1.23.33c-.44.08-1,.17-1.65.24a19.14,19.14,0,0,1-2.17.11c-.66,0-1.38,0-2.16-.09a7.36,7.36,0,0,1-2.18-.5,4.06,4.06,0,0,1-1.7-1.26,3.75,3.75,0,0,1-.68-2.4,4.15,4.15,0,0,1,.39-2,2.82,2.82,0,0,1,1.06-1.12,4.73,4.73,0,0,1,1.56-.56q.9-.16,1.91-.32l5.44-.79V14.06a3.25,3.25,0,0,0-.14-1,1.26,1.26,0,0,0-.87-.7,8.92,8.92,0,0,0-2.55-.26,15.94,15.94,0,0,0-3,.27l-2.22.44a.56.56,0,0,1-.2,0,.44.44,0,0,1-.18,0,.21.21,0,0,1-.11-.16l-.29-1.24a.1.1,0,0,1,0-.08.23.23,0,0,1,.12-.2.8.8,0,0,1,.21-.1c.23-.07.55-.14,1-.24s.88-.18,1.42-.27,1.13-.15,1.77-.21,1.29-.09,2-.09a15.64,15.64,0,0,1,2.59.18,7,7,0,0,1,1.69.48,2.8,2.8,0,0,1,.87.65,2.5,2.5,0,0,1,.47.79,2.94,2.94,0,0,1,.19.89c0,.31,0,.63,0,1V21.2ZM173.09,17l-4.92.71-1,.15a2.55,2.55,0,0,0-.86.29,1.62,1.62,0,0,0-.61.62,2.25,2.25,0,0,0-.23,1.11A2.13,2.13,0,0,0,166.84,22a4.13,4.13,0,0,0,1.29.32c.48,0,.93.06,1.38.06a17.9,17.9,0,0,0,1.85-.1,11,11,0,0,0,1.74-.33V17Z"/><path class="cls-2" d="M12.14,14.38a2.54,2.54,0,1,1,2.54,2.54,2.54,2.54,0,0,1-2.54-2.54Z"/><path class="cls-2" d="M48.54,11.79a13.9,13.9,0,0,0-.32-3.19,4.9,4.9,0,0,0-1.1-2.2A4.58,4.58,0,0,0,45,5.14a11.78,11.78,0,0,0-3.37-.41,20.67,20.67,0,0,0-2.9.19,18.12,18.12,0,0,0-2.09.4,3.06,3.06,0,0,0-.86.35,1.58,1.58,0,0,0-.46.46,1.27,1.27,0,0,0-.19.56c0,.2,0,.43,0,.69V23.43c0,.2.14.32.41.36l1.88.38h.09c.21,0,.32-.12.32-.36V19.49L37.51,18c.52.13,1.06.25,1.62.36s1,.17,1.55.24a12.76,12.76,0,0,0,1.67.11,9.3,9.3,0,0,0,3-.41,4.32,4.32,0,0,0,1.91-1.25,4.82,4.82,0,0,0,1-2.15,14.82,14.82,0,0,0,.29-3.14Zm-2.78,0a15,15,0,0,1-.17,2.49A3.79,3.79,0,0,1,45,15.82a2.27,2.27,0,0,1-1.19.84,6.51,6.51,0,0,1-1.92.24,11.65,11.65,0,0,1-1.35-.09l-1.32-.19q-.72-.13-1.39-.28V7c.31-.08.66-.16,1-.23s.72-.1,1.18-.14,1-.06,1.52-.06a6.63,6.63,0,0,1,2,.25,2.64,2.64,0,0,1,1.29.86,3.81,3.81,0,0,1,.71,1.61,12,12,0,0,1,.22,2.5Z"/><path class="cls-2" d="M58.26,11.84c0,.22-.11.33-.32.33-.93,0-1.79,0-2.58.1a15.5,15.5,0,0,0-2.26.36V23.47c0,.25-.14.38-.43.38h-1.8a.85.85,0,0,1-.26-.1.31.31,0,0,1-.2-.28V12.76a1.73,1.73,0,0,1,.3-1.16A2.87,2.87,0,0,1,51.86,11a11.16,11.16,0,0,1,1.2-.33q.68-.15,1.41-.25c.48-.07,1-.12,1.44-.15s.9-.05,1.29-.05h.46l.1,0,.13,0,.23.09a.29.29,0,0,1,.15.29v1.25Z"/><path class="cls-2" d="M63,7.95c0,.29-.15.43-.46.43h-1.7c-.33,0-.49-.14-.49-.43V5.16q0-.43.49-.43h1.7c.31,0,.46.14.46.43V7.95Zm0,15.52c0,.26-.14.38-.43.38H60.82c-.29,0-.43-.13-.43-.38V10.93c0-.25.14-.38.43-.38h1.82c.29,0,.43.13.43.38V23.46Z"/><path class="cls-2" d="M74.25,23.44a.59.59,0,0,1-.61.41H70.08a.59.59,0,0,1-.61-.41L64.81,11a.1.1,0,0,0,0-.07s0,0,0-.06a.35.35,0,0,1,.1-.24.32.32,0,0,1,.25-.12h2a.41.41,0,0,1,.32.1.93.93,0,0,1,.14.25L71.5,22.18h.75l3.48-11.34a.47.47,0,0,1,.52-.36h2.09c.27,0,.41.11.41.33a.21.21,0,0,1,0,.1L74.25,23.44Z"/><path class="cls-2" d="M92.28,21.2a5,5,0,0,1-.1,1.12,1.4,1.4,0,0,1-.39.71,2.17,2.17,0,0,1-.77.46,8.35,8.35,0,0,1-1.23.33c-.44.08-1,.17-1.65.24a19.19,19.19,0,0,1-2.17.11c-.66,0-1.38,0-2.16-.09a7.35,7.35,0,0,1-2.18-.5,4.07,4.07,0,0,1-1.69-1.26,3.76,3.76,0,0,1-.68-2.4,4.16,4.16,0,0,1,.39-2,2.82,2.82,0,0,1,1.06-1.12,4.74,4.74,0,0,1,1.56-.56q.9-.16,1.91-.32l5.44-.79V14.06a3.25,3.25,0,0,0-.14-1,1.26,1.26,0,0,0-.87-.7,8.92,8.92,0,0,0-2.55-.26,16,16,0,0,0-3,.27l-2.21.44a.56.56,0,0,1-.2,0,.43.43,0,0,1-.17,0,.22.22,0,0,1-.11-.16L80,11.36a.09.09,0,0,1,0-.08.23.23,0,0,1,.12-.2.81.81,0,0,1,.2-.1c.23-.07.55-.14,1-.24s.88-.18,1.42-.27,1.13-.15,1.77-.21,1.29-.09,2-.09a15.54,15.54,0,0,1,2.59.18,7,7,0,0,1,1.69.48,2.79,2.79,0,0,1,.86.65,2.51,2.51,0,0,1,.47.79,2.88,2.88,0,0,1,.19.89c0,.31,0,.63,0,1V21.2ZM89.63,17l-4.92.71-1,.15a2.55,2.55,0,0,0-.86.29,1.64,1.64,0,0,0-.61.62A2.27,2.27,0,0,0,82,19.86,2.14,2.14,0,0,0,83.37,22a4.14,4.14,0,0,0,1.29.32c.47,0,.93.06,1.37.06a17.88,17.88,0,0,0,1.86-.1A11,11,0,0,0,89.63,22V17Z"/><path class="cls-2" d="M102.55,23.38c0,.13-.09.24-.26.3s-.74.19-1.35.31a11.85,11.85,0,0,1-2.22.18,5.28,5.28,0,0,1-3.32-.87,3.31,3.31,0,0,1-1.08-2.77V6.78c0-.14,0-.22.1-.27a1.1,1.1,0,0,1,.31-.11L96.61,6h.09c.21,0,.32.12.32.35v4.12h4.7c.27,0,.41.13.41.38V12c0,.24-.14.36-.44.36H97v8.34A1.43,1.43,0,0,0,97.59,22a3.42,3.42,0,0,0,1.71.34,9,9,0,0,0,1.39-.12l1.16-.19.09,0a.3.3,0,0,1,.32.25l.29,1.07v.05Z"/><path class="cls-2" d="M7.94,14.32c0,2.2,1.87,4.08,4.49,4.77.59.19.63.8.63,1.34a1.75,1.75,0,0,1-2.76,1.43,8.67,8.67,0,1,1,8.8,0,1.75,1.75,0,0,1-2.78-1.41c0-.54,0-1.16.63-1.34,2.61-.7,4.48-2.57,4.48-4.77,0-2.49-2.91-4.39-6.77-4.39-3.61,0-6.71,1.9-6.71,4.39Z"/><path class="cls-1" d="M40.2,39l-.75-1.94H36.53L35.84,39H35l2.77-7.27h.45L41,39Zm-1.89-5.1A8.17,8.17,0,0,1,38,33h0a8.76,8.76,0,0,1-.29.89l-.9,2.46h2.33Z"/><path class="cls-1" d="M43.27,39.1a2.85,2.85,0,0,1-1.54-.4l.31-.63a2.39,2.39,0,0,0,1.27.37c.64,0,1.1-.29,1.1-.77C44.4,36.41,42,36.86,42,35c0-.75.54-1.37,1.73-1.37a3.08,3.08,0,0,1,1.31.28v.7a3,3,0,0,0-1.28-.31c-.53,0-1,.19-1,.66,0,1.17,2.41.87,2.41,2.57C45.23,38.65,44.33,39.1,43.27,39.1Z"/><path class="cls-1" d="M54.95,38.16a3.78,3.78,0,0,1-4.95,0,3.72,3.72,0,0,1-1.13-2.79,3.8,3.8,0,0,1,1-2.68,3.69,3.69,0,0,1,5.24.11A3.88,3.88,0,0,1,56,35.41,3.75,3.75,0,0,1,54.95,38.16Zm-2.5-5.7a2.65,2.65,0,0,0-2.72,2.95,2.73,2.73,0,1,0,5.43,0A2.65,2.65,0,0,0,52.45,32.46Z"/><path class="cls-1" d="M60.81,39l-.21-.54a2.66,2.66,0,0,1-1.68.65c-.7,0-1.58-.36-1.58-1.83V33.79h.8V37.2c0,.87.36,1.21,1,1.21a1.86,1.86,0,0,0,1.39-.69V33.79h.8v3A8.22,8.22,0,0,0,61.45,39Z"/><path class="cls-1" d="M64.3,39.1A1,1,0,0,1,63.19,38V34.47h-.85v-.68h.85V32.65l.8-.28v1.42h1.6l-.29.68H64v3.28c0,.44.16.64.51.64a1.58,1.58,0,0,0,.92-.37l.25.57A2.43,2.43,0,0,1,64.3,39.1Z"/><path class="cls-1" d="M67.9,39.1a2.85,2.85,0,0,1-1.54-.4l.31-.63a2.39,2.39,0,0,0,1.27.37c.64,0,1.1-.29,1.1-.77,0-1.28-2.37-.83-2.37-2.65,0-.75.54-1.37,1.73-1.37a3.08,3.08,0,0,1,1.31.28v.7a3,3,0,0,0-1.28-.31c-.53,0-1,.19-1,.66,0,1.17,2.41.87,2.41,2.57C69.87,38.65,69,39.1,67.9,39.1Z"/><path class="cls-1" d="M72.53,39.1A1,1,0,0,1,71.42,38V34.47h-.85v-.68h.85V32.65l.8-.28v1.42h1.6l-.29.68H72.22v3.28c0,.44.17.64.51.64a1.58,1.58,0,0,0,.92-.37l.25.57A2.43,2.43,0,0,1,72.53,39.1Z"/><path class="cls-1" d="M78,39l-.21-.51a2.22,2.22,0,0,1-1.6.62,1.55,1.55,0,0,1-1.59-1.6c0-1,.71-1.65,2.09-1.69l1.06,0v-.24c0-.89-.46-1.19-1.12-1.19a2.13,2.13,0,0,0-1.36.48l-.33-.58a2.91,2.91,0,0,1,1.84-.59,1.58,1.58,0,0,1,1.78,1.76V37a7.33,7.33,0,0,0,.11,2Zm-.25-2.5-1,0c-.94,0-1.31.35-1.31.92a.92.92,0,0,0,1,1,1.77,1.77,0,0,0,1.33-.59Z"/><path class="cls-1" d="M83.29,39v-3.2c0-.65-.11-1.37-.9-1.37a2.63,2.63,0,0,0-1.62.81V39H80v-5.2h.66l.11.62a3,3,0,0,1,1.86-.75c.75,0,1.5.54,1.5,1.84V39Z"/><path class="cls-1" d="M87.91,39.1a2.48,2.48,0,0,1-2.67-2.64,2.7,2.7,0,0,1,2.68-2.8,3.34,3.34,0,0,1,.85.09V31.2h.8v7.52A3.49,3.49,0,0,1,87.91,39.1Zm.86-4.61a2,2,0,0,0-.8-.13,1.94,1.94,0,0,0-1.91,2,1.84,1.84,0,0,0,2,2,1.88,1.88,0,0,0,.72-.13Z"/><path class="cls-1" d="M91.48,32.7a.56.56,0,1,1,.56-.56A.56.56,0,0,1,91.48,32.7ZM91.09,39v-5.2h.8V39Z"/><path class="cls-1" d="M96.74,39v-3.2c0-.65-.11-1.37-.9-1.37a2.63,2.63,0,0,0-1.62.81V39h-.8v-5.2h.66l.11.62A3,3,0,0,1,96,33.66c.75,0,1.5.54,1.5,1.84V39Z"/><path class="cls-1" d="M100.82,41.6c-1.57,0-2.45-.69-2.45-1.55a1.52,1.52,0,0,1,1-1.3.67.67,0,0,1-.36-.64,1.45,1.45,0,0,1,.59-1,1.8,1.8,0,0,1-.86-1.57,2,2,0,0,1,2.85-1.72c.07,0,.1,0,.13,0a1.77,1.77,0,0,1,1.45-.36l-.23.73a1.11,1.11,0,0,0-.76,0,1.78,1.78,0,0,1,.6,1.35,1.89,1.89,0,0,1-2,1.91,1.81,1.81,0,0,1-.66-.11.81.81,0,0,0-.26.6c0,.76,3.6,0,3.6,1.95C103.4,40.77,102.63,41.6,100.82,41.6ZM99.95,39c-.29.18-.75.47-.75,1s.66,1,1.67,1,1.64-.37,1.64-.93C102.51,39.06,100.63,39.18,99.95,39Zm.79-4.64a1.13,1.13,0,0,0-1.19,1.2,1.16,1.16,0,0,0,1.19,1.24,1.14,1.14,0,0,0,1.2-1.23A1.15,1.15,0,0,0,100.74,34.35Z"/><path class="cls-1" d="M110,39l-.21-.51a2.21,2.21,0,0,1-1.59.62,1.55,1.55,0,0,1-1.59-1.6c0-1,.71-1.65,2.09-1.69l1.06,0v-.24c0-.89-.46-1.19-1.12-1.19a2.13,2.13,0,0,0-1.36.48l-.33-.58a2.9,2.9,0,0,1,1.84-.59,1.58,1.58,0,0,1,1.78,1.76V37a7.39,7.39,0,0,0,.11,2Zm-.25-2.5-1,0c-.93,0-1.31.35-1.31.92a.92.92,0,0,0,1,1,1.77,1.77,0,0,0,1.33-.59Z"/><path class="cls-1" d="M113,39.1a2.85,2.85,0,0,1-1.54-.4l.31-.63a2.39,2.39,0,0,0,1.26.37c.64,0,1.1-.29,1.1-.77,0-1.28-2.36-.83-2.36-2.65,0-.75.54-1.37,1.73-1.37a3.08,3.08,0,0,1,1.31.28v.7a3,3,0,0,0-1.28-.31c-.53,0-1,.19-1,.66,0,1.17,2.41.87,2.41,2.57C115,38.65,114.12,39.1,113,39.1Z"/><path class="cls-1" d="M121.53,36.09V39h-.8V36.07l-2.41-4.32h.88l1.29,2.32c.22.38.47.84.65,1.21h0c.17-.37.41-.84.61-1.21L123,31.74h.85Z"/><path class="cls-1" d="M127.84,38.45a2.25,2.25,0,0,1-1.65.65,2.2,2.2,0,0,1-1.62-.64,3.31,3.31,0,0,1,0-4.14,2.34,2.34,0,0,1,3.28,0,3.28,3.28,0,0,1,0,4.12Zm-1.64-4.11c-1,0-1.54.79-1.54,2s.58,2,1.55,2,1.55-.81,1.55-2S127.2,34.34,126.2,34.34Z"/><path class="cls-1" d="M133.21,39l-.21-.54a2.66,2.66,0,0,1-1.68.65c-.7,0-1.58-.36-1.58-1.83V33.79h.8V37.2c0,.87.36,1.21,1,1.21a1.86,1.86,0,0,0,1.39-.69V33.79h.8v3a8.17,8.17,0,0,0,.11,2.18Z"/></svg>