<?xml version="1.0" encoding="utf-8"?>
<!-- Generator: Adobe Illustrator 19.1.0, SVG Export Plug-In . SVG Version: 6.00 Build 0)  -->
<svg version="1.1" id="Layer_1" xmlns="http://www.w3.org/2000/svg" xmlns:xlink="http://www.w3.org/1999/xlink" x="0px" y="0px"
	 viewBox="-305 270.6 229.5 54.7" style="enable-background:new -305 270.6 229.5 54.7;" xml:space="preserve">
<style type="text/css">
	.st0{fill:#F26531;}
	.st1{fill:#0054A6;}
</style>
<g>
	<path class="st0" d="M-295.9,324h18.2h26.5v-24.2v-6.2C-261,309.6-277,319.9-295.9,324L-295.9,324z"/>
	<path class="st1" d="M-303.4,271.8h52.2c-6.2,26.4-26.9,46.2-52.2,52.2V271.8L-303.4,271.8z"/>
	<g>
		<g>
			<path class="st1" d="M-237.8,305.1h6.1c0.2,1.7,0.9,3,2,3.6c1.2,0.8,2.8,1.2,4.8,1.2c1.8,0,3.2-0.3,4.1-1
				c0.9-0.6,1.4-1.6,1.4-2.8c0-1.9-2.6-3.4-7.8-4.5l-0.2-0.1l-0.7-0.2c-3-0.6-4.9-1.3-5.9-2c-1.2-0.6-2-1.6-2.4-2.8
				c-0.6-1-0.9-2.4-0.9-4c0-2.8,1-5.1,3-6.7c2-1.6,4.8-2.3,8.6-2.3c3.5,0,6.3,0.8,8.2,2.4c2,1.8,3,4.1,3.1,7h-3.5
				c-1.3,0-2.3-0.6-2.9-1.8c-0.3-0.6-0.7-1.1-1.2-1.5c-1-0.8-2.5-1.1-4.3-1.1c-1.7,0-3,0.3-3.7,1c-0.9,0.6-1.3,1.5-1.3,2.7
				c0,1.6,1.7,2.7,5,3.5c1,0.3,1.7,0.5,2.2,0.5c1,0.3,2,0.6,2.7,0.8c0.8,0.2,1.4,0.4,1.9,0.5c0.8,0.3,1.6,0.7,2.4,1
				c1.2,0.7,2.1,1.6,2.7,2.7c0.6,1.2,1,2.5,1,4c0,3.1-1,5.6-3.1,7.3c-2.1,1.6-5,2.4-8.9,2.4s-6.9-0.8-8.9-2.5
				C-236.5,310.9-237.7,308.4-237.8,305.1z"/>
		</g>
		<g>
			<path class="st1" d="M-200,284.5h4.9l10.9,29.9h-6.5l-2-6.2h-11.6l-1.9,6.2h-6.5l9.9-27.9C-202.4,285.2-201.4,284.5-200,284.5z
				 M-198.6,290.5l-4.2,12.7h8.3L-198.6,290.5z"/>
		</g>
		<g>
			<path class="st1" d="M-178.4,314.4l-10.3-29.9h6.9l6.3,22.3l5.8-20.1c0.3-1.5,1.3-2.3,3-2.3h4.4l-10.2,29.9L-178.4,314.4
				L-178.4,314.4z"/>
		</g>
		<g>
			<path class="st1" d="M-159.9,314.4v-26.7c0-0.9,0.3-1.6,0.9-2.2c0.6-0.6,1.3-0.9,2.2-0.9h18.6v5.1h-15.6v6.4h11.6v2
				c0,0.9-0.3,1.6-0.9,2.2c-0.6,0.6-1.3,0.9-2.2,0.9h-8.5v7.7h15.6v5.6L-159.9,314.4L-159.9,314.4z"/>
		</g>
		<g>
			<path class="st1" d="M-134.3,314.4v-26.7c0-0.9,0.3-1.6,0.9-2.2c0.6-0.6,1.3-0.9,2.2-0.9h8.6c4.6,0,8,1.2,10.3,3.6
				c2.3,2.5,3.4,6.3,3.4,11.3c0,2.7-0.4,5.1-1.2,7.2c-0.9,2.2-2.1,3.9-3.6,5c-1.3,1-2.6,1.7-4.1,2.1c-1.4,0.4-3.5,0.6-6.3,0.6
				C-124.1,314.4-134.3,314.4-134.3,314.4z M-128.3,309h5c2.8,0,4.9-0.8,6.3-2.3c1.3-1.4,1.9-3.8,1.9-7.3c0-3.4-0.6-5.8-1.8-7.4
				c-1.2-1.6-3-2.3-5.6-2.3h-5.7L-128.3,309L-128.3,309z"/>
		</g>
		<g>
			<path class="st1" d="M-106.2,299.5c0-4.9,1.3-8.7,3.8-11.6c2.7-2.8,6.3-4.3,10.7-4.3c4.3,0,7.9,1.4,10.7,4.3
				c2.6,2.9,3.9,6.7,3.9,11.6c0,4.8-1.3,8.6-3.9,11.5c-2.7,2.8-6.2,4.2-10.7,4.2s-8.1-1.4-10.7-4.2
				C-104.9,308.2-106.2,304.3-106.2,299.5z M-100,299.5c0,3.4,0.7,5.9,2.2,7.6c1.4,1.8,3.5,2.7,6.2,2.7c2.6,0,4.7-0.9,6.2-2.7
				c1.5-1.9,2.3-4.4,2.3-7.6s-0.8-5.8-2.3-7.7c-1.5-1.8-3.6-2.7-6.2-2.7c-2.7,0-4.7,0.9-6.2,2.7C-99.3,293.5-100,296.1-100,299.5z"
				/>
		</g>
	</g>
</g>
</svg>
