<?xml version="1.0" encoding="utf-8"?>
<!-- Generator: Adobe Illustrator 19.1.0, SVG Export Plug-In . SVG Version: 6.00 Build 0)  -->
<svg version="1.1" id="Layer_1" xmlns="http://www.w3.org/2000/svg" xmlns:xlink="http://www.w3.org/1999/xlink" x="0px" y="0px"
	 viewBox="0 0 391.2 115" style="enable-background:new 0 0 391.2 115;" xml:space="preserve">
<style type="text/css">
	.st0{fill:#58595B;}
	.st1{fill:#A7A9AC;}
</style>
<g>
	<g>
		<g>
			<path class="st0" d="M14.7,102.4c-2.2,0-4.1-1.8-4.1-4.1l0-79.8c0-2.2,1.8-4.1,4.1-4.1h22.1c2.2,0,4.1,1.8,4.1,4.1l0,8.3
				c0,2.2-1.8,4.1-4.1,4.1h-4.9c-2.2,0-4.1,1.8-4.1,4.1l0,27.5c0,2.2,0.8,2.4,1.7,0.4l21.1-44.8c1-2,3.6-3.7,5.8-3.7h13.5
				c2.2,0,3.3,1.6,2.3,3.7L33.3,98.7c-1,2-3.6,3.7-5.9,3.7H14.7z"/>
		</g>
		<g>
			<path class="st1" d="M96.8,14.4c2.2,0,4.1,1.8,4.1,4.1l0,79.8c0,2.2-1.8,4.1-4.1,4.1H74.6c-2.2,0-4.1-1.8-4.1-4.1V90
				c0-2.2,1.8-4.1,4.1-4.1l4.9,0c2.2,0,4.1-1.8,4.1-4.1l0-27.5c0-2.3-0.8-2.4-1.7-0.4L60.7,98.7c-1,2-3.6,3.7-5.8,3.7H41.4
				c-2.2,0-3.3-1.7-2.3-3.7l39.1-80.6c1-2,3.6-3.7,5.8-3.7H96.8z"/>
		</g>
	</g>
	<g>
		<path class="st0" d="M161.6,91.4h-7.4l6.4-13h0.1L161.6,91.4z M161.9,97.2l0.5,5.2h8.1l-2.7-29.9h-12.1l-15.3,29.9h8.3l2.6-5.2
			H161.9z M129,95.5h-0.2l-1.6-23.1h-8.1l2.1,29.9h12.4l15.1-29.9h-8.3L129,95.5z"/>
		<path class="st0" d="M220.3,91.4h-7.4l6.4-13h0.1L220.3,91.4z M220.6,97.2l0.5,5.2h8.1l-2.7-29.9h-12.1L199,102.4h8.3l2.6-5.2
			H220.6z M183.1,90h6.2c2.6,0,3.4,0.4,2.9,2.8c-0.5,2.4-1.7,3-4.3,3h-6L183.1,90z M185.4,79h6.7c2.2,0.1,2.4,0.8,2,2.6
			c-0.5,2.4-1.3,2.9-4.1,2.9h-5.7L185.4,79z M172.4,102.4h15.9c6.3,0,10-1,11.5-8.3c0.8-3.8,0.6-6.4-3.7-6.7l0.1-0.3
			c4.1-0.6,5.4-3.1,6.2-6.9c1.4-6.5-1.9-7.7-7.8-7.7h-15.7L172.4,102.4z"/>
		<path class="st1" d="M241.2,72.4h8.1c6.7,0,9.7,3.2,9.7,7.5c0,3.2-1.7,5.6-4.1,6.5v0.1c3.1,0.5,6.3,2.8,6.3,7.2
			c0,4.9-2.9,8.5-10.5,8.5h-9.4V72.4z M249.8,85.6c3.8,0,5.7-1.8,5.7-5.1c0-4.1-2.5-5.4-7-5.4h-3.8v10.4H249.8z M249.9,99.4
			c4.1,0,7.6-0.9,7.6-5.5c0-4-3.2-5.6-8.3-5.6h-4.7v11.1H249.9z"/>
		<path class="st1" d="M275.8,72.4h4.5l10.8,29.8h-3.7l-4-11.1h-11.8l-4.4,11.1h-3.7L275.8,72.4z M282.5,88.3l-4.6-13.5l-5.1,13.5
			H282.5z"/>
		<path class="st1" d="M296.3,72.4h4.4l15.7,25.9h0.1l-0.2-3.8V72.4h3.5v29.8h-4.6l-15.5-25.5h-0.1l0.2,3.1v22.4h-3.5V72.4z"/>
		<path class="st1" d="M328.8,72.4h3.5v29.8h-3.5V72.4z M333.3,86.7V86l11.8-13.6h4.4l-12.4,13.8l13.2,16h-4.6L333.3,86.7z"/>
		<path class="st1" d="M363,72.4h4.5l10.8,29.8h-3.8l-4-11.1h-11.8l-4.4,11.1h-3.7L363,72.4z M369.8,88.3l-4.7-13.5L360,88.3H369.8z
			"/>
	</g>
</g>
</svg>
