<?xml version="1.0" encoding="utf-8"?>
<!-- Generator: Adobe Illustrator 18.1.1, SVG Export Plug-In . SVG Version: 6.00 Build 0)  -->
<svg version="1.1" id="Layer_1" xmlns="http://www.w3.org/2000/svg" xmlns:xlink="http://www.w3.org/1999/xlink" x="0px" y="0px"
	 viewBox="-295.1 222.2 697.9 90.9" enable-background="new -295.1 222.2 697.9 90.9" xml:space="preserve">
<g>
	<path fill="#6F101B" d="M-295.1,232.4c0,5.6,27.6,67.9,31.3,70.5c5.8,4.5,14.1,4.8,19.9,0.3c2.4-1.6,10.9-18.3,18.8-37.1l14.3-33.7
		h-9.8h-10.1l-11.7,28.1c-8.8,21.2-11.9,27-13.5,23.3c-1.1-2.9-6.1-15.1-11.1-27.6c-5.7-14.4-5.4-15.9-10.4-23.9H-295.1z"/>
	<path fill="#6F101B" d="M-166.4,277.5h27.8v-7.1c0-6.2-2.7-39.6-38.6-40.5c-34.8-0.9-42.7,38.7-33.2,56.2
		c10.9,20.1,33.4,26.9,52.9,14.9l9-6.6l-13.8-11.8c0,0-3.4,2-6.6,4.1c-4.9,2.7-7.6,3-14.6,1.3c-4.2-1.6-8.4-4.3-10.3-7.9
		c-1.1-2.1-0.8-2.7-0.8-2.7C-190.7,277.5-172.1,277.5-166.4,277.5z M-159.2,259.3H-195c0,0,4-11.7,18.5-11.8
		C-164,247.5-159.2,259.3-159.2,259.3z"/>
	<path fill="#6A131E" d="M-113.5,236.9c0-0.6,0-4.2,0-4.2l-18.2,0v35.8v35.8h9.3h9.3v-21.5c0-19.9,0.5-22.7,7.2-28.6
		c4-3.4,7.1-5.6,13.4-6.1v-17.7C-109.2,230.4-113.5,238.2-113.5,236.9z"/>
	<path fill="#6A131E" d="M-76.7,235.2c-19.9,13.9-7.9,42.8,19.4,42.1c9.8-0.3,14.6,2.7,14.6,7.1c0,5.5-11,7.6-21.9,3.8
		c-3.6-1.1-5.8-3.7-7.3-4.6c0,0-15.2,10.1-15.2,10.7c0,0.5,3.1,4.6,8,7.6c13.1,8.2,37.4,7.6,47.3-1.1c5.7-4.9,7.6-8.7,7.6-16.4
		c0-13.7-7.9-20.8-27.3-24.6c-10.9-2.2-16.1-4.6-16.1-7.1c0-5.2,14.3-9.7,25.9,1.3l13.5-10.4c0,0-4-5.9-9.6-9.1
		C-51.8,227.2-68.6,229.5-76.7,235.2z"/>
	<path fill="#6A131E" d="M18.4,230.3c-21.3,0-38.6,17.3-38.6,38.6c0,21.3,17.3,38.6,38.6,38.6c21.3,0,38.6-17.3,38.6-38.6
		C57,247.5,39.7,230.3,18.4,230.3z M18.4,289.4c-11.4,0-20.7-9.3-20.7-20.7c0-11.4,9.3-20.7,20.7-20.7c11.4,0,20.7,9.3,20.7,20.7
		C39.1,280.1,29.9,289.4,18.4,289.4z"/>
	<path fill="#94969A" d="M169.5,231.6c-1.1,0.7-1.4,5.7-1.4,26.8c0,24.5,0.1,26.1,2.2,30.8c5.8,13.1,19.6,19.4,33.3,15.3
		c4.9-1.5,12.3-7.9,14.9-13c9.6-18.9-3.2-41.3-23.6-41.1c-7.1,0.1-12.8,2.2-17.2,6.5l-3.3,3.2V246c0-11.9-0.2-14.2-1.6-14.7
		C170.9,230.6,171.2,230.5,169.5,231.6z M204.1,259.4c4.7,2.4,9.8,9.7,10.7,15.3c1.3,8.4-2.9,17.4-10.1,21.7
		c-6.1,3.6-13.4,3.6-19.6,0c-2.4-1.5-5.4-4.8-6.5-6.2c-3.1-4-4.6-11.4-3.2-16.6C179,259.7,192.1,253.2,204.1,259.4z"/>
	<path fill="#94969A" d="M353.9,231.6c-0.3,0.6-0.6,17-0.6,36.6s0.3,36,0.6,36.6c0.8,1.3,4.2,1.1,5.1-0.2c0.3-0.6,0.6-5.5,0.5-10.8
		l-0.2-9.7l7.6-5.3c4.2-2.9,7.8-5.1,8-4.9c0.1,0.1,5.3,7.3,11.5,15.8c11.4,15.8,13.8,17.8,16.3,13.9c0.8-1.3-1.3-4.9-10.7-17.9
		c-6.5-8.9-11.4-16.6-10.9-17c0.4-0.5,4.5-3.6,9.1-7c6.6-4.8,8.3-6.5,8-8.3c-0.6-4.5-4-3-20.3,8.9c-8.8,6.4-16.6,12.1-17.3,12.7
		c-1,0.8-1.2-3.2-1.2-20.6c0.1-11.9-0.1-22.1-0.5-22.7C358.1,230.4,354.7,230.4,353.9,231.6z"/>
	<path fill="#94969A" d="M249.9,250.6c-8.3,2.1-14.6,7.2-18.7,15.1c-3.1,6.1-3.2,17.4-0.2,24.1c2.5,5.3,8,11,13.2,13.5
		c8.6,4.1,21.4,2.5,28-3.6c1.9-1.7,3.4-3,3.5-3c0.1,0,0.2,1.9,0.2,4.2c0,4.1,0.1,4.3,3,4.3h3l0.3-15.4c0.2-11.5-0.1-16.7-1.3-20.6
		c-1.8-6.3-7.9-13.5-13.8-16.4C262.3,250.5,254.3,249.5,249.9,250.6z M261.5,257.8c1.9,0.7,5.1,2.8,7.1,4.7
		c13.6,13,5.3,36.1-13,36.2c-22,0.1-28-30.7-7.7-40.1C252.5,256.5,256.7,256.2,261.5,257.8z"/>
	<path fill="#94969A" d="M309.4,251.7c-3.1,1-6.6,3.1-8.2,4.8c-2.6,3-2.8-0.7-2.7-2.8c0.3-2.4-0.6-3.1-3.9-2.8l-2.7,0.3v27v27
		l2.4,0.3c1.3,0.2,2.8-0.2,3.2-1c0.5-0.7,0.9-7.9,0.9-15.9c0-19.9,2.3-25.6,12-29.8c8.1-3.5,15.5-2.2,21.6,3.7
		c5.7,5.6,6.4,8.2,6.4,25.4c0,8.4,0.4,15.9,0.9,16.6c0.4,0.8,1.9,1.2,3.2,1l2.4-0.3v-18c0-16.7-0.2-18.3-2.2-22.1
		c-3.1-5.9-10.6-12.1-16.6-13.9C319.5,249.3,316.1,249.3,309.4,251.7z"/>
	<g>
		<g>
			<path fill="#929295" d="M82.3,301.9l6.5,2.7c0,0,18.4-8.4,33.7-24.5s21-44.3,21-44.3l-4.3-3.6c-2.4-2-13.5,1.5-13.5,1.5
				s-5.5,21-15.9,32.2c-15.7,16.9-35.5,26.1-35.8,25.4C73.5,290.5,77.3,298.1,82.3,301.9z"/>
			<path fill="#929295" d="M93,240.4C77.4,245.8,70.5,252.6,68,257l1.2,5l16.4,4.7c0,0,18.3-22,24.6-22.3L93,240.4z"/>
			<path fill="#929295" d="M157.7,267.3c0,25.1-20.3,45.4-45.4,45.4c0,0,21.5-21.9,27.6-29.9c6.1-8,9-14.4,9-14.4L157.7,267.3z"/>
			<path fill="#929295" d="M111,222.2c-17.6,1.2-27,10.1-29.6,14.5c0,0,8.3,4.5,18.9,0.2c8.9-3.6,6.9-4.9,9.8-4.9L111,222.2z"/>
		</g>
		<g transform="translate(0.000000,94.000000) scale(0.100000,-0.100000)">
			<path fill="#6A131E" d="M1242.2-1331c-50-19-270-29-288-13c-48.9,11.1-89-22-150-82l-52-51l35-14c19-8,71-21,115-30
				c114-21,112.8-22.6,157-22c99,1.3,240,39,321,90c19.2,12.6,53.4,35.5,53.4,35.5s-42.6,44.4-96.4,72.5
				C1284.2-1317,1281.2-1317,1242.2-1331z"/>
			<path fill="#6A131E" d="M671.2-1788l7-42l92-22c109-25,275-42,355-34l57,5c0,0,35,8,80,18c71,15,157,46,250,91l67,32l-5,56
				c-3,31-13,75-22,99c-16,38-19,41-34,28c-26-24-151-83-236-112c-142-48-338-44-528,11c-35,10-74,28-74,28S662.2-1726,671.2-1788z"
				/>
			<path fill="#6A131E" d="M1454.2-1962c-45-22-95-43-112-47c-29-7-67-22-140-33c-124-18-259-13-396,15c-18,3-42,13-42,13
				c10-17,27-38,49-58c153-135,375-158,546-58c65,38,144.5,116.5,179,202C1556.2-1878.5,1533.2-1925,1454.2-1962z"/>
		</g>
	</g>
</g>
</svg>
